<svg id="Layer_1" data-name="Layer 1" xmlns="http://www.w3.org/2000/svg" viewBox="0 0 898.98 790.65"><defs><style>.cls-1{fill:#5793ce;}.cls-2{fill:#396caa;}.cls-3,.cls-8{fill:#d4ecff;}.cls-4{fill:#fff;}.cls-5{fill:#efefef;}.cls-6{fill:#173d7a;}.cls-7{fill:#fafdff;}.cls-8{opacity:0.4;}.cls-9{fill:#274f89;}.cls-10{fill:#ff2c9c;}.cls-11{fill:#d3008d;}.cls-12{fill:#ffc2b0;}</style></defs><path class="cls-1" d="M589.7,272.65a1.84,1.84,0,0,1-1.85-1.84V194.89a1.85,1.85,0,0,1,3.69,0v75.92A1.84,1.84,0,0,1,589.7,272.65Z" transform="translate(-0.85 -25.87)"/><rect class="cls-1" x="582.25" y="164.25" width="13.19" height="28.46"/><path class="cls-1" d="M594.36,221.27a10.3,10.3,0,0,1-9.33,0c-2.57-1.49-2.57-3.9,0-5.38a10.3,10.3,0,0,1,9.33,0C596.94,217.37,596.94,219.78,594.36,221.27Z" transform="translate(-0.85 -25.87)"/><rect class="cls-1" x="578.16" y="124.59" width="21.37" height="44.64"/><path class="cls-2" d="M583.1,194.8v9.63a17,17,0,0,0,13.19,0V194.8A17,17,0,0,0,583.1,194.8Z" transform="translate(-0.85 -25.87)"/><path class="cls-1" d="M597.25,199.45a16.69,16.69,0,0,1-15.11,0c-4.17-2.41-4.17-6.31,0-8.72a16.69,16.69,0,0,1,15.11,0C601.43,193.14,601.43,197,597.25,199.45Z" transform="translate(-0.85 -25.87)"/><path class="cls-1" d="M663.73,314.31a1.84,1.84,0,0,1-1.84-1.85V236.55a1.84,1.84,0,0,1,3.68,0v75.91A1.84,1.84,0,0,1,663.73,314.31Z" transform="translate(-0.85 -25.87)"/><rect class="cls-1" x="656.28" y="205.91" width="13.19" height="28.46"/><path class="cls-1" d="M668.39,262.93a10.34,10.34,0,0,1-9.32,0c-2.58-1.49-2.58-3.9,0-5.39a10.34,10.34,0,0,1,9.32,0C671,259,671,261.44,668.39,262.93Z" transform="translate(-0.85 -25.87)"/><rect class="cls-1" x="652.19" y="166.24" width="21.37" height="44.64"/><path class="cls-2" d="M657.13,236.46v9.63a17,17,0,0,0,13.19,0v-9.63A17,17,0,0,0,657.13,236.46Z" transform="translate(-0.85 -25.87)"/><path class="cls-1" d="M671.28,241.11a16.69,16.69,0,0,1-15.11,0c-4.17-2.41-4.17-6.32,0-8.73a16.69,16.69,0,0,1,15.11,0C675.46,234.79,675.46,238.7,671.28,241.11Z" transform="translate(-0.85 -25.87)"/><polygon class="cls-1" points="734.84 240.31 763.5 223.43 736.21 189.37 729.03 201.09 734.84 240.31"/><path class="cls-1" d="M527.63,79.24l45.73-26.31s-1.72,26.26-1.72,26.31-26.27,8.14-26.27,8.14Z" transform="translate(-0.85 -25.87)"/><path class="cls-1" d="M743.66,180.52a29,29,0,0,0-9.9-3.66c-4.61-24.24-21.47-50-41.58-61.58a40.88,40.88,0,0,0-17-5.76c-2.75-29.37-23.17-62.75-48-77.07-13-7.48-24.71-8.36-33.38-3.78v0l-.42.24-.66.38-27,15.92,9,7.08c-8,3.52-13.13,12.54-13.13,25.87,0,24.6,17.27,54.5,38.57,66.8L743.66,247.4c16,9.23,29,1.75,29-16.72S759.65,189.76,743.66,180.52Z" transform="translate(-0.85 -25.87)"/><path class="cls-1" d="M562.94,67.32l61.89-36.17c-12-6.26-22.87-6.78-31-2.48v0l-.42.24-.66.38-27,15.92,9,7.08C569.11,54.73,564.94,59.89,562.94,67.32Z" transform="translate(-0.85 -25.87)"/><path class="cls-1" d="M677.24,173.7l45.16-26.5c-7.74-13.4-18.41-25.1-30.22-31.92q-2.34-1.35-4.62-2.38l-57.45,33.6Z" transform="translate(-0.85 -25.87)"/><path class="cls-3" d="M578.5,48.15l20.12,11.62,36.86-21.71a73.56,73.56,0,0,0-8.28-5.61A52,52,0,0,0,614.32,27Z" transform="translate(-0.85 -25.87)"/><path class="cls-3" d="M717.42,139.4l-36,21.24,12.53,14,32.72-19.32A104.5,104.5,0,0,0,717.42,139.4Z" transform="translate(-0.85 -25.87)"/><path class="cls-3" d="M715.34,197.2a28.65,28.65,0,0,0-9.89-3.66c-4.61-24.24-21.48-50-41.58-61.58a40.73,40.73,0,0,0-17-5.76c-2.74-29.37-23.16-62.75-48-77.07-26.68-15.4-48.3-2.92-48.3,27.88,0,1,0,2.1.08,3.16-19.5-9-34.74,1.14-34.74,24.25,0,24.59,17.27,54.49,38.56,66.79l160.85,92.86c16,9.24,29,1.75,29-16.71S731.34,206.44,715.34,197.2Z" transform="translate(-0.85 -25.87)"/><path class="cls-4" d="M550.67,80.17c0-1.06-.08-2.11-.08-3.16,0,0,0-.09,0-.13-10.78-4.19-20-2.37-25.85,4.36C531.06,76,540.24,75.33,550.67,80.17Z" transform="translate(-0.85 -25.87)"/><path class="cls-4" d="M717.7,194.91a28.94,28.94,0,0,0-9.9-3.67c-4.61-24.23-21.47-50-41.58-61.57a40.5,40.5,0,0,0-17-5.76c-2.75-29.38-23.17-62.76-48-77.07-16.62-9.6-31.27-8.37-40,1.37,8.85-7.56,22.41-7.86,37.61.92,24.8,14.32,45.22,47.7,48,77.07a40.73,40.73,0,0,1,17,5.76c20.1,11.61,37,37.34,41.58,61.58a28.65,28.65,0,0,1,9.89,3.66c16,9.24,29,31.69,29,50.16,0,6.66-1.71,11.87-4.62,15.4,4.34-3.34,7-9.4,7-17.7C746.65,226.6,733.69,204.14,717.7,194.91Z" transform="translate(-0.85 -25.87)"/><path class="cls-2" d="M547.27,87.5l12.09,5.61-.61-13.31c0-.94-.07-1.87-.07-2.79,0-11.88,3.59-20.5,10.1-24.26s15.77-2.56,26.06,3.38C617,68.91,636.29,100,638.8,127l.64,6.79,6.79.52a32.7,32.7,0,0,1,13.6,4.7c17.58,10.15,33.42,33.74,37.68,56.09l1.06,5.59,5.63.88a21,21,0,0,1,7.1,2.68c13.51,7.8,24.92,27.56,24.92,43.16,0,5.83-1.62,10.11-4.44,11.74s-7.34.89-12.4-2L558.53,164.21C539.82,153.4,524,126,524,104.42c0-8.48,2.5-14.94,6.86-17.73A11.82,11.82,0,0,1,537.29,85,24.17,24.17,0,0,1,547.27,87.5Z" transform="translate(-0.85 -25.87)"/><polygon class="cls-1" points="626.7 162.44 630.94 160.31 626.76 157.15 626.7 162.44"/><polygon class="cls-1" points="613.96 105.13 618.08 103.04 618.15 105.2 613.96 105.13"/><polygon class="cls-1" points="638.8 149.05 643.1 146.88 634.83 139.01 638.8 149.05"/><path class="cls-1" d="M630.55,186.05l-20.09-11.83a4.32,4.32,0,0,1-1.84-3.38l.07-23.26,23.78,14-.07,23.25C632.4,186.11,631.57,186.65,630.55,186.05Z" transform="translate(-0.85 -25.87)"/><path class="cls-1" d="M618.88,128.94l-21.7,14c-.92.59-.17,2.8,1.23,3.62l22.15,13,22.16,13.06c1.4.82,2.16-.51,1.24-2.18L622.42,131C621.49,129.32,619.82,128.33,618.88,128.94Z" transform="translate(-0.85 -25.87)"/><path class="cls-3" d="M626.24,188.22l-20.09-11.84a4.28,4.28,0,0,1-1.84-3.37l.07-23.26,23.78,14L628.1,187C628.09,188.28,627.26,188.82,626.24,188.22Z" transform="translate(-0.85 -25.87)"/><path class="cls-3" d="M614.57,131.11l-21.69,14c-.93.59-.18,2.8,1.22,3.62l22.16,13.05,22.16,13.06c1.39.82,2.15-.51,1.23-2.18l-21.54-39.43C617.18,131.49,615.51,130.5,614.57,131.11Z" transform="translate(-0.85 -25.87)"/><path class="cls-3" d="M587.67,213.65c0,1.3-.92,1.84-2,1.18a4.54,4.54,0,0,1-2-3.55c0-1.31.92-1.84,2-1.19A4.54,4.54,0,0,1,587.67,213.65Z" transform="translate(-0.85 -25.87)"/><path class="cls-3" d="M661.88,255.91c0,1.31-.92,1.84-2,1.18a4.51,4.51,0,0,1-2.06-3.55c0-1.31.92-1.84,2.06-1.19A4.56,4.56,0,0,1,661.88,255.91Z" transform="translate(-0.85 -25.87)"/><path class="cls-5" d="M82,578.88,35.73,552.13c-19.27-11.13-19.27-29.22,0-40.35l42-24.27c8.62-5,8.62-13.07,0-18L41.09,448.29c-19.27-11.12-19.27-29.22,0-40.34l46-26.56c19.26-11.12,50.61-11.12,69.87,0l29.65,17-19.32,11.15-29.64-17c-8.61-5-22.63-5-31.25,0l-46,26.55c-8.61,5-8.61,13.06,0,18l36.68,21.18c19.27,11.12,19.27,29.22,0,40.34L55,522.93c-8.62,5-8.61,13.07,0,18.05l46.25,26.75Z" transform="translate(-0.85 -25.87)"/><path class="cls-1" d="M21.81,510.76l-.53-1v4.55l0,0c-.18,7.44,4.61,14.91,14.42,20.58L82,561.64l19.32-11.15L55,523.74a13.93,13.93,0,0,1-5.48-5.26c-10.33-.72-18.34-6.09-25.7-12.75A19.38,19.38,0,0,0,21.81,510.76Z" transform="translate(-0.85 -25.87)"/><path class="cls-6" d="M157,364.16c-19.26-11.13-50.61-11.13-69.87,0l-46,26.55c-5.7,3.29-9.67,7.2-12,11.35,7.56,7,14.75,14.67,26.38,13.49-3.11-4.58-1.48-10,4.92-13.69l46-26.55c8.62-5,22.64-5,31.25,0l29.64,17,19.32-11.15Z" transform="translate(-0.85 -25.87)"/><path class="cls-1" d="M104.62,446.69a37.53,37.53,0,0,0-7.54-5.61L60.4,419.9a14.78,14.78,0,0,1-4.92-4.35C43.85,416.73,36.66,409,29.1,402.06a19.85,19.85,0,0,0-1.83,4.48l-.63-.72v4.95h0c0,7.34,4.76,14.69,14.44,20.28l36.68,21.18c5.65,3.26,7.57,7.85,5.81,12C91.21,462.31,97.19,452.94,104.62,446.69Z" transform="translate(-0.85 -25.87)"/><path class="cls-6" d="M110.94,457.06a22.39,22.39,0,0,0-6.32-10.37c-7.43,6.25-13.41,15.62-21,17.58a13,13,0,0,1-5.81,6l-42,24.27c-5.63,3.25-9.55,7.1-11.87,11.19,7.36,6.66,15.37,12,25.7,12.75-2.32-4.38-.5-9.33,5.48-12.79l42-24.27c9.55-5.51,14.35-12.73,14.44-20v-5.09Z" transform="translate(-0.85 -25.87)"/><path class="cls-4" d="M41.09,425.92,77.77,447.1c3.86,2.23,6,5.08,6.38,8,.5-3.6-1.62-7.3-6.38-10L41.09,423.87c-9.18-5.3-13.93-12.19-14.36-19.15C26.25,412.37,31,420.1,41.09,425.92Z" transform="translate(-0.85 -25.87)"/><path class="cls-4" d="M82,554.46,35.73,527.71c-9.18-5.3-13.93-12.19-14.37-19.15-.47,7.64,4.28,15.38,14.37,21.2L82,556.52l19.32-11.16-1.78-1Z" transform="translate(-0.85 -25.87)"/><path class="cls-4" d="M167.28,385.16l-29.64-17c-8.61-5-22.63-5-31.25,0l-46,26.56c-4.76,2.74-6.87,6.44-6.37,10,.4-2.91,2.52-5.76,6.37-8l46-26.55c8.62-5,22.64-5,31.25,0l29.64,17,19.32-11.15-1.79-1Z" transform="translate(-0.85 -25.87)"/><path class="cls-4" d="M97.08,474.24,55,498.51c-4.76,2.75-6.88,6.45-6.38,10.05.41-2.92,2.53-5.77,6.38-8l42-24.28c10.09-5.82,14.84-13.55,14.37-21.2C111,462.05,106.26,468.94,97.08,474.24Z" transform="translate(-0.85 -25.87)"/><path class="cls-3" d="M82,556.51,35.73,529.76c-19.27-11.12-19.27-29.22,0-40.34l42-24.28c8.62-5,8.62-13.06,0-18L41.09,425.92c-19.27-11.12-19.27-29.22,0-40.34l46-26.55c19.26-11.12,50.61-11.12,69.87,0l29.65,17-19.32,11.15-29.64-17c-8.61-5-22.63-5-31.25,0l-46,26.55c-8.61,5-8.61,13.07,0,18L97.08,436c19.27,11.12,19.27,29.22,0,40.34L55,500.57c-8.62,5-8.61,13.07,0,18l46.25,26.75Z" transform="translate(-0.85 -25.87)"/><path class="cls-1" d="M105.18,541.57h0a3,3,0,0,0-3.3.17l-21.29,12.3a9.79,9.79,0,0,0-4.44,7.68,3.19,3.19,0,0,0,1.15,2.75l22.83,13.34,27.54-23.16Z" transform="translate(-0.85 -25.87)"/><path class="cls-1" d="M124.45,554.93l-21.29,12.29a9.83,9.83,0,0,0-4.44,7.69c0,2.83,2,4,4.44,2.56l21.29-12.29a9.81,9.81,0,0,0,4.44-7.68C128.89,554.67,126.9,553.52,124.45,554.93Z" transform="translate(-0.85 -25.87)"/><path class="cls-1" d="M164.62,355.81h0a3,3,0,0,0-3.31.17L140,368.28a9.83,9.83,0,0,0-4.44,7.69,3.19,3.19,0,0,0,1.15,2.75l22.83,13.34,27.54-23.16Z" transform="translate(-0.85 -25.87)"/><path class="cls-5" d="M267,524.05,156.45,461c-4-2.34-3.54-6.41,1.13-9.11l63.63-36.73c4.66-2.7,11.73-3,15.77-.66l110.58,63.06c4,2.33,3.54,6.41-1.13,9.1L282.8,523.4C278.13,526.09,271.07,526.39,267,524.05Z" transform="translate(-0.85 -25.87)"/><path class="cls-2" d="M357.42,456.33h0V198.18L254.79,171.32l-18.9-10.91c-4.34-2.51-11.92-2.19-16.93.7l-17.63,10.18-54.74,0L162.8,420.47c-.13,1.69.82,3.33,2.9,4.53l102.42,77.28c4.34,2.5,11.92,2.19,16.93-.7l68.25-39.41C356.19,460.5,357.58,458.34,357.42,456.33Z" transform="translate(-0.85 -25.87)"/><path class="cls-3" d="M228,158.73a19.63,19.63,0,0,0-9.08,2.38l-17.63,10.18-54.74,0V430.1c-.12,1.7.82,3.34,2.91,4.54l118.62,67.64A15.36,15.36,0,0,0,276,504L277.2,243.5Z" transform="translate(-0.85 -25.87)"/><path class="cls-1" d="M269.21,502.81c3.74,1.61,9.15,1.52,13.53-.15V240.42H269.21Z" transform="translate(-0.85 -25.87)"/><path class="cls-3" d="M268.12,243.53,149.5,175.88c-4.34-2.5-3.8-6.87,1.21-9.77L219,126.71c5-2.9,12.59-3.21,16.93-.7l118.62,67.64c4.34,2.5,3.8,6.88-1.21,9.77l-68.25,39.4C280,245.72,272.46,246,268.12,243.53Z" transform="translate(-0.85 -25.87)"/><path class="cls-7" d="M353.3,198.62,285.05,238c-5,2.9-12.59,3.21-16.93.71L149.5,171.09a6.57,6.57,0,0,1-2.17-1.93c-1.49,2.4-.81,5,2.17,6.72l118.62,67.65c4.34,2.5,11.92,2.19,16.93-.71l68.25-39.4c3.89-2.25,5.07-5.39,3.38-7.85A9.53,9.53,0,0,1,353.3,198.62Z" transform="translate(-0.85 -25.87)"/><path class="cls-6" d="M271.48,216.11l-79-45.78c-2-1.17-1.78-3.22.57-4.57L225,147.32c2.34-1.36,5.89-1.5,7.92-.33l79,45.78c2,1.17,1.78,3.22-.57,4.57L279.4,215.78C277.05,217.14,273.51,217.28,271.48,216.11Z" transform="translate(-0.85 -25.87)"/><path class="cls-3" d="M228.84,172.39l-4.58-2.64c-.28-.17-.24-.45.08-.64l4.42-2.55a1.19,1.19,0,0,1,1.1,0l4.57,2.64c.28.16.25.44-.08.63l-4.42,2.55A1.2,1.2,0,0,1,228.84,172.39Z" transform="translate(-0.85 -25.87)"/><path class="cls-3" d="M244.13,181.18l-4.58-2.64c-.28-.17-.24-.45.08-.64l4.42-2.55a1.2,1.2,0,0,1,1.09,0l4.58,2.64c.28.16.25.44-.08.63l-4.42,2.55A1.2,1.2,0,0,1,244.13,181.18Z" transform="translate(-0.85 -25.87)"/><path class="cls-3" d="M259.42,190l-4.58-2.64c-.28-.16-.25-.45.08-.63l4.42-2.56a1.23,1.23,0,0,1,1.09,0l4.58,2.64c.28.16.25.45-.08.63l-4.42,2.55A1.2,1.2,0,0,1,259.42,190Z" transform="translate(-0.85 -25.87)"/><path class="cls-3" d="M274.71,198.76l-4.58-2.64c-.28-.16-.25-.45.08-.63l4.42-2.56a1.23,1.23,0,0,1,1.09,0l4.58,2.64c.28.16.24.45-.08.63l-4.42,2.56A1.23,1.23,0,0,1,274.71,198.76Z" transform="translate(-0.85 -25.87)"/><path class="cls-1" d="M192.5,170.33l.09.06a5.78,5.78,0,0,1,.48-.33L225,151.62c2.34-1.35,5.89-1.5,7.92-.33L311.81,197c1.87-1.34,2-3.17.09-4.25l-79-45.78c-2-1.17-5.58-1-7.92.33l-31.94,18.44C190.72,167.11,190.47,169.16,192.5,170.33Z" transform="translate(-0.85 -25.87)"/><path class="cls-6" d="M298.37,294.67,343.28,269c2.52-1.46,4.57-5.37,4.57-8.74V244.16c0-3.37-2.05-4.92-4.57-3.46l-44.91,25.71c-2.52,1.46-4.57,5.37-4.57,8.74v16.06C293.8,294.58,295.85,296.13,298.37,294.67Z" transform="translate(-0.85 -25.87)"/><path class="cls-4" d="M345.5,240.22a4.5,4.5,0,0,1,1.15,3.34v16.06c0,3.37-2,7.28-4.58,8.74l-44.9,25.71a3.23,3.23,0,0,1-2.22.48,2.72,2.72,0,0,0,3.42.12L343.28,269c2.52-1.46,4.57-5.37,4.57-8.74V244.16C347.85,241.87,346.9,240.46,345.5,240.22Z" transform="translate(-0.85 -25.87)"/><path class="cls-2" d="M311.88,277.23l4.12-2.38a2.39,2.39,0,0,0,1-1.91v-4.4c0-.73-.44-1.07-1-.75l-4.12,2.38a2.39,2.39,0,0,0-1,1.9v4.4C310.88,277.21,311.33,277.54,311.88,277.23Z" transform="translate(-0.85 -25.87)"/><path class="cls-4" d="M325.65,269.27l4.12-2.37a2.4,2.4,0,0,0,1-1.91v-4.4c0-.73-.45-1.07-1-.75l-4.12,2.38a2.38,2.38,0,0,0-1,1.9v4.4C324.65,269.26,325.1,269.59,325.65,269.27Z" transform="translate(-0.85 -25.87)"/><path class="cls-6" d="M298.37,410.71,343.28,385c2.52-1.46,4.57-5.37,4.57-8.74V360.2c0-3.37-2.05-4.92-4.57-3.46l-44.91,25.71c-2.52,1.46-4.57,5.37-4.57,8.74v16.06C293.8,410.62,295.85,412.17,298.37,410.71Z" transform="translate(-0.85 -25.87)"/><path class="cls-4" d="M345.5,356.26a4.5,4.5,0,0,1,1.15,3.34v16.06c0,3.36-2,7.28-4.58,8.74l-44.9,25.71a3.29,3.29,0,0,1-2.22.48,2.72,2.72,0,0,0,3.42.12L343.28,385c2.52-1.46,4.57-5.37,4.57-8.74V360.2C347.85,357.91,346.9,356.49,345.5,356.26Z" transform="translate(-0.85 -25.87)"/><path class="cls-2" d="M311.88,393.27l4.12-2.38a2.39,2.39,0,0,0,1-1.91v-4.4c0-.73-.44-1.07-1-.75l-4.12,2.38a2.38,2.38,0,0,0-1,1.9v4.4C310.88,393.25,311.33,393.58,311.88,393.27Z" transform="translate(-0.85 -25.87)"/><path class="cls-4" d="M325.65,385.31l4.12-2.37a2.41,2.41,0,0,0,1-1.91v-4.4c0-.73-.45-1.07-1-.75l-4.12,2.37a2.41,2.41,0,0,0-1,1.91v4.4C324.65,385.29,325.1,385.63,325.65,385.31Z" transform="translate(-0.85 -25.87)"/><path class="cls-6" d="M298.37,468.73,343.28,443c2.52-1.46,4.57-5.37,4.57-8.74V418.22c0-3.37-2.05-4.92-4.57-3.46l-44.91,25.71c-2.52,1.46-4.57,5.37-4.57,8.74v16.06C293.8,468.64,295.85,470.19,298.37,468.73Z" transform="translate(-0.85 -25.87)"/><path class="cls-4" d="M345.5,414.28a4.5,4.5,0,0,1,1.15,3.34v16.05c0,3.37-2,7.29-4.58,8.75l-44.9,25.71a3.35,3.35,0,0,1-2.22.48,2.72,2.72,0,0,0,3.42.12L343.28,443c2.52-1.46,4.57-5.37,4.57-8.74V418.22C347.85,415.93,346.9,414.51,345.5,414.28Z" transform="translate(-0.85 -25.87)"/><path class="cls-2" d="M311.88,451.28l4.12-2.37a2.39,2.39,0,0,0,1-1.91v-4.4c0-.73-.44-1.07-1-.75l-4.12,2.38a2.38,2.38,0,0,0-1,1.9v4.4C310.88,451.26,311.33,451.6,311.88,451.28Z" transform="translate(-0.85 -25.87)"/><path class="cls-4" d="M325.65,443.33l4.12-2.38a2.38,2.38,0,0,0,1-1.9v-4.4c0-.74-.45-1.07-1-.75l-4.12,2.37a2.4,2.4,0,0,0-1,1.91v4.4C324.65,443.31,325.1,443.65,325.65,443.33Z" transform="translate(-0.85 -25.87)"/><path class="cls-6" d="M298.37,352.69,343.28,327c2.52-1.46,4.57-5.37,4.57-8.74V302.18c0-3.37-2.05-4.92-4.57-3.46l-44.91,25.71c-2.52,1.46-4.57,5.37-4.57,8.74v16.06C293.8,352.6,295.85,354.15,298.37,352.69Z" transform="translate(-0.85 -25.87)"/><path class="cls-4" d="M345.5,298.24a4.5,4.5,0,0,1,1.15,3.34v16.06c0,3.37-2,7.28-4.58,8.74l-44.9,25.71a3.29,3.29,0,0,1-2.22.48,2.72,2.72,0,0,0,3.42.12L343.28,327c2.52-1.46,4.57-5.37,4.57-8.74V302.18C347.85,299.89,346.9,298.47,345.5,298.24Z" transform="translate(-0.85 -25.87)"/><path class="cls-2" d="M311.88,335.25l4.12-2.38a2.39,2.39,0,0,0,1-1.91v-4.4c0-.73-.44-1.07-1-.75l-4.12,2.38a2.38,2.38,0,0,0-1,1.9v4.4C310.88,335.23,311.33,335.56,311.88,335.25Z" transform="translate(-0.85 -25.87)"/><path class="cls-4" d="M325.65,327.29l4.12-2.37a2.41,2.41,0,0,0,1-1.91v-4.4c0-.73-.45-1.07-1-.75l-4.12,2.38a2.38,2.38,0,0,0-1,1.9v4.4C324.65,327.27,325.1,327.61,325.65,327.29Z" transform="translate(-0.85 -25.87)"/><path class="cls-1" d="M259.48,278.23l-103.6-59.81c-2.32-1.34-4.2-4.93-4.2-8V190.64c0-3.09,1.88-4.51,4.2-3.17l103.6,59.81c2.32,1.34,4.2,4.93,4.2,8v19.76C263.68,278.15,261.8,279.57,259.48,278.23Z" transform="translate(-0.85 -25.87)"/><path class="cls-8" d="M256.51,271.31l-97.65-56.38a5.09,5.09,0,0,1-2.13-4.07V196c0-1.57,1-2.29,2.13-1.61l97.65,56.38a5.1,5.1,0,0,1,2.13,4.07V269.7C258.64,271.26,257.68,272,256.51,271.31Z" transform="translate(-0.85 -25.87)"/><path class="cls-3" d="M179.21,219.17l-14.58-8.41a5,5,0,0,1-2.07-4h0c0-1.52.93-2.22,2.07-1.56l14.58,8.41a5,5,0,0,1,2.06,4h0C181.27,219.13,180.35,219.83,179.21,219.17Z" transform="translate(-0.85 -25.87)"/><path class="cls-6" d="M191.62,223.58c0,1.52-1.06,2.14-2.38,1.38a5.27,5.27,0,0,1-2.39-4.14c0-1.52,1.07-2.14,2.39-1.38A5.29,5.29,0,0,1,191.62,223.58Z" transform="translate(-0.85 -25.87)"/><path class="cls-6" d="M200.05,228.45c0,1.52-1.07,2.14-2.39,1.38a5.3,5.3,0,0,1-2.39-4.14c0-1.52,1.07-2.14,2.39-1.38A5.27,5.27,0,0,1,200.05,228.45Z" transform="translate(-0.85 -25.87)"/><path class="cls-3" d="M208.48,233.31c0,1.52-1.07,2.14-2.39,1.38a5.27,5.27,0,0,1-2.39-4.14c0-1.52,1.07-2.14,2.39-1.38A5.3,5.3,0,0,1,208.48,233.31Z" transform="translate(-0.85 -25.87)"/><path class="cls-6" d="M216.9,238.18c0,1.52-1.07,2.14-2.39,1.38a5.32,5.32,0,0,1-2.38-4.14c0-1.52,1.07-2.14,2.38-1.38A5.27,5.27,0,0,1,216.9,238.18Z" transform="translate(-0.85 -25.87)"/><path class="cls-6" d="M252.4,263l-4.91-2.84a3.18,3.18,0,0,1-1.33-2.53v-5.2c0-1,.6-1.42,1.33-1l4.91,2.83a3.2,3.2,0,0,1,1.33,2.54V262C253.73,263,253.13,263.46,252.4,263Z" transform="translate(-0.85 -25.87)"/><path class="cls-1" d="M259.48,313.07l-103.6-59.81c-2.32-1.34-4.2-4.93-4.2-8V225.48c0-3.09,1.88-4.51,4.2-3.17l103.6,59.81c2.32,1.34,4.2,4.93,4.2,8v19.75C263.68,313,261.8,314.41,259.48,313.07Z" transform="translate(-0.85 -25.87)"/><path class="cls-8" d="M256.51,306.14l-97.65-56.38a5.09,5.09,0,0,1-2.13-4.07V230.84c0-1.57,1-2.29,2.13-1.61l97.65,56.38a5.12,5.12,0,0,1,2.13,4.07v14.85C258.64,306.1,257.68,306.82,256.51,306.14Z" transform="translate(-0.85 -25.87)"/><path class="cls-3" d="M179.21,254l-14.58-8.41a5,5,0,0,1-2.07-4h0c0-1.52.93-2.22,2.07-1.56l14.58,8.41a5,5,0,0,1,2.06,3.95h0C181.27,254,180.35,254.66,179.21,254Z" transform="translate(-0.85 -25.87)"/><path class="cls-4" d="M191.62,258.42c0,1.52-1.06,2.14-2.38,1.38a5.3,5.3,0,0,1-2.39-4.14c0-1.52,1.07-2.14,2.39-1.38A5.26,5.26,0,0,1,191.62,258.42Z" transform="translate(-0.85 -25.87)"/><path class="cls-6" d="M200.05,263.28c0,1.52-1.07,2.14-2.39,1.38a5.27,5.27,0,0,1-2.39-4.14c0-1.52,1.07-2.14,2.39-1.38A5.3,5.3,0,0,1,200.05,263.28Z" transform="translate(-0.85 -25.87)"/><path class="cls-3" d="M208.48,268.15c0,1.52-1.07,2.14-2.39,1.38a5.3,5.3,0,0,1-2.39-4.14c0-1.52,1.07-2.14,2.39-1.38A5.27,5.27,0,0,1,208.48,268.15Z" transform="translate(-0.85 -25.87)"/><path class="cls-6" d="M216.9,273c0,1.52-1.07,2.14-2.39,1.38a5.29,5.29,0,0,1-2.38-4.14c0-1.52,1.07-2.14,2.38-1.38A5.3,5.3,0,0,1,216.9,273Z" transform="translate(-0.85 -25.87)"/><path class="cls-6" d="M252.4,297.87,247.49,295a3.2,3.2,0,0,1-1.33-2.54v-5.19c0-1,.6-1.43,1.33-1l4.91,2.84a3.18,3.18,0,0,1,1.33,2.53v5.2C253.73,297.85,253.13,298.29,252.4,297.87Z" transform="translate(-0.85 -25.87)"/><path class="cls-1" d="M259.48,347.9l-103.6-59.81c-2.32-1.34-4.2-4.93-4.2-8V260.31c0-3.09,1.88-4.51,4.2-3.17L259.48,317c2.32,1.34,4.2,4.93,4.2,8v19.76C263.68,347.82,261.8,349.24,259.48,347.9Z" transform="translate(-0.85 -25.87)"/><path class="cls-8" d="M256.51,341,158.86,284.6a5.09,5.09,0,0,1-2.13-4.07V265.68c0-1.57,1-2.29,2.13-1.61l97.65,56.37a5.13,5.13,0,0,1,2.13,4.07v14.86C258.64,340.93,257.68,341.66,256.51,341Z" transform="translate(-0.85 -25.87)"/><path class="cls-3" d="M179.21,288.84l-14.58-8.41a5,5,0,0,1-2.07-4h0c0-1.52.93-2.22,2.07-1.56l14.58,8.41a5,5,0,0,1,2.06,4h0C181.27,288.8,180.35,289.5,179.21,288.84Z" transform="translate(-0.85 -25.87)"/><path class="cls-4" d="M191.62,293.25c0,1.52-1.06,2.14-2.38,1.38a5.27,5.27,0,0,1-2.39-4.14c0-1.52,1.07-2.14,2.39-1.38A5.29,5.29,0,0,1,191.62,293.25Z" transform="translate(-0.85 -25.87)"/><path class="cls-6" d="M200.05,298.12c0,1.52-1.07,2.14-2.39,1.38a5.3,5.3,0,0,1-2.39-4.14c0-1.52,1.07-2.14,2.39-1.38A5.27,5.27,0,0,1,200.05,298.12Z" transform="translate(-0.85 -25.87)"/><path class="cls-3" d="M208.48,303c0,1.52-1.07,2.14-2.39,1.38a5.27,5.27,0,0,1-2.39-4.14c0-1.52,1.07-2.14,2.39-1.38A5.3,5.3,0,0,1,208.48,303Z" transform="translate(-0.85 -25.87)"/><path class="cls-6" d="M216.9,307.85c0,1.52-1.07,2.14-2.39,1.37a5.28,5.28,0,0,1-2.38-4.13c0-1.53,1.07-2.14,2.38-1.38A5.27,5.27,0,0,1,216.9,307.85Z" transform="translate(-0.85 -25.87)"/><path class="cls-6" d="M252.4,332.71l-4.91-2.84a3.18,3.18,0,0,1-1.33-2.53v-5.2c0-1,.6-1.42,1.33-1L252.4,324a3.2,3.2,0,0,1,1.33,2.54v5.19C253.73,332.68,253.13,333.13,252.4,332.71Z" transform="translate(-0.85 -25.87)"/><path class="cls-1" d="M259.48,382.74l-103.6-59.81c-2.32-1.34-4.2-4.94-4.2-8V295.15c0-3.09,1.88-4.51,4.2-3.17l103.6,59.81c2.32,1.34,4.2,4.93,4.2,8v19.75C263.68,382.65,261.8,384.08,259.48,382.74Z" transform="translate(-0.85 -25.87)"/><path class="cls-8" d="M256.51,375.81l-97.65-56.38a5.09,5.09,0,0,1-2.13-4.07V300.51c0-1.57,1-2.29,2.13-1.61l97.65,56.38a5.12,5.12,0,0,1,2.13,4.07V374.2C258.64,375.77,257.68,376.49,256.51,375.81Z" transform="translate(-0.85 -25.87)"/><path class="cls-3" d="M179.21,323.67l-14.58-8.41a5,5,0,0,1-2.07-3.95h0c0-1.52.93-2.22,2.07-1.57l14.58,8.42a5,5,0,0,1,2.06,3.95h0C181.27,323.63,180.35,324.33,179.21,323.67Z" transform="translate(-0.85 -25.87)"/><path class="cls-6" d="M191.62,328.09c0,1.52-1.06,2.14-2.38,1.38a5.3,5.3,0,0,1-2.39-4.14c0-1.52,1.07-2.14,2.39-1.38A5.26,5.26,0,0,1,191.62,328.09Z" transform="translate(-0.85 -25.87)"/><path class="cls-6" d="M200.05,333c0,1.52-1.07,2.14-2.39,1.38a5.27,5.27,0,0,1-2.39-4.14c0-1.52,1.07-2.14,2.39-1.38A5.3,5.3,0,0,1,200.05,333Z" transform="translate(-0.85 -25.87)"/><path class="cls-3" d="M208.48,337.82c0,1.52-1.07,2.14-2.39,1.37a5.27,5.27,0,0,1-2.39-4.13c0-1.53,1.07-2.14,2.39-1.38A5.27,5.27,0,0,1,208.48,337.82Z" transform="translate(-0.85 -25.87)"/><path class="cls-6" d="M216.9,342.68c0,1.52-1.07,2.14-2.39,1.38a5.29,5.29,0,0,1-2.38-4.14c0-1.52,1.07-2.14,2.38-1.38A5.3,5.3,0,0,1,216.9,342.68Z" transform="translate(-0.85 -25.87)"/><path class="cls-3" d="M252.4,367.54l-4.91-2.83a3.2,3.2,0,0,1-1.33-2.54V357c0-1,.6-1.43,1.33-1l4.91,2.84a3.18,3.18,0,0,1,1.33,2.53v5.2C253.73,367.51,253.13,368,252.4,367.54Z" transform="translate(-0.85 -25.87)"/><path class="cls-1" d="M259.48,417.57l-103.6-59.81c-2.32-1.34-4.2-4.93-4.2-8V330c0-3.09,1.88-4.51,4.2-3.17l103.6,59.81c2.32,1.34,4.2,4.93,4.2,8V414.4C263.68,417.49,261.8,418.91,259.48,417.57Z" transform="translate(-0.85 -25.87)"/><path class="cls-8" d="M256.51,410.65l-97.65-56.38a5.09,5.09,0,0,1-2.13-4.07V335.35c0-1.57,1-2.29,2.13-1.61l97.65,56.37a5.13,5.13,0,0,1,2.13,4.07V409C258.64,410.6,257.68,411.32,256.51,410.65Z" transform="translate(-0.85 -25.87)"/><path class="cls-3" d="M179.21,358.51l-14.58-8.41a5,5,0,0,1-2.07-4h0c0-1.52.93-2.22,2.07-1.56L179.21,353a5,5,0,0,1,2.06,4h0C181.27,358.47,180.35,359.17,179.21,358.51Z" transform="translate(-0.85 -25.87)"/><path class="cls-6" d="M191.62,362.92c0,1.52-1.06,2.14-2.38,1.38a5.27,5.27,0,0,1-2.39-4.14c0-1.52,1.07-2.14,2.39-1.38A5.29,5.29,0,0,1,191.62,362.92Z" transform="translate(-0.85 -25.87)"/><path class="cls-4" d="M200.05,367.79c0,1.52-1.07,2.14-2.39,1.37a5.27,5.27,0,0,1-2.39-4.13c0-1.53,1.07-2.14,2.39-1.38A5.27,5.27,0,0,1,200.05,367.79Z" transform="translate(-0.85 -25.87)"/><path class="cls-3" d="M208.48,372.65c0,1.52-1.07,2.14-2.39,1.38a5.27,5.27,0,0,1-2.39-4.14c0-1.52,1.07-2.14,2.39-1.38A5.3,5.3,0,0,1,208.48,372.65Z" transform="translate(-0.85 -25.87)"/><path class="cls-4" d="M216.9,377.52c0,1.52-1.07,2.14-2.39,1.37a5.28,5.28,0,0,1-2.38-4.13c0-1.53,1.07-2.14,2.38-1.38A5.27,5.27,0,0,1,216.9,377.52Z" transform="translate(-0.85 -25.87)"/><path class="cls-3" d="M252.4,402.38l-4.91-2.84a3.18,3.18,0,0,1-1.33-2.53v-5.2c0-1,.6-1.43,1.33-1l4.91,2.83a3.2,3.2,0,0,1,1.33,2.54v5.19C253.73,402.35,253.13,402.8,252.4,402.38Z" transform="translate(-0.85 -25.87)"/><path class="cls-1" d="M259.48,452.41l-103.6-59.82c-2.32-1.33-4.2-4.93-4.2-8V364.82c0-3.09,1.88-4.51,4.2-3.18l103.6,59.82c2.32,1.34,4.2,4.93,4.2,8v19.75C263.68,452.32,261.8,453.75,259.48,452.41Z" transform="translate(-0.85 -25.87)"/><path class="cls-8" d="M256.51,445.48,158.86,389.1a5.09,5.09,0,0,1-2.13-4.07V370.18c0-1.57,1-2.29,2.13-1.61L256.51,425a5.12,5.12,0,0,1,2.13,4.07v14.85C258.64,445.44,257.68,446.16,256.51,445.48Z" transform="translate(-0.85 -25.87)"/><path class="cls-3" d="M179.21,393.34l-14.58-8.41a5,5,0,0,1-2.07-3.95h0c0-1.53.93-2.23,2.07-1.57l14.58,8.42a5,5,0,0,1,2.06,3.95h0C181.27,393.3,180.35,394,179.21,393.34Z" transform="translate(-0.85 -25.87)"/><path class="cls-6" d="M191.62,397.76c0,1.52-1.06,2.14-2.38,1.37a5.27,5.27,0,0,1-2.39-4.13c0-1.53,1.07-2.14,2.39-1.38A5.26,5.26,0,0,1,191.62,397.76Z" transform="translate(-0.85 -25.87)"/><path class="cls-6" d="M200.05,402.62c0,1.52-1.07,2.14-2.39,1.38a5.27,5.27,0,0,1-2.39-4.14c0-1.52,1.07-2.14,2.39-1.38A5.3,5.3,0,0,1,200.05,402.62Z" transform="translate(-0.85 -25.87)"/><path class="cls-3" d="M208.48,407.49c0,1.52-1.07,2.14-2.39,1.37a5.27,5.27,0,0,1-2.39-4.13c0-1.53,1.07-2.14,2.39-1.38A5.27,5.27,0,0,1,208.48,407.49Z" transform="translate(-0.85 -25.87)"/><path class="cls-6" d="M216.9,412.35c0,1.52-1.07,2.14-2.39,1.38a5.29,5.29,0,0,1-2.38-4.14c0-1.52,1.07-2.14,2.38-1.38A5.3,5.3,0,0,1,216.9,412.35Z" transform="translate(-0.85 -25.87)"/><path class="cls-6" d="M252.4,437.21l-4.91-2.83a3.2,3.2,0,0,1-1.33-2.54v-5.19c0-1,.6-1.43,1.33-1l4.91,2.84a3.18,3.18,0,0,1,1.33,2.53v5.2C253.73,437.18,253.13,437.63,252.4,437.21Z" transform="translate(-0.85 -25.87)"/><path class="cls-1" d="M259.48,487.24l-103.6-59.81c-2.32-1.34-4.2-4.93-4.2-8V399.65c0-3.09,1.88-4.51,4.2-3.17l103.6,59.81c2.32,1.34,4.2,4.93,4.2,8v19.76C263.68,487.16,261.8,488.58,259.48,487.24Z" transform="translate(-0.85 -25.87)"/><path class="cls-8" d="M256.51,480.32l-97.65-56.38a5.09,5.09,0,0,1-2.13-4.07V405c0-1.57,1-2.29,2.13-1.61l97.65,56.37a5.13,5.13,0,0,1,2.13,4.07V478.7C258.64,480.27,257.68,481,256.51,480.32Z" transform="translate(-0.85 -25.87)"/><path class="cls-3" d="M179.21,428.18l-14.58-8.42a4.93,4.93,0,0,1-2.07-3.95h0c0-1.52.93-2.22,2.07-1.56l14.58,8.41a5,5,0,0,1,2.06,4h0C181.27,428.14,180.35,428.84,179.21,428.18Z" transform="translate(-0.85 -25.87)"/><path class="cls-4" d="M194.29,434.48c0,2.87-2,4-4.51,2.6a10,10,0,0,1-4.52-7.81c0-2.88,2-4,4.52-2.61A10,10,0,0,1,194.29,434.48Z" transform="translate(-0.85 -25.87)"/><path class="cls-6" d="M211.74,444.69c0,1.52-1.07,2.14-2.39,1.38a5.29,5.29,0,0,1-2.39-4.14c0-1.52,1.07-2.14,2.39-1.38A5.29,5.29,0,0,1,211.74,444.69Z" transform="translate(-0.85 -25.87)"/><path class="cls-3" d="M220.17,449.55c0,1.53-1.07,2.14-2.39,1.38a5.27,5.27,0,0,1-2.39-4.13c0-1.53,1.07-2.15,2.39-1.38A5.27,5.27,0,0,1,220.17,449.55Z" transform="translate(-0.85 -25.87)"/><path class="cls-6" d="M228.59,454.42c0,1.52-1.07,2.14-2.39,1.38a5.28,5.28,0,0,1-2.38-4.14c0-1.52,1.06-2.14,2.38-1.38A5.29,5.29,0,0,1,228.59,454.42Z" transform="translate(-0.85 -25.87)"/><path class="cls-3" d="M252.4,472.05l-4.91-2.84a3.19,3.19,0,0,1-1.33-2.54v-5.19c0-1,.6-1.43,1.33-1l4.91,2.83a3.19,3.19,0,0,1,1.33,2.54V471C253.73,472,253.13,472.47,252.4,472.05Z" transform="translate(-0.85 -25.87)"/><path class="cls-5" d="M433.72,619.8l-110.58-63c-4-2.34-3.53-6.41,1.14-9.11l63.62-36.73c4.67-2.7,11.73-3,15.78-.66l110.58,63c4,2.34,3.53,6.42-1.14,9.11L449.5,619.15C444.83,621.84,437.77,622.14,433.72,619.8Z" transform="translate(-0.85 -25.87)"/><path class="cls-2" d="M524.12,552.08h0V293.93L421.49,267.07l-18.9-10.91c-4.34-2.51-11.92-2.2-16.93.7L368,267l-54.73,0,16.2,249.21c-.12,1.69.83,3.33,2.91,4.53L434.82,598c4.33,2.5,11.91,2.19,16.92-.7L520,557.92C522.88,556.25,524.28,554.09,524.12,552.08Z" transform="translate(-0.85 -25.87)"/><path class="cls-3" d="M394.73,254.48a19.35,19.35,0,0,0-9.07,2.38L368,267l-54.73,0V525.85c-.13,1.7.82,3.33,2.9,4.54L434.82,598a15.33,15.33,0,0,0,7.85,1.68l1.22-260.47Z" transform="translate(-0.85 -25.87)"/><path class="cls-1" d="M435.9,598.56c3.75,1.6,9.16,1.52,13.53-.15V336.17H435.9Z" transform="translate(-0.85 -25.87)"/><path class="cls-3" d="M434.82,339.27,316.19,271.63c-4.34-2.5-3.79-6.88,1.22-9.77l68.25-39.4c5-2.9,12.59-3.21,16.93-.71L521.21,289.4c4.34,2.5,3.79,6.87-1.22,9.77l-68.25,39.4C446.73,341.46,439.15,341.78,434.82,339.27Z" transform="translate(-0.85 -25.87)"/><path class="cls-7" d="M520,294.37l-68.25,39.4c-5,2.9-12.59,3.21-16.92.7L316.19,266.83a6.31,6.31,0,0,1-2.16-1.92c-1.49,2.4-.82,5,2.16,6.72l118.63,67.64c4.33,2.51,11.91,2.19,16.92-.7L520,299.17c3.9-2.25,5.08-5.39,3.38-7.85A9.53,9.53,0,0,1,520,294.37Z" transform="translate(-0.85 -25.87)"/><path class="cls-6" d="M438.17,311.86l-79-45.78c-2-1.17-1.77-3.22.57-4.57l31.94-18.44c2.35-1.36,5.89-1.5,7.92-.33l79,45.78c2,1.17,1.77,3.22-.57,4.57l-31.94,18.44C443.75,312.89,440.2,313,438.17,311.86Z" transform="translate(-0.85 -25.87)"/><path class="cls-3" d="M395.53,268.14,391,265.49c-.28-.16-.25-.44.08-.63l4.41-2.55a1.23,1.23,0,0,1,1.1-.05l4.58,2.65c.28.16.24.44-.08.63l-4.42,2.55A1.23,1.23,0,0,1,395.53,268.14Z" transform="translate(-0.85 -25.87)"/><path class="cls-3" d="M410.82,276.93l-4.57-2.64c-.28-.17-.25-.45.07-.64l4.42-2.55a1.19,1.19,0,0,1,1.1,0l4.58,2.64c.28.16.24.44-.08.63l-4.42,2.55A1.23,1.23,0,0,1,410.82,276.93Z" transform="translate(-0.85 -25.87)"/><path class="cls-3" d="M426.11,285.72l-4.57-2.64c-.29-.17-.25-.45.07-.64l4.42-2.55a1.26,1.26,0,0,1,1.1,0l4.58,2.64c.28.16.24.45-.08.63l-4.42,2.55A1.23,1.23,0,0,1,426.11,285.72Z" transform="translate(-0.85 -25.87)"/><path class="cls-3" d="M441.4,294.51l-4.58-2.64c-.28-.16-.24-.45.08-.63l4.42-2.56a1.26,1.26,0,0,1,1.1,0l4.57,2.64c.29.16.25.45-.07.63l-4.42,2.55A1.23,1.23,0,0,1,441.4,294.51Z" transform="translate(-0.85 -25.87)"/><path class="cls-1" d="M359.19,266.08l.1.05a4.29,4.29,0,0,1,.47-.32l31.94-18.44c2.35-1.36,5.89-1.5,7.92-.33l78.89,45.73c1.87-1.34,2-3.17.09-4.25l-79-45.78c-2-1.17-5.57-1-7.92.33l-31.94,18.44C357.42,262.86,357.16,264.91,359.19,266.08Z" transform="translate(-0.85 -25.87)"/><path class="cls-6" d="M465.07,390.42,510,364.71c2.53-1.46,4.58-5.37,4.58-8.74V339.91c0-3.37-2-4.92-4.58-3.46l-44.9,25.71c-2.53,1.46-4.58,5.37-4.58,8.74V387C460.49,390.33,462.54,391.88,465.07,390.42Z" transform="translate(-0.85 -25.87)"/><path class="cls-4" d="M512.19,336a4.46,4.46,0,0,1,1.15,3.34v16.06c0,3.37-2.05,7.28-4.57,8.74l-44.91,25.71a3.29,3.29,0,0,1-2.22.48,2.74,2.74,0,0,0,3.43.12L510,364.71c2.53-1.46,4.58-5.37,4.58-8.74V339.91C514.55,337.62,513.59,336.2,512.19,336Z" transform="translate(-0.85 -25.87)"/><path class="cls-2" d="M478.57,373l4.12-2.38a2.4,2.4,0,0,0,1-1.91v-4.4c0-.73-.45-1.07-1-.75l-4.12,2.38a2.37,2.37,0,0,0-1,1.9v4.4C477.58,373,478,373.29,478.57,373Z" transform="translate(-0.85 -25.87)"/><path class="cls-4" d="M492.35,365l4.12-2.37a2.4,2.4,0,0,0,1-1.91v-4.4c0-.73-.44-1.07-1-.75L492.35,358a2.41,2.41,0,0,0-1,1.91v4.4C491.35,365,491.8,365.34,492.35,365Z" transform="translate(-0.85 -25.87)"/><path class="cls-6" d="M465.07,506.46,510,480.75c2.53-1.46,4.58-5.37,4.58-8.74V456c0-3.37-2-4.92-4.58-3.46l-44.9,25.71c-2.53,1.46-4.58,5.37-4.58,8.74V503C460.49,506.37,462.54,507.92,465.07,506.46Z" transform="translate(-0.85 -25.87)"/><path class="cls-4" d="M512.19,452a4.46,4.46,0,0,1,1.15,3.34v16c0,3.37-2.05,7.29-4.57,8.75l-44.91,25.71a3.35,3.35,0,0,1-2.22.48,2.74,2.74,0,0,0,3.43.12L510,480.75c2.53-1.46,4.58-5.37,4.58-8.74V456C514.55,453.66,513.59,452.24,512.19,452Z" transform="translate(-0.85 -25.87)"/><path class="cls-2" d="M478.57,489l4.12-2.37a2.4,2.4,0,0,0,1-1.91v-4.4c0-.73-.45-1.07-1-.75L478.57,482a2.37,2.37,0,0,0-1,1.9v4.4C477.58,489,478,489.33,478.57,489Z" transform="translate(-0.85 -25.87)"/><path class="cls-4" d="M492.35,481.06l4.12-2.38a2.37,2.37,0,0,0,1-1.9v-4.4c0-.74-.44-1.07-1-.76L492.35,474a2.4,2.4,0,0,0-1,1.91v4.4C491.35,481,491.8,481.38,492.35,481.06Z" transform="translate(-0.85 -25.87)"/><path class="cls-6" d="M465.07,564.48,510,538.77c2.53-1.46,4.58-5.37,4.58-8.74V514c0-3.37-2-4.92-4.58-3.46l-44.9,25.71c-2.53,1.46-4.58,5.37-4.58,8.74V561C460.49,564.39,462.54,565.94,465.07,564.48Z" transform="translate(-0.85 -25.87)"/><path class="cls-4" d="M512.19,510a4.5,4.5,0,0,1,1.15,3.35v16c0,3.37-2.05,7.29-4.57,8.75l-44.91,25.71a3.35,3.35,0,0,1-2.22.48,2.74,2.74,0,0,0,3.43.12L510,538.77c2.53-1.46,4.58-5.38,4.58-8.74V514C514.55,511.68,513.59,510.26,512.19,510Z" transform="translate(-0.85 -25.87)"/><path class="cls-2" d="M478.57,547l4.12-2.37a2.41,2.41,0,0,0,1-1.91v-4.4c0-.73-.45-1.07-1-.75L478.57,540a2.4,2.4,0,0,0-1,1.91v4.4C477.58,547,478,547.35,478.57,547Z" transform="translate(-0.85 -25.87)"/><path class="cls-4" d="M492.35,539.08l4.12-2.38a2.37,2.37,0,0,0,1-1.9v-4.4c0-.74-.44-1.07-1-.76L492.35,532a2.4,2.4,0,0,0-1,1.91v4.4C491.35,539.06,491.8,539.4,492.35,539.08Z" transform="translate(-0.85 -25.87)"/><path class="cls-6" d="M465.07,448.44,510,422.73c2.53-1.46,4.58-5.37,4.58-8.74V397.93c0-3.37-2-4.92-4.58-3.46l-44.9,25.71c-2.53,1.46-4.58,5.37-4.58,8.74V445C460.49,448.35,462.54,449.9,465.07,448.44Z" transform="translate(-0.85 -25.87)"/><path class="cls-4" d="M512.19,394a4.46,4.46,0,0,1,1.15,3.34v16.06c0,3.36-2.05,7.28-4.57,8.74l-44.91,25.71a3.29,3.29,0,0,1-2.22.48,2.74,2.74,0,0,0,3.43.12L510,422.73c2.53-1.46,4.58-5.37,4.58-8.74V397.93C514.55,395.64,513.59,394.22,512.19,394Z" transform="translate(-0.85 -25.87)"/><path class="cls-2" d="M478.57,431l4.12-2.38a2.4,2.4,0,0,0,1-1.91v-4.4c0-.73-.45-1.07-1-.75l-4.12,2.38a2.37,2.37,0,0,0-1,1.9v4.4C477.58,431,478,431.31,478.57,431Z" transform="translate(-0.85 -25.87)"/><path class="cls-4" d="M492.35,423l4.12-2.37a2.4,2.4,0,0,0,1-1.91v-4.4c0-.73-.44-1.07-1-.75L492.35,416a2.4,2.4,0,0,0-1,1.91v4.4C491.35,423,491.8,423.36,492.35,423Z" transform="translate(-0.85 -25.87)"/><path class="cls-1" d="M426.17,374,322.58,314.17c-2.32-1.34-4.2-4.93-4.2-8V286.39c0-3.09,1.88-4.51,4.2-3.17L426.17,343c2.32,1.34,4.2,4.93,4.2,8v19.76C430.37,373.9,428.49,375.32,426.17,374Z" transform="translate(-0.85 -25.87)"/><path class="cls-8" d="M423.2,367.06l-97.65-56.38a5.09,5.09,0,0,1-2.13-4.07V291.76c0-1.57.95-2.29,2.13-1.61l97.65,56.37a5.11,5.11,0,0,1,2.13,4.07v14.86C425.33,367,424.38,367.73,423.2,367.06Z" transform="translate(-0.85 -25.87)"/><path class="cls-3" d="M345.9,314.92l-14.57-8.42a4.93,4.93,0,0,1-2.07-3.95h0c0-1.52.93-2.22,2.07-1.56l14.57,8.41a5,5,0,0,1,2.07,4h0C348,314.88,347,315.58,345.9,314.92Z" transform="translate(-0.85 -25.87)"/><path class="cls-6" d="M358.32,319.33c0,1.52-1.07,2.14-2.39,1.38a5.27,5.27,0,0,1-2.39-4.14c0-1.52,1.07-2.14,2.39-1.38A5.3,5.3,0,0,1,358.32,319.33Z" transform="translate(-0.85 -25.87)"/><path class="cls-6" d="M366.75,324.2c0,1.52-1.07,2.14-2.39,1.37a5.27,5.27,0,0,1-2.39-4.13c0-1.53,1.07-2.14,2.39-1.38A5.27,5.27,0,0,1,366.75,324.2Z" transform="translate(-0.85 -25.87)"/><path class="cls-3" d="M375.17,329.06c0,1.52-1.07,2.14-2.39,1.38a5.26,5.26,0,0,1-2.38-4.14c0-1.52,1.06-2.14,2.38-1.38A5.3,5.3,0,0,1,375.17,329.06Z" transform="translate(-0.85 -25.87)"/><path class="cls-6" d="M383.6,333.93c0,1.52-1.07,2.14-2.39,1.37a5.27,5.27,0,0,1-2.39-4.13c0-1.53,1.07-2.14,2.39-1.38A5.27,5.27,0,0,1,383.6,333.93Z" transform="translate(-0.85 -25.87)"/><path class="cls-6" d="M419.09,358.79l-4.9-2.84a3.16,3.16,0,0,1-1.33-2.54v-5.19c0-1,.59-1.43,1.33-1l4.9,2.83a3.18,3.18,0,0,1,1.33,2.54v5.19C420.42,358.76,419.83,359.21,419.09,358.79Z" transform="translate(-0.85 -25.87)"/><path class="cls-1" d="M426.17,408.82,322.58,349c-2.32-1.33-4.2-4.93-4.2-8V321.23c0-3.09,1.88-4.51,4.2-3.18l103.59,59.82c2.32,1.34,4.2,4.93,4.2,8v19.75C430.37,408.73,428.49,410.16,426.17,408.82Z" transform="translate(-0.85 -25.87)"/><path class="cls-8" d="M423.2,401.89l-97.65-56.38a5.09,5.09,0,0,1-2.13-4.07V326.59c0-1.57.95-2.29,2.13-1.61l97.65,56.38a5.09,5.09,0,0,1,2.13,4.07v14.85C425.33,401.85,424.38,402.57,423.2,401.89Z" transform="translate(-0.85 -25.87)"/><path class="cls-3" d="M345.9,349.75l-14.57-8.41a5,5,0,0,1-2.07-3.95h0c0-1.53.93-2.23,2.07-1.57l14.57,8.42a5,5,0,0,1,2.07,3.95h0C348,349.71,347,350.41,345.9,349.75Z" transform="translate(-0.85 -25.87)"/><path class="cls-4" d="M358.32,354.17c0,1.52-1.07,2.14-2.39,1.37a5.27,5.27,0,0,1-2.39-4.13c0-1.53,1.07-2.14,2.39-1.38A5.27,5.27,0,0,1,358.32,354.17Z" transform="translate(-0.85 -25.87)"/><path class="cls-6" d="M366.75,359c0,1.52-1.07,2.14-2.39,1.38a5.27,5.27,0,0,1-2.39-4.14c0-1.52,1.07-2.14,2.39-1.38A5.3,5.3,0,0,1,366.75,359Z" transform="translate(-0.85 -25.87)"/><path class="cls-3" d="M375.17,363.9c0,1.52-1.07,2.14-2.39,1.37a5.26,5.26,0,0,1-2.38-4.13c0-1.53,1.06-2.14,2.38-1.38A5.27,5.27,0,0,1,375.17,363.9Z" transform="translate(-0.85 -25.87)"/><path class="cls-6" d="M383.6,368.76c0,1.52-1.07,2.14-2.39,1.38a5.27,5.27,0,0,1-2.39-4.14c0-1.52,1.07-2.14,2.39-1.38A5.29,5.29,0,0,1,383.6,368.76Z" transform="translate(-0.85 -25.87)"/><path class="cls-6" d="M419.09,393.62l-4.9-2.83a3.18,3.18,0,0,1-1.33-2.54v-5.19c0-1,.59-1.43,1.33-1l4.9,2.84a3.16,3.16,0,0,1,1.33,2.53v5.2C420.42,393.59,419.83,394,419.09,393.62Z" transform="translate(-0.85 -25.87)"/><path class="cls-1" d="M426.17,443.65,322.58,383.84c-2.32-1.34-4.2-4.93-4.2-8V356.06c0-3.09,1.88-4.51,4.2-3.17L426.17,412.7c2.32,1.34,4.2,4.93,4.2,8v19.76C430.37,443.57,428.49,445,426.17,443.65Z" transform="translate(-0.85 -25.87)"/><path class="cls-8" d="M423.2,436.73l-97.65-56.38a5.09,5.09,0,0,1-2.13-4.07V361.43c0-1.57.95-2.29,2.13-1.61l97.65,56.37a5.11,5.11,0,0,1,2.13,4.07v14.85C425.33,436.68,424.38,437.4,423.2,436.73Z" transform="translate(-0.85 -25.87)"/><path class="cls-3" d="M345.9,384.59l-14.57-8.42a4.93,4.93,0,0,1-2.07-3.95h0c0-1.52.93-2.22,2.07-1.56l14.57,8.41A5,5,0,0,1,348,383h0C348,384.55,347,385.25,345.9,384.59Z" transform="translate(-0.85 -25.87)"/><path class="cls-4" d="M358.32,389c0,1.52-1.07,2.14-2.39,1.38a5.27,5.27,0,0,1-2.39-4.14c0-1.52,1.07-2.14,2.39-1.38A5.3,5.3,0,0,1,358.32,389Z" transform="translate(-0.85 -25.87)"/><path class="cls-6" d="M366.75,393.87c0,1.52-1.07,2.14-2.39,1.37a5.27,5.27,0,0,1-2.39-4.13c0-1.53,1.07-2.14,2.39-1.38A5.27,5.27,0,0,1,366.75,393.87Z" transform="translate(-0.85 -25.87)"/><path class="cls-3" d="M375.17,398.73c0,1.52-1.07,2.14-2.39,1.38A5.26,5.26,0,0,1,370.4,396c0-1.52,1.06-2.14,2.38-1.38A5.29,5.29,0,0,1,375.17,398.73Z" transform="translate(-0.85 -25.87)"/><path class="cls-6" d="M383.6,403.59c0,1.53-1.07,2.15-2.39,1.38a5.27,5.27,0,0,1-2.39-4.13c0-1.53,1.07-2.14,2.39-1.38A5.27,5.27,0,0,1,383.6,403.59Z" transform="translate(-0.85 -25.87)"/><path class="cls-6" d="M419.09,428.45l-4.9-2.83a3.16,3.16,0,0,1-1.33-2.54v-5.19c0-1,.59-1.43,1.33-1l4.9,2.83a3.16,3.16,0,0,1,1.33,2.54v5.19C420.42,428.43,419.83,428.88,419.09,428.45Z" transform="translate(-0.85 -25.87)"/><path class="cls-1" d="M426.17,478.49,322.58,418.67c-2.32-1.33-4.2-4.93-4.2-8V390.9c0-3.09,1.88-4.51,4.2-3.18l103.59,59.82c2.32,1.33,4.2,4.93,4.2,8v19.75C430.37,478.4,428.49,479.82,426.17,478.49Z" transform="translate(-0.85 -25.87)"/><path class="cls-8" d="M423.2,471.56l-97.65-56.38a5.09,5.09,0,0,1-2.13-4.07V396.26c0-1.57.95-2.29,2.13-1.61L423.2,451a5.09,5.09,0,0,1,2.13,4.07V470C425.33,471.52,424.38,472.24,423.2,471.56Z" transform="translate(-0.85 -25.87)"/><path class="cls-3" d="M345.9,419.42,331.33,411a5,5,0,0,1-2.07-3.95h0c0-1.53.93-2.23,2.07-1.57l14.57,8.42a5,5,0,0,1,2.07,3.95h0C348,419.38,347,420.08,345.9,419.42Z" transform="translate(-0.85 -25.87)"/><path class="cls-6" d="M358.32,423.84c0,1.52-1.07,2.14-2.39,1.37a5.27,5.27,0,0,1-2.39-4.13c0-1.53,1.07-2.14,2.39-1.38A5.27,5.27,0,0,1,358.32,423.84Z" transform="translate(-0.85 -25.87)"/><path class="cls-6" d="M366.75,428.7c0,1.52-1.07,2.14-2.39,1.38a5.27,5.27,0,0,1-2.39-4.14c0-1.52,1.07-2.14,2.39-1.38A5.29,5.29,0,0,1,366.75,428.7Z" transform="translate(-0.85 -25.87)"/><path class="cls-3" d="M375.17,433.56c0,1.53-1.07,2.15-2.39,1.38a5.26,5.26,0,0,1-2.38-4.13c0-1.53,1.06-2.14,2.38-1.38A5.27,5.27,0,0,1,375.17,433.56Z" transform="translate(-0.85 -25.87)"/><path class="cls-6" d="M383.6,438.43c0,1.52-1.07,2.14-2.39,1.38a5.29,5.29,0,0,1-2.39-4.14c0-1.52,1.07-2.14,2.39-1.38A5.29,5.29,0,0,1,383.6,438.43Z" transform="translate(-0.85 -25.87)"/><path class="cls-3" d="M419.09,463.29l-4.9-2.83a3.18,3.18,0,0,1-1.33-2.54v-5.19c0-1,.59-1.43,1.33-1l4.9,2.84a3.16,3.16,0,0,1,1.33,2.53v5.2C420.42,463.26,419.83,463.71,419.09,463.29Z" transform="translate(-0.85 -25.87)"/><path class="cls-1" d="M426.17,513.32,322.58,453.51c-2.32-1.34-4.2-4.93-4.2-8V425.73c0-3.09,1.88-4.51,4.2-3.17l103.59,59.81c2.32,1.34,4.2,4.93,4.2,8v19.76C430.37,513.24,428.49,514.66,426.17,513.32Z" transform="translate(-0.85 -25.87)"/><path class="cls-8" d="M423.2,506.39,325.55,450a5.09,5.09,0,0,1-2.13-4.07V431.1c0-1.57.95-2.29,2.13-1.61l97.65,56.37a5.09,5.09,0,0,1,2.13,4.07v14.85C425.33,506.35,424.38,507.07,423.2,506.39Z" transform="translate(-0.85 -25.87)"/><path class="cls-3" d="M345.9,454.26l-14.57-8.42a5,5,0,0,1-2.07-3.95h0c0-1.52.93-2.22,2.07-1.56l14.57,8.41a5,5,0,0,1,2.07,3.95h0C348,454.22,347,454.92,345.9,454.26Z" transform="translate(-0.85 -25.87)"/><path class="cls-6" d="M358.32,458.67c0,1.52-1.07,2.14-2.39,1.38a5.27,5.27,0,0,1-2.39-4.14c0-1.52,1.07-2.14,2.39-1.38A5.29,5.29,0,0,1,358.32,458.67Z" transform="translate(-0.85 -25.87)"/><path class="cls-4" d="M366.75,463.53c0,1.53-1.07,2.15-2.39,1.38a5.27,5.27,0,0,1-2.39-4.13c0-1.53,1.07-2.14,2.39-1.38A5.27,5.27,0,0,1,366.75,463.53Z" transform="translate(-0.85 -25.87)"/><path class="cls-3" d="M375.17,468.4c0,1.52-1.07,2.14-2.39,1.38a5.28,5.28,0,0,1-2.38-4.14c0-1.52,1.06-2.14,2.38-1.38A5.29,5.29,0,0,1,375.17,468.4Z" transform="translate(-0.85 -25.87)"/><path class="cls-4" d="M383.6,473.26c0,1.53-1.07,2.14-2.39,1.38a5.27,5.27,0,0,1-2.39-4.13c0-1.53,1.07-2.14,2.39-1.38A5.27,5.27,0,0,1,383.6,473.26Z" transform="translate(-0.85 -25.87)"/><path class="cls-3" d="M419.09,498.12l-4.9-2.83a3.16,3.16,0,0,1-1.33-2.54v-5.19c0-1,.59-1.43,1.33-1l4.9,2.83a3.16,3.16,0,0,1,1.33,2.54v5.19C420.42,498.1,419.83,498.55,419.09,498.12Z" transform="translate(-0.85 -25.87)"/><path class="cls-1" d="M426.17,548.16,322.58,488.34c-2.32-1.33-4.2-4.93-4.2-8V460.57c0-3.09,1.88-4.52,4.2-3.18l103.59,59.82c2.32,1.33,4.2,4.93,4.2,8V545C430.37,548.07,428.49,549.49,426.17,548.16Z" transform="translate(-0.85 -25.87)"/><path class="cls-8" d="M423.2,541.23l-97.65-56.38a5.09,5.09,0,0,1-2.13-4.07V465.93c0-1.57.95-2.29,2.13-1.61L423.2,520.7a5.09,5.09,0,0,1,2.13,4.07v14.85C425.33,541.19,424.38,541.91,423.2,541.23Z" transform="translate(-0.85 -25.87)"/><path class="cls-3" d="M345.9,489.09l-14.57-8.41a5,5,0,0,1-2.07-3.95h0c0-1.53.93-2.23,2.07-1.57l14.57,8.42a5,5,0,0,1,2.07,3.95h0C348,489.05,347,489.75,345.9,489.09Z" transform="translate(-0.85 -25.87)"/><path class="cls-6" d="M358.32,493.5c0,1.53-1.07,2.15-2.39,1.38a5.27,5.27,0,0,1-2.39-4.13c0-1.53,1.07-2.14,2.39-1.38A5.27,5.27,0,0,1,358.32,493.5Z" transform="translate(-0.85 -25.87)"/><path class="cls-6" d="M366.75,498.37c0,1.52-1.07,2.14-2.39,1.38a5.29,5.29,0,0,1-2.39-4.14c0-1.52,1.07-2.14,2.39-1.38A5.29,5.29,0,0,1,366.75,498.37Z" transform="translate(-0.85 -25.87)"/><path class="cls-3" d="M375.17,503.23c0,1.53-1.07,2.14-2.39,1.38a5.26,5.26,0,0,1-2.38-4.13c0-1.53,1.06-2.14,2.38-1.38A5.27,5.27,0,0,1,375.17,503.23Z" transform="translate(-0.85 -25.87)"/><path class="cls-6" d="M383.6,508.1c0,1.52-1.07,2.14-2.39,1.38a5.29,5.29,0,0,1-2.39-4.14c0-1.52,1.07-2.14,2.39-1.38A5.29,5.29,0,0,1,383.6,508.1Z" transform="translate(-0.85 -25.87)"/><path class="cls-6" d="M419.09,533l-4.9-2.83a3.18,3.18,0,0,1-1.33-2.54V522.4c0-1,.59-1.43,1.33-1l4.9,2.84a3.14,3.14,0,0,1,1.33,2.53V532C420.42,532.93,419.83,533.38,419.09,533Z" transform="translate(-0.85 -25.87)"/><path class="cls-1" d="M426.17,583,322.58,523.18c-2.32-1.34-4.2-4.93-4.2-8V495.4c0-3.09,1.88-4.51,4.2-3.17L426.17,552c2.32,1.34,4.2,4.93,4.2,8v19.76C430.37,582.91,428.49,584.33,426.17,583Z" transform="translate(-0.85 -25.87)"/><path class="cls-8" d="M423.2,576.06l-97.65-56.37a5.11,5.11,0,0,1-2.13-4.07V500.77c0-1.57.95-2.29,2.13-1.62l97.65,56.38a5.09,5.09,0,0,1,2.13,4.07v14.85C425.33,576,424.38,576.74,423.2,576.06Z" transform="translate(-0.85 -25.87)"/><path class="cls-3" d="M345.9,523.93l-14.57-8.42a5,5,0,0,1-2.07-3.95h0c0-1.52.93-2.22,2.07-1.56l14.57,8.41a5,5,0,0,1,2.07,4h0C348,523.89,347,524.59,345.9,523.93Z" transform="translate(-0.85 -25.87)"/><path class="cls-4" d="M361,530.23c0,2.87-2,4-4.51,2.6A10,10,0,0,1,352,525c0-2.88,2-4,4.51-2.61A10,10,0,0,1,361,530.23Z" transform="translate(-0.85 -25.87)"/><path class="cls-6" d="M378.44,540.44c0,1.52-1.07,2.14-2.39,1.38a5.3,5.3,0,0,1-2.39-4.14c0-1.52,1.07-2.14,2.39-1.38A5.27,5.27,0,0,1,378.44,540.44Z" transform="translate(-0.85 -25.87)"/><path class="cls-3" d="M386.86,545.3c0,1.53-1.07,2.14-2.39,1.38a5.27,5.27,0,0,1-2.39-4.14c0-1.52,1.07-2.14,2.39-1.37A5.27,5.27,0,0,1,386.86,545.3Z" transform="translate(-0.85 -25.87)"/><path class="cls-6" d="M395.29,550.17c0,1.52-1.07,2.14-2.39,1.38a5.3,5.3,0,0,1-2.39-4.14c0-1.52,1.07-2.14,2.39-1.38A5.27,5.27,0,0,1,395.29,550.17Z" transform="translate(-0.85 -25.87)"/><path class="cls-3" d="M419.09,567.79l-4.9-2.83a3.16,3.16,0,0,1-1.33-2.54v-5.19c0-1,.59-1.43,1.33-1l4.9,2.83a3.16,3.16,0,0,1,1.33,2.54v5.19C420.42,567.77,419.83,568.22,419.09,567.79Z" transform="translate(-0.85 -25.87)"/><path class="cls-3" d="M545.16,276.76l-4.47-2.58v-6.42c0-6.89-4.86-15.3-10.82-18.74L496,229.6c-6-3.45-10.81-.65-10.81,6.24V305.1l-4.47-65.41v-6.43c0-9.73,6.86-13.69,15.28-8.82l33.86,19.42c8.43,4.87,15.29,16.74,15.29,26.48Z" transform="translate(-0.85 -25.87)"/><path class="cls-3" d="M529.89,285.55l15.27-8.79-3.09-10.71-4.27-10.76s-7.35-8.19-7.91-8.36-20.55-11.52-20.55-11.52l-16.67-12-7.94.28L470,232.15l10.6,4.39s6,3,7.37,3.35,7.3,6,7.42,6.05,7.26,2.94,7.26,2.94l1.55-.25,13,9.11,4.19,1.85,2.26,3.63,3.46,9.68Z" transform="translate(-0.85 -25.87)"/><path class="cls-2" d="M485.2,305.1l-15.27,8.79s-1-72.67-1-72.79,3.34-4.8,3.34-4.8l8.28-1.6,6.56,5-2.07-.85-.88.52,1,1.61Z" transform="translate(-0.85 -25.87)"/><path class="cls-1" d="M529.89,285.55,525.42,283v-6.42c0-6.89-4.85-15.29-10.81-18.74l-33.86-19.42c-6-3.45-10.82-.65-10.82,6.24v69.26l-4.46-2.58V242.05c0-9.73,6.85-13.69,15.28-8.82l33.86,19.42c8.42,4.87,15.28,16.75,15.28,26.48Z" transform="translate(-0.85 -25.87)"/><path class="cls-5" d="M595.93,697.28l-77.52-44.2c-2.84-1.64-2.48-4.5.79-6.39l44.6-25.75c3.28-1.89,8.23-2.09,11.06-.46l77.52,44.21c2.84,1.63,2.48,4.49-.79,6.38L607,696.82C603.71,698.71,598.76,698.92,595.93,697.28Z" transform="translate(-0.85 -25.87)"/><path class="cls-2" d="M690.81,584.84h0V326.69L588.18,299.83l-18.9-10.91c-4.34-2.51-11.92-2.19-16.92.7L534.72,299.8l-54.74,0L496.19,549c-.12,1.69.82,3.33,2.91,4.53l102.41,77.28c4.34,2.5,11.92,2.19,16.93-.7l68.25-39.41C689.58,589,691,586.85,690.81,584.84Z" transform="translate(-0.85 -25.87)"/><path class="cls-3" d="M561.43,287.24a19.55,19.55,0,0,0-9.07,2.38L534.72,299.8l-54.74,0V558.61c-.12,1.7.82,3.34,2.91,4.54l118.62,67.64a15.39,15.39,0,0,0,7.86,1.68L610.59,372Z" transform="translate(-0.85 -25.87)"/><path class="cls-1" d="M602.6,631.32c3.74,1.61,9.15,1.52,13.53-.15V368.93H602.6Z" transform="translate(-0.85 -25.87)"/><path class="cls-3" d="M601.51,372,482.89,304.4c-4.34-2.51-3.8-6.88,1.21-9.78l68.26-39.4c5-2.89,12.58-3.21,16.92-.7L687.9,322.16c4.34,2.5,3.8,6.88-1.21,9.77l-68.25,39.4C613.43,374.23,605.85,374.54,601.51,372Z" transform="translate(-0.85 -25.87)"/><path class="cls-7" d="M686.69,327.13l-68.25,39.4c-5,2.9-12.59,3.21-16.93.71L482.89,299.6a6.67,6.67,0,0,1-2.17-1.92c-1.49,2.39-.81,5,2.17,6.72L601.51,372c4.34,2.5,11.92,2.19,16.93-.71l68.25-39.4c3.89-2.25,5.07-5.39,3.38-7.85A9.53,9.53,0,0,1,686.69,327.13Z" transform="translate(-0.85 -25.87)"/><path class="cls-6" d="M604.87,344.62l-79-45.78c-2-1.17-1.78-3.22.57-4.57l31.94-18.44c2.34-1.35,5.89-1.5,7.92-.33l79,45.78c2,1.17,1.78,3.22-.56,4.57l-31.94,18.44C610.44,345.65,606.9,345.79,604.87,344.62Z" transform="translate(-0.85 -25.87)"/><path class="cls-3" d="M562.23,300.9l-4.58-2.64c-.28-.17-.24-.45.08-.64l4.42-2.55a1.19,1.19,0,0,1,1.1,0l4.57,2.64c.28.16.25.44-.08.63l-4.42,2.55A1.2,1.2,0,0,1,562.23,300.9Z" transform="translate(-0.85 -25.87)"/><path class="cls-3" d="M577.52,309.69l-4.58-2.64c-.28-.17-.24-.45.08-.64l4.42-2.55a1.26,1.26,0,0,1,1.1,0l4.57,2.64c.28.16.25.45-.08.63l-4.42,2.55A1.2,1.2,0,0,1,577.52,309.69Z" transform="translate(-0.85 -25.87)"/><path class="cls-3" d="M592.81,318.48l-4.58-2.64c-.28-.16-.24-.45.08-.63l4.42-2.56a1.23,1.23,0,0,1,1.09,0l4.58,2.64c.28.16.25.45-.08.63l-4.42,2.55A1.2,1.2,0,0,1,592.81,318.48Z" transform="translate(-0.85 -25.87)"/><path class="cls-3" d="M608.1,327.27l-4.58-2.64c-.28-.16-.25-.45.08-.63l4.42-2.55a1.2,1.2,0,0,1,1.09-.05l4.58,2.64c.28.16.25.45-.08.63l-4.42,2.56A1.23,1.23,0,0,1,608.1,327.27Z" transform="translate(-0.85 -25.87)"/><path class="cls-1" d="M525.89,298.84l.09.06a5.78,5.78,0,0,1,.48-.33l31.94-18.44c2.34-1.35,5.89-1.5,7.92-.33l78.88,45.73c1.87-1.34,2-3.17.09-4.25l-79-45.78c-2-1.17-5.58-1-7.92.33l-31.94,18.44C524.11,295.62,523.86,297.67,525.89,298.84Z" transform="translate(-0.85 -25.87)"/><path class="cls-6" d="M631.76,423.18l44.91-25.71c2.52-1.46,4.57-5.37,4.57-8.74V372.67c0-3.37-2-4.92-4.57-3.46l-44.91,25.71c-2.52,1.46-4.57,5.37-4.57,8.74v16.06C627.19,423.09,629.24,424.64,631.76,423.18Z" transform="translate(-0.85 -25.87)"/><path class="cls-4" d="M678.89,368.73a4.46,4.46,0,0,1,1.15,3.34v16.06c0,3.37-2,7.28-4.58,8.74l-44.9,25.71a3.23,3.23,0,0,1-2.22.48,2.72,2.72,0,0,0,3.42.12l44.91-25.71c2.52-1.46,4.57-5.37,4.57-8.74V372.67C681.24,370.38,680.29,369,678.89,368.73Z" transform="translate(-0.85 -25.87)"/><path class="cls-2" d="M645.27,405.74l4.12-2.38a2.4,2.4,0,0,0,1-1.91v-4.4c0-.73-.45-1.07-1-.75l-4.12,2.38a2.39,2.39,0,0,0-1,1.9V405C644.27,405.72,644.72,406.06,645.27,405.74Z" transform="translate(-0.85 -25.87)"/><path class="cls-4" d="M659,397.79l4.12-2.38a2.4,2.4,0,0,0,1-1.91v-4.4c0-.73-.45-1.07-1-.75L659,390.73a2.38,2.38,0,0,0-1,1.9V397C658,397.77,658.49,398.1,659,397.79Z" transform="translate(-0.85 -25.87)"/><path class="cls-6" d="M631.76,539.22l44.91-25.71c2.52-1.46,4.57-5.37,4.57-8.74V488.71c0-3.37-2-4.92-4.57-3.46L631.76,511c-2.52,1.46-4.57,5.37-4.57,8.74v16.06C627.19,539.13,629.24,540.68,631.76,539.22Z" transform="translate(-0.85 -25.87)"/><path class="cls-4" d="M678.89,484.77a4.46,4.46,0,0,1,1.15,3.34v16.06c0,3.36-2,7.28-4.58,8.74l-44.9,25.71a3.29,3.29,0,0,1-2.22.48,2.72,2.72,0,0,0,3.42.12l44.91-25.71c2.52-1.46,4.57-5.37,4.57-8.74V488.71C681.24,486.42,680.29,485,678.89,484.77Z" transform="translate(-0.85 -25.87)"/><path class="cls-2" d="M645.27,521.78l4.12-2.38a2.4,2.4,0,0,0,1-1.91v-4.4c0-.73-.45-1.07-1-.75l-4.12,2.38a2.38,2.38,0,0,0-1,1.9V521C644.27,521.76,644.72,522.09,645.27,521.78Z" transform="translate(-0.85 -25.87)"/><path class="cls-4" d="M659,513.82l4.12-2.37a2.41,2.41,0,0,0,1-1.91v-4.4c0-.73-.45-1.07-1-.75L659,506.76a2.41,2.41,0,0,0-1,1.91v4.4C658,513.8,658.49,514.14,659,513.82Z" transform="translate(-0.85 -25.87)"/><path class="cls-6" d="M631.76,597.24l44.91-25.71c2.52-1.46,4.57-5.37,4.57-8.74V546.73c0-3.37-2-4.92-4.57-3.46L631.76,569c-2.52,1.46-4.57,5.37-4.57,8.74v16.06C627.19,597.15,629.24,598.7,631.76,597.24Z" transform="translate(-0.85 -25.87)"/><path class="cls-4" d="M678.89,542.79a4.46,4.46,0,0,1,1.15,3.34v16c0,3.37-2,7.29-4.58,8.75l-44.9,25.71a3.29,3.29,0,0,1-2.22.48,2.72,2.72,0,0,0,3.42.12l44.91-25.71c2.52-1.46,4.57-5.37,4.57-8.74V546.73C681.24,544.44,680.29,543,678.89,542.79Z" transform="translate(-0.85 -25.87)"/><path class="cls-2" d="M645.27,579.79l4.12-2.37a2.4,2.4,0,0,0,1-1.91v-4.4c0-.73-.45-1.07-1-.75l-4.12,2.38a2.38,2.38,0,0,0-1,1.9V579C644.27,579.78,644.72,580.11,645.27,579.79Z" transform="translate(-0.85 -25.87)"/><path class="cls-4" d="M659,571.84l4.12-2.38a2.38,2.38,0,0,0,1-1.9v-4.4c0-.74-.45-1.07-1-.75L659,564.78a2.4,2.4,0,0,0-1,1.91v4.4C658,571.82,658.49,572.16,659,571.84Z" transform="translate(-0.85 -25.87)"/><path class="cls-4" d="M656,601.46l4.11-2.38a2.38,2.38,0,0,0,1-1.9v-4.4c0-.74-.45-1.07-1-.76L656,594.4a2.37,2.37,0,0,0-1,1.91v4.4C655,601.44,655.43,601.78,656,601.46Z" transform="translate(-0.85 -25.87)"/><path class="cls-6" d="M631.76,481.2l44.91-25.71c2.52-1.46,4.57-5.37,4.57-8.74V430.69c0-3.37-2-4.92-4.57-3.46l-44.91,25.71c-2.52,1.46-4.57,5.37-4.57,8.74v16.06C627.19,481.11,629.24,482.66,631.76,481.2Z" transform="translate(-0.85 -25.87)"/><path class="cls-4" d="M678.89,426.75a4.46,4.46,0,0,1,1.15,3.34v16.06c0,3.37-2,7.28-4.58,8.74l-44.9,25.71a3.29,3.29,0,0,1-2.22.48,2.72,2.72,0,0,0,3.42.12l44.91-25.71c2.52-1.46,4.57-5.37,4.57-8.74V430.69C681.24,428.4,680.29,427,678.89,426.75Z" transform="translate(-0.85 -25.87)"/><path class="cls-2" d="M645.27,463.76l4.12-2.38a2.4,2.4,0,0,0,1-1.91v-4.4c0-.73-.45-1.07-1-.75l-4.12,2.38a2.39,2.39,0,0,0-1,1.9V463C644.27,463.74,644.72,464.07,645.27,463.76Z" transform="translate(-0.85 -25.87)"/><path class="cls-4" d="M659,455.8l4.12-2.37a2.4,2.4,0,0,0,1-1.91v-4.4c0-.73-.45-1.07-1-.75L659,448.75a2.38,2.38,0,0,0-1,1.9v4.4C658,455.78,658.49,456.12,659,455.8Z" transform="translate(-0.85 -25.87)"/><path class="cls-1" d="M592.87,406.74l-103.6-59.81c-2.32-1.34-4.2-4.93-4.2-8V319.15c0-3.09,1.88-4.51,4.2-3.17l103.6,59.81c2.32,1.34,4.2,4.93,4.2,8v19.75C597.07,406.66,595.19,408.08,592.87,406.74Z" transform="translate(-0.85 -25.87)"/><path class="cls-8" d="M589.9,399.82l-97.65-56.38a5.09,5.09,0,0,1-2.13-4.07V324.52c0-1.57.95-2.29,2.13-1.61l97.65,56.38a5.1,5.1,0,0,1,2.13,4.07v14.85C592,399.77,591.07,400.5,589.9,399.82Z" transform="translate(-0.85 -25.87)"/><path class="cls-3" d="M512.6,347.68,498,339.27a5,5,0,0,1-2.06-4h0c0-1.52.92-2.22,2.06-1.56l14.58,8.41a5,5,0,0,1,2.07,4h0C514.67,347.64,513.74,348.34,512.6,347.68Z" transform="translate(-0.85 -25.87)"/><path class="cls-6" d="M525,352.09c0,1.53-1.07,2.14-2.39,1.38a5.27,5.27,0,0,1-2.39-4.14c0-1.52,1.07-2.14,2.39-1.37A5.27,5.27,0,0,1,525,352.09Z" transform="translate(-0.85 -25.87)"/><path class="cls-6" d="M533.44,357c0,1.52-1.07,2.14-2.39,1.38a5.3,5.3,0,0,1-2.39-4.14c0-1.52,1.07-2.14,2.39-1.38A5.27,5.27,0,0,1,533.44,357Z" transform="translate(-0.85 -25.87)"/><path class="cls-3" d="M541.87,361.82c0,1.52-1.07,2.14-2.39,1.38a5.27,5.27,0,0,1-2.39-4.14c0-1.52,1.07-2.14,2.39-1.38A5.3,5.3,0,0,1,541.87,361.82Z" transform="translate(-0.85 -25.87)"/><path class="cls-6" d="M550.29,366.69c0,1.52-1.07,2.14-2.38,1.38a5.3,5.3,0,0,1-2.39-4.14c0-1.52,1.07-2.14,2.39-1.38A5.29,5.29,0,0,1,550.29,366.69Z" transform="translate(-0.85 -25.87)"/><path class="cls-6" d="M585.79,391.55l-4.91-2.84a3.18,3.18,0,0,1-1.33-2.53V381c0-1,.6-1.42,1.33-1l4.91,2.83a3.2,3.2,0,0,1,1.33,2.54v5.19C587.12,391.52,586.52,392,585.79,391.55Z" transform="translate(-0.85 -25.87)"/><path class="cls-1" d="M592.87,441.58l-103.6-59.81c-2.32-1.34-4.2-4.93-4.2-8V354c0-3.09,1.88-4.51,4.2-3.17l103.6,59.81c2.32,1.34,4.2,4.93,4.2,8V438.4C597.07,441.5,595.19,442.92,592.87,441.58Z" transform="translate(-0.85 -25.87)"/><path class="cls-8" d="M589.9,434.65l-97.65-56.38a5.09,5.09,0,0,1-2.13-4.07V359.35c0-1.57.95-2.29,2.13-1.61l97.65,56.38a5.12,5.12,0,0,1,2.13,4.07V433C592,434.61,591.07,435.33,589.9,434.65Z" transform="translate(-0.85 -25.87)"/><path class="cls-3" d="M512.6,382.51,498,374.1a5,5,0,0,1-2.06-4h0c0-1.52.92-2.22,2.06-1.56L512.6,377a5,5,0,0,1,2.07,3.95h0C514.67,382.47,513.74,383.17,512.6,382.51Z" transform="translate(-0.85 -25.87)"/><path class="cls-4" d="M525,386.93c0,1.52-1.07,2.14-2.39,1.38a5.3,5.3,0,0,1-2.39-4.14c0-1.52,1.07-2.14,2.39-1.38A5.27,5.27,0,0,1,525,386.93Z" transform="translate(-0.85 -25.87)"/><path class="cls-6" d="M533.44,391.79c0,1.52-1.07,2.14-2.39,1.38a5.27,5.27,0,0,1-2.39-4.14c0-1.52,1.07-2.14,2.39-1.38A5.3,5.3,0,0,1,533.44,391.79Z" transform="translate(-0.85 -25.87)"/><path class="cls-3" d="M541.87,396.66c0,1.52-1.07,2.14-2.39,1.38a5.3,5.3,0,0,1-2.39-4.14c0-1.52,1.07-2.14,2.39-1.38A5.27,5.27,0,0,1,541.87,396.66Z" transform="translate(-0.85 -25.87)"/><path class="cls-6" d="M550.29,401.52c0,1.52-1.07,2.14-2.38,1.38a5.27,5.27,0,0,1-2.39-4.14c0-1.52,1.07-2.14,2.39-1.38A5.32,5.32,0,0,1,550.29,401.52Z" transform="translate(-0.85 -25.87)"/><path class="cls-6" d="M585.79,426.38l-4.91-2.83a3.2,3.2,0,0,1-1.33-2.54v-5.19c0-1,.6-1.43,1.33-1l4.91,2.84a3.18,3.18,0,0,1,1.33,2.53v5.2C587.12,426.36,586.52,426.8,585.79,426.38Z" transform="translate(-0.85 -25.87)"/><path class="cls-1" d="M592.87,476.41,489.27,416.6c-2.32-1.34-4.2-4.93-4.2-8V388.82c0-3.09,1.88-4.51,4.2-3.17l103.6,59.81c2.32,1.34,4.2,4.93,4.2,8v19.76C597.07,476.33,595.19,477.75,592.87,476.41Z" transform="translate(-0.85 -25.87)"/><path class="cls-8" d="M589.9,469.49l-97.65-56.38a5.09,5.09,0,0,1-2.13-4.07V394.19c0-1.57.95-2.29,2.13-1.61L589.9,449A5.13,5.13,0,0,1,592,453v14.86C592,469.44,591.07,470.17,589.9,469.49Z" transform="translate(-0.85 -25.87)"/><path class="cls-3" d="M512.6,417.35,498,408.94a5,5,0,0,1-2.06-4h0c0-1.52.92-2.22,2.06-1.56l14.58,8.41a5,5,0,0,1,2.07,4h0C514.67,417.31,513.74,418,512.6,417.35Z" transform="translate(-0.85 -25.87)"/><path class="cls-4" d="M525,421.76c0,1.52-1.07,2.14-2.39,1.38a5.27,5.27,0,0,1-2.39-4.14c0-1.52,1.07-2.14,2.39-1.38A5.3,5.3,0,0,1,525,421.76Z" transform="translate(-0.85 -25.87)"/><path class="cls-6" d="M533.44,426.63c0,1.52-1.07,2.14-2.39,1.38a5.3,5.3,0,0,1-2.39-4.14c0-1.52,1.07-2.14,2.39-1.38A5.27,5.27,0,0,1,533.44,426.63Z" transform="translate(-0.85 -25.87)"/><path class="cls-3" d="M541.87,431.49c0,1.52-1.07,2.14-2.39,1.38a5.27,5.27,0,0,1-2.39-4.14c0-1.52,1.07-2.14,2.39-1.38A5.3,5.3,0,0,1,541.87,431.49Z" transform="translate(-0.85 -25.87)"/><path class="cls-6" d="M550.29,436.36c0,1.52-1.07,2.14-2.38,1.37a5.27,5.27,0,0,1-2.39-4.13c0-1.53,1.07-2.14,2.39-1.38A5.29,5.29,0,0,1,550.29,436.36Z" transform="translate(-0.85 -25.87)"/><path class="cls-6" d="M585.79,461.22l-4.91-2.84a3.18,3.18,0,0,1-1.33-2.53v-5.2c0-1,.6-1.42,1.33-1l4.91,2.83a3.2,3.2,0,0,1,1.33,2.54v5.19C587.12,461.19,586.52,461.64,585.79,461.22Z" transform="translate(-0.85 -25.87)"/><path class="cls-1" d="M592.87,511.25l-103.6-59.81c-2.32-1.34-4.2-4.93-4.2-8V423.66c0-3.09,1.88-4.51,4.2-3.17l103.6,59.81c2.32,1.34,4.2,4.93,4.2,8v19.75C597.07,511.17,595.19,512.59,592.87,511.25Z" transform="translate(-0.85 -25.87)"/><path class="cls-8" d="M589.9,504.32l-97.65-56.38a5.09,5.09,0,0,1-2.13-4.07V429c0-1.57.95-2.29,2.13-1.61l97.65,56.38a5.12,5.12,0,0,1,2.13,4.07v14.85C592,504.28,591.07,505,589.9,504.32Z" transform="translate(-0.85 -25.87)"/><path class="cls-3" d="M512.6,452.18,498,443.77a5,5,0,0,1-2.06-3.95h0c0-1.52.92-2.22,2.06-1.57l14.58,8.42a5,5,0,0,1,2.07,3.95h0C514.67,452.14,513.74,452.84,512.6,452.18Z" transform="translate(-0.85 -25.87)"/><path class="cls-6" d="M525,456.6c0,1.52-1.07,2.14-2.39,1.38a5.3,5.3,0,0,1-2.39-4.14c0-1.52,1.07-2.14,2.39-1.38A5.27,5.27,0,0,1,525,456.6Z" transform="translate(-0.85 -25.87)"/><path class="cls-6" d="M533.44,461.46c0,1.52-1.07,2.14-2.39,1.38a5.27,5.27,0,0,1-2.39-4.14c0-1.52,1.07-2.14,2.39-1.38A5.3,5.3,0,0,1,533.44,461.46Z" transform="translate(-0.85 -25.87)"/><path class="cls-3" d="M541.87,466.33c0,1.52-1.07,2.14-2.39,1.38a5.3,5.3,0,0,1-2.39-4.14c0-1.53,1.07-2.14,2.39-1.38A5.27,5.27,0,0,1,541.87,466.33Z" transform="translate(-0.85 -25.87)"/><path class="cls-6" d="M550.29,471.19c0,1.52-1.07,2.14-2.38,1.38a5.27,5.27,0,0,1-2.39-4.14c0-1.52,1.07-2.14,2.39-1.38A5.32,5.32,0,0,1,550.29,471.19Z" transform="translate(-0.85 -25.87)"/><path class="cls-3" d="M585.79,496.05l-4.91-2.83a3.2,3.2,0,0,1-1.33-2.54v-5.19c0-1,.6-1.43,1.33-1l4.91,2.84a3.18,3.18,0,0,1,1.33,2.53v5.2C587.12,496,586.52,496.47,585.79,496.05Z" transform="translate(-0.85 -25.87)"/><path class="cls-1" d="M592.87,546.08l-103.6-59.81c-2.32-1.34-4.2-4.93-4.2-8V458.49c0-3.09,1.88-4.51,4.2-3.17l103.6,59.81c2.32,1.34,4.2,4.93,4.2,8v19.76C597.07,546,595.19,547.42,592.87,546.08Z" transform="translate(-0.85 -25.87)"/><path class="cls-8" d="M589.9,539.16l-97.65-56.38a5.09,5.09,0,0,1-2.13-4.07V463.86c0-1.57.95-2.29,2.13-1.61l97.65,56.37a5.13,5.13,0,0,1,2.13,4.07v14.86C592,539.11,591.07,539.84,589.9,539.16Z" transform="translate(-0.85 -25.87)"/><path class="cls-3" d="M512.6,487,498,478.61a5,5,0,0,1-2.06-4h0c0-1.52.92-2.22,2.06-1.56l14.58,8.41a5,5,0,0,1,2.07,4h0C514.67,487,513.74,487.68,512.6,487Z" transform="translate(-0.85 -25.87)"/><path class="cls-6" d="M525,491.43c0,1.52-1.07,2.14-2.39,1.38a5.27,5.27,0,0,1-2.39-4.14c0-1.52,1.07-2.14,2.39-1.38A5.3,5.3,0,0,1,525,491.43Z" transform="translate(-0.85 -25.87)"/><path class="cls-4" d="M533.44,496.3c0,1.52-1.07,2.14-2.39,1.38a5.3,5.3,0,0,1-2.39-4.14c0-1.52,1.07-2.14,2.39-1.38A5.27,5.27,0,0,1,533.44,496.3Z" transform="translate(-0.85 -25.87)"/><path class="cls-3" d="M541.87,501.16c0,1.52-1.07,2.14-2.39,1.38a5.27,5.27,0,0,1-2.39-4.14c0-1.52,1.07-2.14,2.39-1.38A5.3,5.3,0,0,1,541.87,501.16Z" transform="translate(-0.85 -25.87)"/><path class="cls-4" d="M550.29,506c0,1.52-1.07,2.14-2.38,1.37a5.27,5.27,0,0,1-2.39-4.13c0-1.53,1.07-2.14,2.39-1.38A5.29,5.29,0,0,1,550.29,506Z" transform="translate(-0.85 -25.87)"/><path class="cls-3" d="M585.79,530.89l-4.91-2.84a3.18,3.18,0,0,1-1.33-2.53v-5.2c0-1,.6-1.43,1.33-1l4.91,2.83a3.2,3.2,0,0,1,1.33,2.54v5.19C587.12,530.86,586.52,531.31,585.79,530.89Z" transform="translate(-0.85 -25.87)"/><path class="cls-1" d="M592.87,580.92,489.27,521.1c-2.32-1.33-4.2-4.93-4.2-8V493.33c0-3.09,1.88-4.51,4.2-3.17L592.87,550c2.32,1.34,4.2,4.93,4.2,8v19.75C597.07,580.83,595.19,582.26,592.87,580.92Z" transform="translate(-0.85 -25.87)"/><path class="cls-8" d="M589.9,574l-97.65-56.38a5.09,5.09,0,0,1-2.13-4.07V498.69c0-1.57.95-2.29,2.13-1.61l97.65,56.38a5.12,5.12,0,0,1,2.13,4.07v14.85C592,574,591.07,574.67,589.9,574Z" transform="translate(-0.85 -25.87)"/><path class="cls-3" d="M512.6,521.85,498,513.44a5,5,0,0,1-2.06-4h0c0-1.53.92-2.23,2.06-1.57l14.58,8.42a5,5,0,0,1,2.07,3.95h0C514.67,521.81,513.74,522.51,512.6,521.85Z" transform="translate(-0.85 -25.87)"/><path class="cls-6" d="M525,526.27c0,1.52-1.07,2.14-2.39,1.37a5.27,5.27,0,0,1-2.39-4.13c0-1.53,1.07-2.14,2.39-1.38A5.27,5.27,0,0,1,525,526.27Z" transform="translate(-0.85 -25.87)"/><path class="cls-6" d="M533.44,531.13c0,1.52-1.07,2.14-2.39,1.38a5.27,5.27,0,0,1-2.39-4.14c0-1.52,1.07-2.14,2.39-1.38A5.3,5.3,0,0,1,533.44,531.13Z" transform="translate(-0.85 -25.87)"/><path class="cls-3" d="M541.87,536c0,1.52-1.07,2.14-2.39,1.37a5.27,5.27,0,0,1-2.39-4.13c0-1.53,1.07-2.14,2.39-1.38A5.27,5.27,0,0,1,541.87,536Z" transform="translate(-0.85 -25.87)"/><path class="cls-6" d="M550.29,540.86c0,1.52-1.07,2.14-2.38,1.38a5.27,5.27,0,0,1-2.39-4.14c0-1.52,1.07-2.14,2.39-1.38A5.32,5.32,0,0,1,550.29,540.86Z" transform="translate(-0.85 -25.87)"/><path class="cls-6" d="M585.79,565.72l-4.91-2.83a3.2,3.2,0,0,1-1.33-2.54v-5.19c0-1,.6-1.43,1.33-1l4.91,2.84a3.18,3.18,0,0,1,1.33,2.53v5.2C587.12,565.69,586.52,566.14,585.79,565.72Z" transform="translate(-0.85 -25.87)"/><path class="cls-1" d="M592.87,615.75l-103.6-59.81c-2.32-1.34-4.2-4.93-4.2-8V528.16c0-3.09,1.88-4.51,4.2-3.17l103.6,59.81c2.32,1.34,4.2,4.93,4.2,8v19.76C597.07,615.67,595.19,617.09,592.87,615.75Z" transform="translate(-0.85 -25.87)"/><path class="cls-8" d="M589.9,608.83l-97.65-56.38a5.09,5.09,0,0,1-2.13-4.07V533.53c0-1.57.95-2.29,2.13-1.61l97.65,56.37a5.13,5.13,0,0,1,2.13,4.07v14.86C592,608.78,591.07,609.5,589.9,608.83Z" transform="translate(-0.85 -25.87)"/><path class="cls-3" d="M512.6,556.69,498,548.28a5,5,0,0,1-2.06-4h0c0-1.52.92-2.22,2.06-1.56l14.58,8.41a5,5,0,0,1,2.07,4h0C514.67,556.65,513.74,557.35,512.6,556.69Z" transform="translate(-0.85 -25.87)"/><path class="cls-4" d="M527.68,563c0,2.87-2,4-4.51,2.6a10,10,0,0,1-4.51-7.81c0-2.88,2-4,4.51-2.61A10,10,0,0,1,527.68,563Z" transform="translate(-0.85 -25.87)"/><path class="cls-6" d="M545.13,573.2c0,1.52-1.07,2.14-2.39,1.38a5.29,5.29,0,0,1-2.39-4.14c0-1.52,1.07-2.14,2.39-1.38A5.29,5.29,0,0,1,545.13,573.2Z" transform="translate(-0.85 -25.87)"/><path class="cls-3" d="M553.56,578.06c0,1.53-1.07,2.14-2.39,1.38a5.27,5.27,0,0,1-2.39-4.13c0-1.53,1.07-2.15,2.39-1.38A5.27,5.27,0,0,1,553.56,578.06Z" transform="translate(-0.85 -25.87)"/><path class="cls-6" d="M562,582.93c0,1.52-1.07,2.14-2.39,1.38a5.3,5.3,0,0,1-2.38-4.14c0-1.52,1.07-2.14,2.38-1.38A5.29,5.29,0,0,1,562,582.93Z" transform="translate(-0.85 -25.87)"/><path class="cls-3" d="M585.79,600.56l-4.91-2.84a3.18,3.18,0,0,1-1.33-2.53V590c0-1,.6-1.43,1.33-1l4.91,2.83a3.2,3.2,0,0,1,1.33,2.54v5.19C587.12,600.53,586.52,601,585.79,600.56Z" transform="translate(-0.85 -25.87)"/><path class="cls-5" d="M236.16,799.44,5.26,666.13c-6.53-3.77-5.71-10.36,1.83-14.71l157.23-90.75c7.54-4.35,19-4.82,25.48-1L420.71,692.93c6.53,3.77,5.71,10.36-1.83,14.71L261.65,798.39C254.1,802.74,242.7,803.22,236.16,799.44Z" transform="translate(-0.85 -25.87)"/><path class="cls-6" d="M474.79,456.77,243.88,323.46a9.29,9.29,0,0,0-7.82-1v0l-.42.16-.1,0-8.34,3.19,7.49,3.67c0,.14-.08.27-.11.41L197,501.14c-1.88,8.57,1.89,18.57,8.42,22.34L430.75,653.59l-.81,9.55,9.12-3.54c3.07-1.43,5.52-4.67,6.53-9.29l37.62-171.2C485.09,470.54,481.32,460.54,474.79,456.77Z" transform="translate(-0.85 -25.87)"/><path class="cls-2" d="M474.79,456.77,243.88,323.46a9.29,9.29,0,0,0-7.82-1v0l-.42.16-.1,0-8.34,3.19,7.49,3.67c0,.14-.08.27-.11.41L209.8,442.77l113,88L482.08,466A17.9,17.9,0,0,0,474.79,456.77Z" transform="translate(-0.85 -25.87)"/><path class="cls-9" d="M466.08,483.09l17.58-7.49c.32-6.8-2.5-13.84-7.12-17.6l-27.83,11.71Z" transform="translate(-0.85 -25.87)"/><path class="cls-3" d="M421.92,662.23,191,528.92c-6.53-3.77-10.3-13.78-8.42-22.34l37.61-171.21c1.88-8.56,8.7-12.45,15.23-8.68L466.35,460c6.53,3.77,10.3,13.78,8.42,22.34l-37.61,171.2C435.27,662.11,428.45,666,421.92,662.23Z" transform="translate(-0.85 -25.87)"/><path class="cls-4" d="M468.57,459.19,237.66,325.88a9.11,9.11,0,0,0-9.09-.4,9.5,9.5,0,0,1,6.87,1.21L466.35,460c6.53,3.77,10.3,13.78,8.42,22.34l-37.61,171.2c-1,4.42-3.27,7.56-6.15,9.08,3.9-.85,7.15-4.38,8.36-9.89L477,481.53C478.87,473,475.1,463,468.57,459.19Z" transform="translate(-0.85 -25.87)"/><path class="cls-4" d="M416.92,649.49,199.76,524.18c-6-3.45-9.43-12.61-7.71-20.45l34.42-156.66c1.72-7.84,8-11.4,13.94-7.95L457.57,464.44c6,3.45,9.43,12.6,7.7,20.44L430.86,641.55C429.14,649.39,422.89,653,416.92,649.49Z" transform="translate(-0.85 -25.87)"/><path class="cls-6" d="M416.92,649.49,199.76,524.18c-6-3.45-9.43-12.61-7.71-20.45l34.42-156.66c1.72-7.84,8-11.4,13.94-7.95L457.57,464.44c6,3.45,9.43,12.6,7.7,20.44L430.86,641.55C429.14,649.39,422.89,653,416.92,649.49Z" transform="translate(-0.85 -25.87)"/><path class="cls-1" d="M418.81,648.72,201.65,523.41c-6-3.45-9.43-12.61-7.71-20.45L228.36,346.3c.87-4,2.91-6.82,5.47-8.25-3.44.89-6.28,4.12-7.36,9L192.05,503.73c-1.72,7.84,1.73,17,7.71,20.45L416.92,649.49a8.33,8.33,0,0,0,8.47.3A8.6,8.6,0,0,1,418.81,648.72Z" transform="translate(-0.85 -25.87)"/><path class="cls-6" d="M425.11,668l-31.56-4.16L189.8,546.24c-6.53-3.78-17.94-3.3-25.48,1L19.94,630.61.86,628.09v10.83h0c-.13,2.5,1.3,4.91,4.38,6.69l230.9,133.31c6.54,3.77,17.94,3.3,25.49-1.06l157.23-90.74c4.24-2.45,6.35-5.61,6.23-8.57h0Z" transform="translate(-0.85 -25.87)"/><path class="cls-2" d="M272,593.71l-14.47-8.36H98.4L19.94,630.61.86,628.09v10.83h0c-.13,2.5,1.3,4.91,4.38,6.69l230.9,133.31c3.45,2,8.27,2.79,13.16,2.46Z" transform="translate(-0.85 -25.87)"/><path class="cls-1" d="M9.33,629.21.86,628.09v10.83h0c-.13,2.5,1.3,4.91,4.38,6.69L9.33,648Z" transform="translate(-0.85 -25.87)"/><path class="cls-9" d="M238.49,780c6.19,2.35,15,1.83,21.65-1.35V754.51H238.49Z" transform="translate(-0.85 -25.87)"/><path class="cls-3" d="M236.16,768.11,5.26,634.8C-1.27,631-.45,624.44,7.09,620.09l157.23-90.75c7.54-4.35,19-4.83,25.48-1.06L420.71,661.6c6.53,3.77,5.71,10.35-1.83,14.71L261.65,767.05C254.1,771.41,242.7,771.88,236.16,768.11Z" transform="translate(-0.85 -25.87)"/><path class="cls-4" d="M418.88,672.35,261.65,763.1c-7.55,4.35-18.95,4.83-25.49,1.06L5.26,630.84A8.54,8.54,0,0,1,1.2,626.4c-1,3.09.28,6.22,4.06,8.4l230.9,133.31c6.54,3.77,17.94,3.3,25.49-1.06l157.23-90.74c5.06-2.93,7.08-6.86,5.89-10.27C424,668.29,422.05,670.52,418.88,672.35Z" transform="translate(-0.85 -25.87)"/><path class="cls-1" d="M103.47,590.66l-10.45-6c-.84-.48-.73-1.33.23-1.89l12.34-7.12a3.61,3.61,0,0,1,3.27-.13l10.45,6c.83.48.73,1.33-.24,1.89l-12.33,7.12A3.61,3.61,0,0,1,103.47,590.66Z" transform="translate(-0.85 -25.87)"/><path class="cls-1" d="M119.6,600l-10.45-6c-.84-.49-.73-1.33.24-1.89l12.33-7.12a3.64,3.64,0,0,1,3.27-.14l10.45,6c.84.49.73,1.34-.24,1.89l-12.33,7.12A3.64,3.64,0,0,1,119.6,600Z" transform="translate(-0.85 -25.87)"/><path class="cls-1" d="M135.73,609.29l-10.44-6c-.84-.48-.74-1.33.23-1.89l12.33-7.12a3.63,3.63,0,0,1,3.28-.13l10.44,6c.84.48.74,1.33-.23,1.89L139,609.16A3.63,3.63,0,0,1,135.73,609.29Z" transform="translate(-0.85 -25.87)"/><path class="cls-1" d="M158.05,601.6l-10.45-6c-.84-.48-.73-1.33.24-1.89l10.35-6a3.61,3.61,0,0,1,3.27-.13l10.45,6c.84.48.73,1.33-.24,1.89l-10.35,6A3.61,3.61,0,0,1,158.05,601.6Z" transform="translate(-0.85 -25.87)"/><path class="cls-1" d="M174.18,610.92l-10.44-6c-.84-.49-.74-1.34.23-1.89l10.35-6a3.64,3.64,0,0,1,3.27-.14l10.45,6c.84.48.74,1.33-.23,1.88l-10.35,6A3.67,3.67,0,0,1,174.18,610.92Z" transform="translate(-0.85 -25.87)"/><path class="cls-1" d="M190.32,620.23l-10.45-6c-.84-.48-.73-1.33.23-1.89l10.36-6a3.61,3.61,0,0,1,3.27-.13l10.45,6c.83.48.73,1.33-.24,1.89l-10.35,6A3.61,3.61,0,0,1,190.32,620.23Z" transform="translate(-0.85 -25.87)"/><path class="cls-1" d="M206.45,629.55l-10.45-6c-.84-.49-.73-1.34.24-1.89l10.35-6a3.64,3.64,0,0,1,3.27-.14l10.45,6c.84.48.73,1.33-.24,1.88l-10.35,6A3.64,3.64,0,0,1,206.45,629.55Z" transform="translate(-0.85 -25.87)"/><path class="cls-1" d="M222.58,638.86l-10.44-6c-.84-.48-.74-1.33.23-1.89l10.35-6a3.63,3.63,0,0,1,3.28-.13l10.44,6c.84.48.74,1.33-.23,1.89l-10.35,6A3.63,3.63,0,0,1,222.58,638.86Z" transform="translate(-0.85 -25.87)"/><path class="cls-1" d="M238.72,648.18l-10.45-6c-.84-.49-.73-1.34.24-1.89l10.35-6a3.64,3.64,0,0,1,3.27-.14l10.45,6c.84.48.73,1.33-.24,1.88L242,648A3.64,3.64,0,0,1,238.72,648.18Z" transform="translate(-0.85 -25.87)"/><path class="cls-1" d="M254.85,657.49l-10.44-6c-.84-.48-.74-1.33.23-1.89l10.35-6a3.61,3.61,0,0,1,3.27-.13l10.45,6c.84.48.74,1.33-.23,1.89l-10.35,6A3.63,3.63,0,0,1,254.85,657.49Z" transform="translate(-0.85 -25.87)"/><path class="cls-1" d="M271,666.81l-10.45-6c-.84-.48-.73-1.33.23-1.88l10.36-6a3.64,3.64,0,0,1,3.27-.14l10.45,6c.83.48.73,1.33-.24,1.88l-10.35,6A3.64,3.64,0,0,1,271,666.81Z" transform="translate(-0.85 -25.87)"/><path class="cls-1" d="M287.12,676.12l-10.45-6c-.84-.48-.73-1.33.24-1.89l10.35-6a3.61,3.61,0,0,1,3.27-.13l10.45,6c.84.48.73,1.33-.24,1.89l-10.35,6A3.61,3.61,0,0,1,287.12,676.12Z" transform="translate(-0.85 -25.87)"/><path class="cls-1" d="M303.25,685.44l-10.44-6c-.84-.49-.74-1.34.23-1.89l10.35-6a3.67,3.67,0,0,1,3.28-.14l10.44,6c.84.48.74,1.33-.23,1.88l-10.35,6A3.67,3.67,0,0,1,303.25,685.44Z" transform="translate(-0.85 -25.87)"/><path class="cls-1" d="M181.82,597.19l-10.45-6c-.84-.48-.73-1.33.24-1.89l10.35-6a3.61,3.61,0,0,1,3.27-.13l10.45,6c.84.48.73,1.33-.23,1.89l-10.36,6A3.61,3.61,0,0,1,181.82,597.19Z" transform="translate(-0.85 -25.87)"/><path class="cls-1" d="M165.45,587.74l-10.45-6c-.84-.49-.74-1.33.23-1.89l10.36-6a3.64,3.64,0,0,1,3.27-.14l10.45,6c.83.48.73,1.33-.24,1.89l-10.35,6A3.64,3.64,0,0,1,165.45,587.74Z" transform="translate(-0.85 -25.87)"/><path class="cls-1" d="M149,578.27l-22.5-13c-.84-.49-.73-1.33.24-1.89l10.35-6a3.61,3.61,0,0,1,3.27-.13l22.5,13c.84.48.74,1.33-.23,1.89l-10.35,6A3.67,3.67,0,0,1,149,578.27Z" transform="translate(-0.85 -25.87)"/><path class="cls-1" d="M160.51,566.75l-18.26-10.54c-.84-.48-.73-1.33.23-1.89l10.36-6a3.61,3.61,0,0,1,3.27-.13l18.26,10.54c.84.49.73,1.33-.24,1.89l-10.35,6A3.61,3.61,0,0,1,160.51,566.75Z" transform="translate(-0.85 -25.87)"/><path class="cls-1" d="M198,606.51l-10.45-6c-.84-.49-.74-1.34.23-1.89l10.35-6a3.67,3.67,0,0,1,3.28-.14l10.44,6c.84.48.74,1.33-.23,1.88l-10.35,6A3.64,3.64,0,0,1,198,606.51Z" transform="translate(-0.85 -25.87)"/><path class="cls-1" d="M214.09,615.82l-10.45-6c-.84-.48-.73-1.33.24-1.89l10.35-6a3.61,3.61,0,0,1,3.27-.13l10.45,6c.84.48.73,1.33-.24,1.89l-10.35,6A3.61,3.61,0,0,1,214.09,615.82Z" transform="translate(-0.85 -25.87)"/><path class="cls-1" d="M230.22,625.14l-10.44-6c-.84-.49-.74-1.34.23-1.89l10.35-6a3.64,3.64,0,0,1,3.27-.14l10.45,6c.84.48.74,1.33-.23,1.88l-10.35,6A3.67,3.67,0,0,1,230.22,625.14Z" transform="translate(-0.85 -25.87)"/><path class="cls-1" d="M246.36,634.45l-10.45-6c-.84-.48-.73-1.33.23-1.89l10.36-6a3.61,3.61,0,0,1,3.27-.13l10.45,6c.84.48.73,1.33-.24,1.89l-10.35,6A3.61,3.61,0,0,1,246.36,634.45Z" transform="translate(-0.85 -25.87)"/><path class="cls-1" d="M262.49,643.77l-10.45-6c-.84-.49-.73-1.34.24-1.89l10.35-6a3.64,3.64,0,0,1,3.27-.14l10.45,6c.84.48.73,1.33-.23,1.88l-10.36,6A3.64,3.64,0,0,1,262.49,643.77Z" transform="translate(-0.85 -25.87)"/><path class="cls-1" d="M278.62,653.08l-10.44-6c-.84-.48-.74-1.33.23-1.89l10.35-6a3.63,3.63,0,0,1,3.28-.13l10.44,6c.84.48.74,1.33-.23,1.89l-10.35,6A3.63,3.63,0,0,1,278.62,653.08Z" transform="translate(-0.85 -25.87)"/><path class="cls-1" d="M294.76,662.4l-10.45-6c-.84-.48-.73-1.33.24-1.88l10.35-6a3.64,3.64,0,0,1,3.27-.14l10.45,6c.84.49.73,1.34-.24,1.89l-10.35,6A3.64,3.64,0,0,1,294.76,662.4Z" transform="translate(-0.85 -25.87)"/><path class="cls-1" d="M310.89,671.71l-10.44-6c-.84-.48-.74-1.33.23-1.89l10.35-6a3.61,3.61,0,0,1,3.27-.13l10.45,6c.84.48.74,1.33-.23,1.89l-10.35,6A3.63,3.63,0,0,1,310.89,671.71Z" transform="translate(-0.85 -25.87)"/><path class="cls-1" d="M327,681l-10.45-6c-.84-.49-.73-1.34.23-1.89l10.36-6a3.64,3.64,0,0,1,3.27-.14l10.45,6c.84.48.73,1.33-.24,1.88l-10.35,6A3.64,3.64,0,0,1,327,681Z" transform="translate(-0.85 -25.87)"/><path class="cls-1" d="M355.71,697.59l-22.8-13.16c-.83-.49-.73-1.33.24-1.89l10.35-6a3.64,3.64,0,0,1,3.27-.14l22.8,13.17c.84.48.73,1.33-.24,1.88l-10.35,6A3.64,3.64,0,0,1,355.71,697.59Z" transform="translate(-0.85 -25.87)"/><path class="cls-1" d="M387.12,679.45l-19.24-11.11c-.84-.48-.73-1.33.24-1.89l10.35-6a3.64,3.64,0,0,1,3.27-.14L401,671.45c.84.48.73,1.33-.24,1.89l-10.35,6A3.61,3.61,0,0,1,387.12,679.45Z" transform="translate(-0.85 -25.87)"/><path class="cls-1" d="M226.21,604.68l-10.45-6c-.84-.48-.73-1.33.24-1.89l10.35-6a3.64,3.64,0,0,1,3.27-.14l10.45,6c.84.49.73,1.33-.24,1.89l-10.35,6A3.61,3.61,0,0,1,226.21,604.68Z" transform="translate(-0.85 -25.87)"/><path class="cls-1" d="M209.67,595.14l-10.44-6c-.84-.49-.74-1.33.23-1.89l10.35-6a3.67,3.67,0,0,1,3.28-.14l10.44,6c.84.48.74,1.33-.23,1.89L213,595A3.67,3.67,0,0,1,209.67,595.14Z" transform="translate(-0.85 -25.87)"/><path class="cls-1" d="M193.14,585.59l-10.45-6c-.84-.49-.73-1.33.24-1.89l10.35-6a3.61,3.61,0,0,1,3.27-.13l10.45,6c.84.48.73,1.33-.24,1.89l-10.35,6A3.64,3.64,0,0,1,193.14,585.59Z" transform="translate(-0.85 -25.87)"/><path class="cls-1" d="M176.6,576l-10.44-6c-.84-.48-.74-1.33.23-1.89l10.35-6A3.64,3.64,0,0,1,180,562l10.45,6c.84.49.74,1.33-.23,1.89l-10.35,6A3.63,3.63,0,0,1,176.6,576Z" transform="translate(-0.85 -25.87)"/><path class="cls-1" d="M242.34,614l-10.44-6c-.84-.49-.74-1.33.23-1.89l10.35-6a3.63,3.63,0,0,1,3.28-.13l10.44,6c.84.48.74,1.33-.23,1.89l-10.35,6A3.67,3.67,0,0,1,242.34,614Z" transform="translate(-0.85 -25.87)"/><path class="cls-1" d="M258.48,623.31l-10.45-6c-.84-.48-.73-1.33.23-1.89l10.36-6a3.64,3.64,0,0,1,3.27-.14l10.45,6c.84.49.73,1.33-.24,1.89l-10.35,6A3.61,3.61,0,0,1,258.48,623.31Z" transform="translate(-0.85 -25.87)"/><path class="cls-1" d="M274.61,632.63l-10.45-6c-.84-.49-.73-1.33.24-1.89l10.35-6a3.61,3.61,0,0,1,3.27-.13l10.45,6c.84.48.73,1.33-.23,1.89l-10.36,6A3.64,3.64,0,0,1,274.61,632.63Z" transform="translate(-0.85 -25.87)"/><path class="cls-1" d="M290.74,641.94l-10.44-6c-.84-.48-.74-1.33.23-1.89l10.35-6a3.67,3.67,0,0,1,3.28-.14l10.44,6c.84.49.74,1.33-.23,1.89l-10.35,6A3.63,3.63,0,0,1,290.74,641.94Z" transform="translate(-0.85 -25.87)"/><path class="cls-1" d="M306.88,651.26l-10.45-6c-.84-.49-.73-1.33.24-1.89l10.35-6a3.61,3.61,0,0,1,3.27-.13l10.45,6c.84.48.73,1.33-.24,1.89l-10.35,6A3.64,3.64,0,0,1,306.88,651.26Z" transform="translate(-0.85 -25.87)"/><path class="cls-1" d="M323,660.57l-10.44-6c-.84-.48-.74-1.33.23-1.89l10.35-6a3.67,3.67,0,0,1,3.28-.14l10.44,6c.84.49.74,1.33-.23,1.89l-10.35,6A3.63,3.63,0,0,1,323,660.57Z" transform="translate(-0.85 -25.87)"/><path class="cls-1" d="M339.15,669.89l-10.45-6c-.84-.49-.73-1.33.23-1.89l10.36-6a3.61,3.61,0,0,1,3.27-.13l10.45,6c.84.48.73,1.33-.24,1.89l-10.35,6A3.64,3.64,0,0,1,339.15,669.89Z" transform="translate(-0.85 -25.87)"/><path class="cls-1" d="M355.28,679.2l-10.45-6c-.84-.48-.73-1.33.24-1.89l10.35-6a3.64,3.64,0,0,1,3.27-.14l10.45,6c.84.49.73,1.33-.23,1.89l-10.36,6A3.61,3.61,0,0,1,355.28,679.2Z" transform="translate(-0.85 -25.87)"/><path class="cls-1" d="M371.42,688.52l-10.45-6c-.84-.49-.74-1.33.23-1.89l10.35-6a3.63,3.63,0,0,1,3.28-.13l10.44,6c.84.48.74,1.33-.23,1.89l-10.35,6A3.64,3.64,0,0,1,371.42,688.52Z" transform="translate(-0.85 -25.87)"/><path class="cls-1" d="M217.71,581.64l-10.44-6c-.84-.48-.74-1.33.23-1.89l10.35-6a3.67,3.67,0,0,1,3.28-.14l10.44,6c.84.49.74,1.33-.23,1.89l-10.35,6A3.63,3.63,0,0,1,217.71,581.64Z" transform="translate(-0.85 -25.87)"/><path class="cls-1" d="M201.66,572.38l-10.45-6c-.84-.48-.73-1.33.24-1.89l10.35-6a3.64,3.64,0,0,1,3.27-.14l10.45,6c.84.49.73,1.33-.24,1.89l-10.35,6A3.64,3.64,0,0,1,201.66,572.38Z" transform="translate(-0.85 -25.87)"/><path class="cls-1" d="M185.61,563.11l-10.45-6c-.84-.49-.74-1.34.23-1.89l10.36-6a3.64,3.64,0,0,1,3.27-.14l10.45,6c.83.48.73,1.33-.24,1.88l-10.35,6A3.64,3.64,0,0,1,185.61,563.11Z" transform="translate(-0.85 -25.87)"/><path class="cls-1" d="M169.55,553.84l-10.45-6c-.83-.49-.73-1.33.24-1.89l10.35-6a3.64,3.64,0,0,1,3.27-.14l10.45,6c.84.48.74,1.33-.23,1.89l-10.36,6A3.64,3.64,0,0,1,169.55,553.84Z" transform="translate(-0.85 -25.87)"/><path class="cls-1" d="M186.06,544.31l-10.45-6c-.84-.49-.73-1.33.24-1.89l3.42-2a3.64,3.64,0,0,1,3.27-.14l10.45,6c.84.48.73,1.33-.23,1.89l-3.43,2A3.64,3.64,0,0,1,186.06,544.31Z" transform="translate(-0.85 -25.87)"/><path class="cls-1" d="M207,556.4l-10.45-6c-.84-.48-.73-1.33.24-1.89l3.42-2a3.64,3.64,0,0,1,3.27-.14l10.45,6c.84.49.73,1.33-.23,1.89l-3.43,2A3.61,3.61,0,0,1,207,556.4Z" transform="translate(-0.85 -25.87)"/><path class="cls-1" d="M223,565.63l-10.45-6c-.84-.48-.73-1.33.23-1.89l3.43-2a3.64,3.64,0,0,1,3.27-.14l10.45,6c.84.49.73,1.33-.24,1.89l-3.42,2A3.61,3.61,0,0,1,223,565.63Z" transform="translate(-0.85 -25.87)"/><path class="cls-1" d="M239,574.86l-10.44-6c-.84-.48-.74-1.33.23-1.89l3.42-2a3.67,3.67,0,0,1,3.28-.14l10.44,6c.84.49.74,1.33-.23,1.89l-3.42,2A3.63,3.63,0,0,1,239,574.86Z" transform="translate(-0.85 -25.87)"/><path class="cls-1" d="M255,584.09l-10.45-6c-.84-.48-.73-1.33.24-1.89l3.42-2a3.64,3.64,0,0,1,3.27-.14l10.45,6c.84.49.73,1.33-.23,1.89l-3.43,2A3.61,3.61,0,0,1,255,584.09Z" transform="translate(-0.85 -25.87)"/><path class="cls-1" d="M344.22,635.62l-10.44-6c-.84-.48-.74-1.33.23-1.89l3.42-2a3.67,3.67,0,0,1,3.28-.14l10.44,6c.84.49.74,1.33-.23,1.89l-3.42,2A3.63,3.63,0,0,1,344.22,635.62Z" transform="translate(-0.85 -25.87)"/><path class="cls-1" d="M360.21,644.85l-10.45-6c-.84-.48-.73-1.33.24-1.89l3.42-2a3.64,3.64,0,0,1,3.27-.14l10.45,6c.84.49.73,1.33-.24,1.89l-3.42,2A3.61,3.61,0,0,1,360.21,644.85Z" transform="translate(-0.85 -25.87)"/><path class="cls-1" d="M376.2,654.08l-10.45-6c-.84-.48-.73-1.33.23-1.89l3.43-2a3.64,3.64,0,0,1,3.27-.14l10.45,6c.84.49.73,1.33-.24,1.89l-3.42,2A3.61,3.61,0,0,1,376.2,654.08Z" transform="translate(-0.85 -25.87)"/><path class="cls-1" d="M392.18,663.31l-10.44-6c-.84-.48-.74-1.33.23-1.89l3.42-2a3.67,3.67,0,0,1,3.28-.14l10.44,6c.84.49.74,1.33-.23,1.89l-3.42,2A3.63,3.63,0,0,1,392.18,663.31Z" transform="translate(-0.85 -25.87)"/><path class="cls-1" d="M233.85,591l-10.45-6c-.84-.49-.73-1.33.24-1.89l10.35-6a3.61,3.61,0,0,1,3.27-.13l10.45,6c.84.48.73,1.33-.24,1.89l-10.35,6A3.64,3.64,0,0,1,233.85,591Z" transform="translate(-0.85 -25.87)"/><path class="cls-1" d="M250,600.27l-10.45-6c-.83-.48-.73-1.33.24-1.89l10.35-6a3.64,3.64,0,0,1,3.27-.14l10.45,6c.84.49.73,1.33-.23,1.89l-10.36,6A3.61,3.61,0,0,1,250,600.27Z" transform="translate(-0.85 -25.87)"/><path class="cls-1" d="M266.12,609.59l-10.45-6c-.84-.49-.74-1.33.23-1.89l10.35-6a3.63,3.63,0,0,1,3.28-.13l10.44,6c.84.48.74,1.33-.23,1.89l-10.35,6A3.64,3.64,0,0,1,266.12,609.59Z" transform="translate(-0.85 -25.87)"/><path class="cls-1" d="M282.25,618.9l-10.45-6c-.84-.48-.73-1.33.24-1.89l10.35-6a3.64,3.64,0,0,1,3.27-.14l10.45,6c.84.49.73,1.33-.24,1.89l-10.35,6A3.61,3.61,0,0,1,282.25,618.9Z" transform="translate(-0.85 -25.87)"/><path class="cls-1" d="M298.38,628.22l-10.44-6c-.84-.49-.74-1.33.23-1.89l10.35-6a3.63,3.63,0,0,1,3.28-.13l10.44,6c.84.48.74,1.33-.23,1.89l-10.35,6A3.67,3.67,0,0,1,298.38,628.22Z" transform="translate(-0.85 -25.87)"/><path class="cls-1" d="M314.52,637.53l-10.45-6c-.84-.48-.73-1.33.24-1.89l10.35-6a3.64,3.64,0,0,1,3.27-.14l10.45,6c.84.49.73,1.33-.24,1.89l-10.35,6A3.61,3.61,0,0,1,314.52,637.53Z" transform="translate(-0.85 -25.87)"/><path class="cls-1" d="M330.65,646.85l-10.45-6c-.83-.49-.73-1.33.24-1.89l10.35-6a3.61,3.61,0,0,1,3.27-.13l10.45,6c.84.48.73,1.33-.23,1.89l-10.36,6A3.64,3.64,0,0,1,330.65,646.85Z" transform="translate(-0.85 -25.87)"/><path class="cls-1" d="M346.79,656.16l-10.45-6c-.84-.48-.74-1.33.23-1.89l10.35-6a3.67,3.67,0,0,1,3.28-.14l10.44,6c.84.49.74,1.33-.23,1.89l-10.35,6A3.61,3.61,0,0,1,346.79,656.16Z" transform="translate(-0.85 -25.87)"/><path class="cls-1" d="M362.92,665.48l-10.45-6c-.84-.49-.73-1.33.24-1.89l10.35-6a3.61,3.61,0,0,1,3.27-.13l10.45,6c.84.48.73,1.33-.24,1.89l-10.35,6A3.64,3.64,0,0,1,362.92,665.48Z" transform="translate(-0.85 -25.87)"/><path class="cls-1" d="M141.61,592.11l-30.77-17.77c-.84-.48-.74-1.33.23-1.88l10.35-6a3.67,3.67,0,0,1,3.28-.14l30.77,17.77c.83.48.73,1.33-.24,1.89l-10.35,6A3.64,3.64,0,0,1,141.61,592.11Z" transform="translate(-0.85 -25.87)"/><path class="cls-1" d="M339.82,706.55l-30.77-17.77c-.84-.48-.74-1.33.23-1.89l10.35-6a3.67,3.67,0,0,1,3.28-.14l30.77,17.76c.84.49.73,1.33-.24,1.89l-10.35,6A3.64,3.64,0,0,1,339.82,706.55Z" transform="translate(-0.85 -25.87)"/><path class="cls-1" d="M275.29,689.87l-10.44-6c-.84-.49-.74-1.33.23-1.89l12.33-7.12a3.67,3.67,0,0,1,3.28-.14l10.44,6c.84.48.74,1.33-.23,1.88l-12.33,7.12A3.67,3.67,0,0,1,275.29,689.87Z" transform="translate(-0.85 -25.87)"/><path class="cls-1" d="M158.13,622.22l-16.71-9.64c-.84-.49-.73-1.33.24-1.89L154,603.57a3.64,3.64,0,0,1,3.27-.14L174,613.08c.84.48.73,1.33-.24,1.89l-12.33,7.12A3.61,3.61,0,0,1,158.13,622.22Z" transform="translate(-0.85 -25.87)"/><path class="cls-1" d="M259.75,680.89,243,671.25c-.84-.49-.73-1.33.24-1.89l12.33-7.12a3.64,3.64,0,0,1,3.27-.14l16.71,9.65c.84.48.73,1.33-.24,1.89L263,680.76A3.61,3.61,0,0,1,259.75,680.89Z" transform="translate(-0.85 -25.87)"/><path class="cls-1" d="M181.41,635.66,164.7,626c-.84-.49-.73-1.33.23-1.89L177.27,617a3.64,3.64,0,0,1,3.27-.14l16.71,9.65c.84.48.73,1.33-.24,1.89l-12.33,7.12A3.61,3.61,0,0,1,181.41,635.66Z" transform="translate(-0.85 -25.87)"/><path class="cls-1" d="M180.65,616.94l72.64,41.94a1,1,0,0,1,0,1.88L240.72,668a3.6,3.6,0,0,1-3.26,0l-72.65-41.94Z" transform="translate(-0.85 -25.87)"/><path class="cls-1" d="M320.39,706.76,332,713.48c.69.39.61,1.09-.19,1.55l-5,2.91a3,3,0,0,1-2.69.11l-11.63-6.72c-.69-.4-.6-1.09.19-1.55l5-2.91A3,3,0,0,1,320.39,706.76Z" transform="translate(-0.85 -25.87)"/><path class="cls-1" d="M304.12,697.37l11.64,6.72c.68.39.6,1.09-.2,1.54l-5,2.92a3,3,0,0,1-2.68.11l-11.64-6.72c-.69-.4-.6-1.09.19-1.55l5.05-2.91A3,3,0,0,1,304.12,697.37Z" transform="translate(-0.85 -25.87)"/><path class="cls-1" d="M288,688.05l11.63,6.72c.69.4.6,1.09-.19,1.55l-5,2.91a3,3,0,0,1-2.69.11l-11.63-6.72c-.69-.39-.61-1.09.19-1.54l5-2.92A3,3,0,0,1,288,688.05Z" transform="translate(-0.85 -25.87)"/><path class="cls-1" d="M313,692.22l11.64,6.72c.68.4.6,1.09-.2,1.55l-5,2.91a3,3,0,0,1-2.68.11l-11.64-6.71c-.69-.4-.6-1.1.19-1.55l5.05-2.92A3,3,0,0,1,313,692.22Z" transform="translate(-0.85 -25.87)"/><polygon class="cls-4" points="375.91 484.6 289 434.42 290.12 428.77 377.03 478.94 375.91 484.6"/><polygon class="cls-4" points="344.78 494.13 284.12 459.1 285.24 453.45 345.9 488.48 344.78 494.13"/><polygon class="cls-10" points="339.04 477.06 286.56 446.76 287.68 441.11 340.16 471.41 339.04 477.06"/><polygon class="cls-3" points="373.47 496.94 347.23 481.79 348.34 476.14 374.58 491.29 373.47 496.94"/><path class="cls-3" d="M328.75,454.45a3.26,3.26,0,0,1-4.71,1.46,4.11,4.11,0,0,1-1.69-5.16,3.27,3.27,0,0,1,4.71-1.45A4.1,4.1,0,0,1,328.75,454.45Z" transform="translate(-0.85 -25.87)"/><path class="cls-4" d="M340.06,461a3.28,3.28,0,0,1-4.72,1.45,4.1,4.1,0,0,1-1.69-5.15,3.27,3.27,0,0,1,4.72-1.45A4.11,4.11,0,0,1,340.06,461Z" transform="translate(-0.85 -25.87)"/><path class="cls-3" d="M351.36,467.5a3.28,3.28,0,0,1-4.72,1.46A4.12,4.12,0,0,1,345,463.8a3.28,3.28,0,0,1,4.72-1.45A4.1,4.1,0,0,1,351.36,467.5Z" transform="translate(-0.85 -25.87)"/><path class="cls-10" d="M362.66,474a3.28,3.28,0,0,1-4.72,1.45,4.12,4.12,0,0,1-1.69-5.15,3.28,3.28,0,0,1,4.72-1.45A4.1,4.1,0,0,1,362.66,474Z" transform="translate(-0.85 -25.87)"/><path class="cls-3" d="M376.62,243.92l-4.47-2.58v-6.43c0-6.88-4.85-15.29-10.82-18.73l-33.85-19.43c-6-3.44-10.82-.64-10.82,6.25v6.42l-4.47-2.58v-6.42c0-9.73,6.86-13.69,15.29-8.83L361.33,211c8.43,4.86,15.29,16.74,15.29,26.47Z" transform="translate(-0.85 -25.87)"/><path class="cls-3" d="M361.36,252.71l15.26-8.79-3.09-10.71-4.27-10.76s-7.34-8.2-7.9-8.36-20.56-11.53-20.56-11.53l-16.67-12-7.93.27-14.76,8.48L312,203.7s6,3,7.38,3.35,7.29,6,7.41,6,7.26,2.95,7.26,2.95l1.55-.25,13,9.11,4.19,1.85,2.26,3.63,3.47,9.67Z" transform="translate(-0.85 -25.87)"/><path class="cls-2" d="M316.66,209.42l-15.26,8.79s-1-9.83-1-10,3.34-4.8,3.34-4.8l8.28-1.61,6.56,5-2.06-.85-.88.52,1,1.61Z" transform="translate(-0.85 -25.87)"/><path class="cls-1" d="M361.36,252.71l-4.47-2.58v-6.42c0-6.89-4.86-15.3-10.82-18.74l-33.86-19.43c-6-3.44-10.81-.64-10.81,6.25v6.42l-4.47-2.58v-6.42c0-9.73,6.86-13.69,15.28-8.83l33.86,19.43c8.43,4.87,15.29,16.74,15.29,26.48Z" transform="translate(-0.85 -25.87)"/><path class="cls-3" d="M529.87,243.86l-3.3-1.9c-1.39.94-2.8,1.86-4.21,2.75l7.51,4.31c6,3.44,10.82,11.85,10.82,18.74v6.42l4.47,2.58v-6.42C545.16,260.6,538.3,248.73,529.87,243.86Z" transform="translate(-0.85 -25.87)"/><path class="cls-3" d="M537.8,255.29s-7.35-8.19-7.91-8.36c-.19-.05-2.72-1.45-5.93-3.25-4.78,3.08-9.7,5.93-14.62,8.57l7.82,5.49,4.19,1.85,2.26,3.63,3.46,9.68,2.82,12.65,15.27-8.79-3.09-10.71Z" transform="translate(-0.85 -25.87)"/><path class="cls-1" d="M514.61,257.81c6,3.45,10.81,11.85,10.81,18.74V283l4.47,2.58v-6.42c0-9.73-6.86-21.61-15.28-26.48L511.68,251c-1.54.86-3.09,1.69-4.63,2.51Z" transform="translate(-0.85 -25.87)"/><path class="cls-11" d="M806.92,137l-51-29.47a2.61,2.61,0,0,0-2.64-.22v0l-5,2.86,3.48,1.27v37.18c0,3,1.84,6.54,4.11,7.85l48.79,28.17V189l5-2.88h0A3.66,3.66,0,0,0,811,182.8v-38C811,141.82,809.19,138.31,806.92,137Z" transform="translate(-0.85 -25.87)"/><path class="cls-10" d="M801.87,188.81l-51-29.47c-2.27-1.31-4.11-4.82-4.11-7.85V113.54c0-3,1.84-4.42,4.11-3.11l51,29.47c2.27,1.31,4.11,4.83,4.11,7.85v38C806,188.73,804.14,190.12,801.87,188.81Z" transform="translate(-0.85 -25.87)"/><path class="cls-4" d="M803.12,139.32l-51-29.47a2.44,2.44,0,0,0-3.1.13,3.06,3.06,0,0,1,1.85.45l51,29.47c2.27,1.31,4.11,4.83,4.11,7.85v38a4.05,4.05,0,0,1-1,3c1.34-.13,2.26-1.43,2.26-3.56v-38C807.23,144.14,805.39,140.63,803.12,139.32Z" transform="translate(-0.85 -25.87)"/><path class="cls-4" d="M768,146.26c0,2.2-1.54,3.09-3.44,2a7.63,7.63,0,0,1-3.45-6c0-2.19,1.55-3.08,3.45-2A7.6,7.6,0,0,1,768,146.26Z" transform="translate(-0.85 -25.87)"/><path class="cls-4" d="M778.43,152.29c0,2.19-1.54,3.08-3.45,2a7.6,7.6,0,0,1-3.44-6c0-2.2,1.54-3.09,3.44-2A7.6,7.6,0,0,1,778.43,152.29Z" transform="translate(-0.85 -25.87)"/><path class="cls-4" d="M788.86,158.31c0,2.2-1.54,3.09-3.44,2a7.63,7.63,0,0,1-3.45-6c0-2.19,1.55-3.08,3.45-2A7.62,7.62,0,0,1,788.86,158.31Z" transform="translate(-0.85 -25.87)"/><path class="cls-1" d="M777.87,89.27l-51-29.47a2.61,2.61,0,0,0-2.64-.21v0l-4.95,2.86,3.48,1.27v37.17c0,3,1.84,6.54,4.11,7.85l48.79,28.17v4.36l5-2.88h0a3.64,3.64,0,0,0,1.38-3.27v-38C782,94.09,780.13,90.58,777.87,89.27Z" transform="translate(-0.85 -25.87)"/><path class="cls-3" d="M772.82,141.09l-51-29.47c-2.27-1.31-4.11-4.83-4.11-7.85v-38c0-3,1.84-4.41,4.11-3.1l51,29.47c2.27,1.31,4.11,4.82,4.11,7.85V138C776.93,141,775.09,142.4,772.82,141.09Z" transform="translate(-0.85 -25.87)"/><path class="cls-4" d="M774.07,91.6,723,62.12a2.45,2.45,0,0,0-3.1.13,3,3,0,0,1,1.85.46l51,29.47c2.27,1.31,4.11,4.82,4.11,7.85V138a4.05,4.05,0,0,1-1,3c1.34-.13,2.26-1.43,2.26-3.56v-38C778.18,96.42,776.34,92.9,774.07,91.6Z" transform="translate(-0.85 -25.87)"/><path class="cls-4" d="M738.94,98.54c0,2.19-1.54,3.08-3.44,2a7.6,7.6,0,0,1-3.45-6c0-2.2,1.55-3.09,3.45-2A7.62,7.62,0,0,1,738.94,98.54Z" transform="translate(-0.85 -25.87)"/><path class="cls-4" d="M749.38,104.56c0,2.2-1.55,3.09-3.45,2a7.62,7.62,0,0,1-3.44-6c0-2.19,1.54-3.08,3.44-2A7.63,7.63,0,0,1,749.38,104.56Z" transform="translate(-0.85 -25.87)"/><path class="cls-4" d="M759.81,110.58c0,2.2-1.54,3.09-3.44,2a7.6,7.6,0,0,1-3.45-6c0-2.2,1.54-3.09,3.45-2A7.62,7.62,0,0,1,759.81,110.58Z" transform="translate(-0.85 -25.87)"/><rect class="cls-1" x="877.67" y="399.75" width="12.86" height="27.75" transform="translate(1762.56 -35.97) rotate(129.2)"/><path class="cls-1" d="M894,427.58a10,10,0,0,0,5.75-7.05c.47-2.86-1.36-4.35-4.07-3.32a10,10,0,0,0-5.74,7.05C889.48,427.12,891.3,428.61,894,427.58Z" transform="translate(-0.85 -25.87)"/><rect class="cls-1" x="855.7" y="384.79" width="20.84" height="28.35" transform="translate(1721.85 -45.96) rotate(129.2)"/><path class="cls-2" d="M881,402.76l7.28,5.93a16.65,16.65,0,0,1-8.13,10l-7.28-5.94A16.63,16.63,0,0,1,881,402.76Z" transform="translate(-0.85 -25.87)"/><path class="cls-1" d="M875.74,416.32a16.27,16.27,0,0,0,9.32-11.42c.75-4.64-2.2-7-6.6-5.38a16.28,16.28,0,0,0-9.31,11.42C868.4,415.58,871.35,418,875.74,416.32Z" transform="translate(-0.85 -25.87)"/><path class="cls-1" d="M853.77,398.39A16.26,16.26,0,0,0,863.08,387c.75-4.64-2.2-7-6.59-5.37A16.25,16.25,0,0,0,847.17,393C846.42,397.66,849.37,400.06,853.77,398.39Z" transform="translate(-0.85 -25.87)"/><ellipse class="cls-3" cx="855.13" cy="389.99" rx="5.89" ry="3.4" transform="matrix(0.63, -0.77, 0.77, 0.63, 11.6, 780.34)"/><path class="cls-3" d="M894.08,419.42c1,.86,2.08.47,2.3-.87a4.71,4.71,0,0,0-1.51-4c-1.06-.86-2.09-.47-2.31.87A4.72,4.72,0,0,0,894.08,419.42Z" transform="translate(-0.85 -25.87)"/><path class="cls-1" d="M692.27,615.52a19.36,19.36,0,0,1-10-2.88l-24.47-14.48a1.56,1.56,0,0,1,1.59-2.68L683.83,610a15.66,15.66,0,0,0,16.17.35,18.14,18.14,0,0,0,9-15.88c0-16-1.73-35.86-3.6-56.89-5.82-65.61-12.42-140,29-150.56,18.3-4.69,32.28-9.65,43.52-13.64,32.34-11.48,44.45-15.77,77.86,15.31a1.56,1.56,0,1,1-2.12,2.28c-32-29.79-42.78-26-74.7-14.65-11.29,4-25.35,9-43.79,13.71-38.81,9.94-32.34,82.9-26.62,147.27,1.87,21.1,3.64,41,3.61,57.18A21.29,21.29,0,0,1,701.53,613,18.83,18.83,0,0,1,692.27,615.52Z" transform="translate(-0.85 -25.87)"/><ellipse class="cls-5" cx="796.39" cy="585.73" rx="50.56" ry="29.19"/><path class="cls-6" d="M821.36,599.09a7.8,7.8,0,0,1,4.4,7.81,12.89,12.89,0,0,1-.64,3.81c-.9,1.9-3.87,4.51-8.61,2.64s-15.27-11.76-15.66-18.24C800.11,583.09,813.86,595.89,821.36,599.09Z" transform="translate(-0.85 -25.87)"/><path class="cls-6" d="M793.51,619s1.14,6.94.59,8.21-3.85,4-8.73,3.4-18.89-5.43-22-14.67c-4.84-14.32,27.06,1.08,27.06,1.08Z" transform="translate(-0.85 -25.87)"/><path class="cls-6" d="M779.81,508.14l-1.08,108.24c.11,3.77,2.58,7,5.89,7.51.41.06.85.12,1.32.16a6.73,6.73,0,0,0,6.43-2.66,7.9,7.9,0,0,0,1.45-4.37l1.38-46.21,6.9-41.31,9.54,73.12a6.34,6.34,0,0,0,2.63,4.82,7.4,7.4,0,0,0,4.35,1.18,8,8,0,0,0,5.78-2.85,5.86,5.86,0,0,0,1.39-3.92l-3.79-44-1.41-56.12Z" transform="translate(-0.85 -25.87)"/><path class="cls-12" d="M793.83,411.25l1.71,9.86a4.52,4.52,0,0,1-3.69,4.3c-3.76.93-4.92-1.49-4.92-1.49l-1.7-11.11Z" transform="translate(-0.85 -25.87)"/><ellipse class="cls-12" cx="783.82" cy="401.39" rx="14.28" ry="16.04" transform="translate(-57.96 636.9) rotate(-44.38)"/><path class="cls-1" d="M793.38,421.29c.26-.1,15.94-10.2,21.74.37,9.45,17.23,8.9,72.69,5.91,79.87-2.76,6.65-9.66,11.55-14.49,14.31a28.92,28.92,0,0,1-14.07,4c-4.9,0-14.29-4.32-14-10.73,1.57-29.46-1-54.3-3.44-78.4C775.08,430.72,778.08,427.49,793.38,421.29Z" transform="translate(-0.85 -25.87)"/><path class="cls-6" d="M802.1,529.5l9.54,73.12a6.34,6.34,0,0,0,2.63,4.82c.25.16.52.31.81.46-2-1.49-7.76-62.86-8.84-69.69S802.1,529.5,802.1,529.5Z" transform="translate(-0.85 -25.87)"/><polygon class="cls-12" points="742.39 398.68 733.87 370.77 738.37 368.9 748.41 390.77 742.39 398.68"/><polygon class="cls-12" points="828.28 376.68 821.9 347.63 816.81 347.68 818.72 371.78 828.28 376.68"/><path class="cls-1" d="M775.08,430.72S759.77,433.78,750,416a2.42,2.42,0,0,0-4-.42c-1.56,2.38-3.63,6-2.56,10,4.75,17.42,30.48,21.27,35.1,31.37S775.08,430.72,775.08,430.72Z" transform="translate(-0.85 -25.87)"/><path class="cls-1" d="M803.33,417.67s12.12.94,13.87-9.56a79.86,79.86,0,0,0,1.22-10.49,2.12,2.12,0,0,1,2.38-2.06c2.9.36,7.39,1.23,8,3.18.91,2.9,2.63,17.15-9.35,39C811.61,452.08,803.33,417.67,803.33,417.67Z" transform="translate(-0.85 -25.87)"/><path class="cls-12" d="M822.77,373.57l-.11-3.32a6.84,6.84,0,0,0-1-3.3l-3.36-5.52-.88-1.1a2.56,2.56,0,0,0-3.36-.58l-.77.49a3.17,3.17,0,0,0-1.47,2.89l1.73,4.71-2.19-.42a.77.77,0,0,0-.92.62h0a.76.76,0,0,0,.48.86l3.58,1.45,3.26,4.61Z" transform="translate(-0.85 -25.87)"/><path class="cls-12" d="M734.59,396.79l-1-3.16a6.84,6.84,0,0,1-.2-3.45l1.29-6.33.45-1.33a2.54,2.54,0,0,1,3-1.68l.89.19a3.16,3.16,0,0,1,2.37,2.22l0,5,1.92-1.14a.78.78,0,0,1,1.08.27h0a.79.79,0,0,1-.16,1L741.27,391l-1.69,6.11Z" transform="translate(-0.85 -25.87)"/><path class="cls-2" d="M782.25,451.84c1.39,6.36-2.52,55.77,10.22,68-4.9,0-14.29-4.32-14-10.73a392.34,392.34,0,0,0-1.17-54.18c-5-6.48-18.75-10.6-27.36-18.91C750.62,436.23,780.86,445.53,782.25,451.84Z" transform="translate(-0.85 -25.87)"/><path class="cls-4" d="M799,418.51l-2.18-2.24s-3.58,3.66-6.45,4.3a33.4,33.4,0,0,1-5.16,1.06l-1.4,3.87S795.23,424.68,799,418.51Z" transform="translate(-0.85 -25.87)"/><path class="cls-10" d="M783,407a1.83,1.83,0,0,1-1.69,0c-.93-.49-2.43-4.18-4.36-3.91-3,.42-7.38,6.76-12.82-2.07-2.82-4.59-1.16-7.07-2.54-9.68,0,0,.48,1.42,12.32-5.81s21.51,1.58,24.51,6.62,5,14.87-2.82,20.42c-1.29.92-9.57-.72-9.75-1.42s2.05-1.81.8-3.43A2.6,2.6,0,0,0,783,407Z" transform="translate(-0.85 -25.87)"/><polygon class="cls-5" points="75.28 769.83 50.11 755.3 75.28 740.77 100.44 755.3 75.28 769.83"/><polygon class="cls-11" points="100.45 738.82 75.28 753.35 75.28 724.29 100.45 709.76 100.45 738.82"/><polygon class="cls-10" points="75.28 724.29 50.11 709.76 75.28 695.23 100.44 709.76 75.28 724.29"/><polygon class="cls-10" points="75.28 753.35 50.11 738.82 50.11 709.76 75.28 724.29 75.28 753.35"/><polygon class="cls-5" points="75.28 301.84 50.11 287.31 75.28 272.78 100.44 287.31 75.28 301.84"/><polygon class="cls-6" points="100.45 270.82 75.28 285.36 75.28 256.3 100.45 241.77 100.45 270.82"/><polygon class="cls-3" points="75.28 256.3 50.11 241.77 75.28 227.24 100.44 241.77 75.28 256.3"/><polygon class="cls-1" points="75.28 285.36 50.11 270.82 50.11 241.77 75.28 256.3 75.28 285.36"/><polygon class="cls-5" points="479.78 790.65 454.62 776.12 479.78 761.59 504.95 776.12 479.78 790.65"/><polygon class="cls-6" points="504.95 759.64 479.78 774.17 479.78 745.11 504.95 730.58 504.95 759.64"/><polygon class="cls-3" points="479.78 745.11 454.62 730.58 479.78 716.05 504.95 730.58 479.78 745.11"/><polygon class="cls-1" points="479.78 774.17 454.62 759.64 454.62 730.58 479.78 745.11 479.78 774.17"/></svg>