<svg xmlns="http://www.w3.org/2000/svg" xmlns:xlink="http://www.w3.org/1999/xlink" viewBox="0 0 3710 3710"><defs><style>.cls-1{fill:#fff;}.cls-2{fill:#7d97f4;}.cls-3,.cls-4,.cls-5,.cls-6{opacity:0.7;isolation:isolate;}.cls-3{fill:url(#linear-gradient);}.cls-4{fill:url(#linear-gradient-2);}.cls-5{fill:url(#linear-gradient-3);}.cls-6{fill:url(#linear-gradient-4);}.cls-7{opacity:0.64;}.cls-8{fill:url(#linear-gradient-5);}.cls-9{fill:url(#linear-gradient-6);}.cls-10{fill:url(#linear-gradient-7);}.cls-11{fill:url(#linear-gradient-8);}.cls-12{fill:url(#linear-gradient-9);}.cls-13{fill:url(#linear-gradient-10);}.cls-14{fill:url(#linear-gradient-11);}.cls-15{fill:url(#linear-gradient-12);}.cls-16{fill:url(#linear-gradient-13);}.cls-17{fill:#91b3fa;}.cls-18{fill:url(#linear-gradient-14);}.cls-19{fill:url(#linear-gradient-15);}.cls-20{fill:url(#linear-gradient-16);}.cls-21{fill:url(#linear-gradient-17);}.cls-22{fill:url(#linear-gradient-18);}.cls-23{fill:url(#linear-gradient-19);}.cls-24{fill:url(#linear-gradient-20);}.cls-25{fill:url(#linear-gradient-21);}.cls-26{fill:url(#linear-gradient-22);}.cls-27{fill:url(#linear-gradient-23);}.cls-28{fill:url(#linear-gradient-24);}.cls-29{fill:url(#linear-gradient-25);}.cls-30{fill:url(#linear-gradient-26);}.cls-31{fill:url(#linear-gradient-27);}.cls-32{fill:url(#linear-gradient-28);}.cls-33{fill:url(#linear-gradient-29);}.cls-34{fill:url(#linear-gradient-30);}.cls-35{fill:url(#linear-gradient-31);}.cls-36{fill:url(#linear-gradient-32);}.cls-37{fill:url(#linear-gradient-33);}.cls-38{fill:url(#linear-gradient-34);}.cls-39{fill:url(#linear-gradient-35);}.cls-40{fill:url(#linear-gradient-36);}.cls-41{fill:url(#linear-gradient-37);}.cls-42{fill:url(#linear-gradient-38);}.cls-43{fill:url(#linear-gradient-39);}.cls-44{fill:url(#linear-gradient-40);}.cls-45{fill:url(#linear-gradient-41);}.cls-46{fill:url(#linear-gradient-42);}.cls-47{fill:url(#linear-gradient-43);}.cls-48{fill:url(#linear-gradient-44);}.cls-49{fill:url(#linear-gradient-45);}.cls-50{fill:url(#linear-gradient-46);}.cls-51{fill:url(#linear-gradient-47);}.cls-52{fill:url(#linear-gradient-48);}.cls-53{fill:url(#linear-gradient-49);}.cls-54{fill:url(#linear-gradient-50);}.cls-55{fill:url(#linear-gradient-51);}.cls-56{fill:url(#linear-gradient-52);}.cls-57{fill:url(#linear-gradient-53);}.cls-58{fill:url(#linear-gradient-54);}.cls-59{fill:url(#linear-gradient-55);}.cls-60{fill:url(#linear-gradient-56);}.cls-61{fill:url(#linear-gradient-57);}.cls-62{fill:url(#linear-gradient-58);}.cls-63{fill:url(#linear-gradient-59);}.cls-64{fill:url(#linear-gradient-60);}.cls-65{fill:url(#linear-gradient-61);}.cls-66{fill:url(#linear-gradient-62);}.cls-67{fill:url(#linear-gradient-63);}.cls-68{fill:url(#linear-gradient-64);}.cls-69{fill:url(#linear-gradient-65);}.cls-70{fill:url(#linear-gradient-66);}.cls-71{fill:url(#linear-gradient-67);}.cls-72{fill:url(#linear-gradient-68);}.cls-73{fill:url(#linear-gradient-69);}.cls-74{fill:url(#linear-gradient-70);}.cls-75{fill:url(#linear-gradient-71);}.cls-76{fill:url(#linear-gradient-72);}.cls-77{fill:url(#linear-gradient-73);}.cls-78{fill:url(#linear-gradient-74);}.cls-79{fill:url(#linear-gradient-75);}.cls-80{fill:url(#linear-gradient-76);}.cls-81{fill:#bdd0fb;}.cls-82{fill:url(#linear-gradient-77);}.cls-83{opacity:0.3;}.cls-84{fill:url(#linear-gradient-78);}.cls-85{fill:url(#linear-gradient-79);}.cls-86{fill:url(#linear-gradient-80);}.cls-87{fill:url(#linear-gradient-81);}</style><linearGradient id="linear-gradient" x1="1095.15" y1="2928.72" x2="1459.99" y2="2928.72" gradientTransform="matrix(1, 0, 0, -1, 1696.2, 3910.67)" gradientUnits="userSpaceOnUse"><stop offset="0" stop-color="#dae3fe"/><stop offset="1" stop-color="#e9effd"/></linearGradient><linearGradient id="linear-gradient-2" x1="1095.15" y1="2874.1" x2="1459.99" y2="2874.1" xlink:href="#linear-gradient"/><linearGradient id="linear-gradient-3" x1="1095.15" y1="2819.48" x2="1459.99" y2="2819.48" xlink:href="#linear-gradient"/><linearGradient id="linear-gradient-4" x1="1095.15" y1="2764.86" x2="1459.99" y2="2764.86" xlink:href="#linear-gradient"/><linearGradient id="linear-gradient-5" x1="1487.94" y1="2817.22" x2="1610.34" y2="2817.22" xlink:href="#linear-gradient"/><linearGradient id="linear-gradient-6" x1="1640.06" y1="2817.22" x2="1762.44" y2="2817.22" xlink:href="#linear-gradient"/><linearGradient id="linear-gradient-7" x1="1792.18" y1="2817.18" x2="1914.57" y2="2817.18" xlink:href="#linear-gradient"/><linearGradient id="linear-gradient-8" x1="3184.12" y1="2747.36" x2="3306.54" y2="2747.36" gradientTransform="matrix(1, 0, 0, -1, 0, 3910.67)" xlink:href="#linear-gradient"/><linearGradient id="linear-gradient-9" x1="3336.25" y1="2747.36" x2="3458.66" y2="2747.36" gradientTransform="matrix(1, 0, 0, -1, 0, 3910.67)" xlink:href="#linear-gradient"/><linearGradient id="linear-gradient-10" x1="3488.36" y1="2747.36" x2="3610.78" y2="2747.36" gradientTransform="matrix(1, 0, 0, -1, 0, 3910.67)" xlink:href="#linear-gradient"/><linearGradient id="linear-gradient-11" x1="1758.5" y1="851.04" x2="-247.89" y2="2606.62" xlink:href="#linear-gradient"/><linearGradient id="linear-gradient-12" x1="-650.75" y1="2873.88" x2="-248.33" y2="2788.67" gradientTransform="matrix(1, 0, 0, -1, 1696.2, 3910.67)" gradientUnits="userSpaceOnUse"><stop offset="0" stop-color="#4f52ff"/><stop offset="1" stop-color="#4042e2"/></linearGradient><linearGradient id="linear-gradient-13" x1="784.15" y1="3477.51" x2="755.49" y2="2968.75" xlink:href="#linear-gradient-12"/><linearGradient id="linear-gradient-14" x1="-18.81" y1="3268.14" x2="702.29" y2="2002.63" xlink:href="#linear-gradient-12"/><linearGradient id="linear-gradient-15" x1="5019.9" y1="1340.81" x2="4614.58" y2="899.94" gradientTransform="matrix(1, 0.01, 0.01, -1, -3307.4, 3792.92)" gradientUnits="userSpaceOnUse"><stop offset="0" stop-color="#09005d"/><stop offset="1" stop-color="#1a0f91"/></linearGradient><linearGradient id="linear-gradient-16" x1="4888.23" y1="1308.6" x2="4924.22" y2="1308.6" gradientTransform="matrix(1, 0.01, 0.01, -1, -3307.4, 3792.92)" gradientUnits="userSpaceOnUse"><stop offset="0" stop-color="#febbba"/><stop offset="1" stop-color="#ff928e"/></linearGradient><linearGradient id="linear-gradient-17" x1="5055.04" y1="1849.19" x2="4704.33" y2="1373.83" xlink:href="#linear-gradient-15"/><linearGradient id="linear-gradient-18" x1="4930.78" y1="1426.27" x2="4521.28" y2="980.86" xlink:href="#linear-gradient-15"/><linearGradient id="linear-gradient-19" x1="4758.53" y1="1310.53" x2="4789.6" y2="1310.53" xlink:href="#linear-gradient-16"/><linearGradient id="linear-gradient-20" x1="4993.52" y1="1894.3" x2="4643.66" y2="1420.11" xlink:href="#linear-gradient-15"/><linearGradient id="linear-gradient-21" x1="18860.19" y1="734.87" x2="18924.38" y2="1044.17" gradientTransform="translate(20753.42 3910.67) rotate(180)" gradientUnits="userSpaceOnUse"><stop offset="0" stop-color="#ff928e"/><stop offset="1" stop-color="#fe7062"/></linearGradient><linearGradient id="linear-gradient-22" x1="5036.36" y1="2264.01" x2="5220.22" y2="2264.01" xlink:href="#linear-gradient-16"/><linearGradient id="linear-gradient-23" x1="229.83" y1="2371.1" x2="251.23" y2="2513.07" gradientTransform="matrix(1, 0, 0, -1, 1696.2, 3910.67)" xlink:href="#linear-gradient-16"/><linearGradient id="linear-gradient-24" x1="5219.48" y1="2390.77" x2="5271.76" y2="2471.16" xlink:href="#linear-gradient-16"/><linearGradient id="linear-gradient-25" x1="19032.6" y1="696.55" x2="19096.89" y2="1006.32" xlink:href="#linear-gradient-21"/><linearGradient id="linear-gradient-26" x1="4634.04" y1="1999.04" x2="4866.73" y2="1999.04" xlink:href="#linear-gradient-16"/><linearGradient id="linear-gradient-27" x1="4812.56" y1="2252.21" x2="4904.55" y2="2252.21" xlink:href="#linear-gradient-16"/><linearGradient id="linear-gradient-28" x1="203.46" y1="5903.84" x2="168.9" y2="6017.84" gradientTransform="matrix(0.75, -0.66, -0.66, -0.75, 5386, 6090.07)" xlink:href="#linear-gradient-16"/><linearGradient id="linear-gradient-29" x1="172.47" y1="6103.78" x2="201.51" y2="5938.1" gradientTransform="matrix(0.75, -0.66, -0.66, -0.75, 5386, 6090.07)" xlink:href="#linear-gradient-15"/><linearGradient id="linear-gradient-30" x1="168.07" y1="5904.23" x2="136.99" y2="6006.71" gradientTransform="matrix(0.75, -0.66, -0.66, -0.75, 5386, 6090.07)" xlink:href="#linear-gradient-16"/><linearGradient id="linear-gradient-31" x1="4649.36" y1="2223.27" x2="4779.83" y2="1679.65" gradientTransform="matrix(1, 0, 0, -1, -3009.46, 3910.67)" xlink:href="#linear-gradient-15"/><linearGradient id="linear-gradient-32" x1="4561.82" y1="2079.54" x2="4634.56" y2="2079.54" gradientTransform="matrix(1, 0, 0, -1, -3009.46, 3910.67)" xlink:href="#linear-gradient-16"/><linearGradient id="linear-gradient-33" x1="-95.07" y1="2166.98" x2="61.01" y2="2166.98" xlink:href="#linear-gradient"/><linearGradient id="linear-gradient-34" x1="-307.4" y1="1597.16" x2="-346.65" y2="1325.97" xlink:href="#linear-gradient-12"/><linearGradient id="linear-gradient-35" x1="-410.13" y1="1364.31" x2="-371.76" y2="1364.31" gradientTransform="matrix(1, 0, 0, -1, 1696.2, 3910.67)" xlink:href="#linear-gradient-16"/><linearGradient id="linear-gradient-36" x1="-115.59" y1="1569.51" x2="-154.93" y2="1297.75" xlink:href="#linear-gradient-12"/><linearGradient id="linear-gradient-37" x1="28.28" y1="1913.3" x2="-402.28" y2="1594.69" gradientTransform="matrix(1, 0, 0, -1, 1696.2, 3910.67)" xlink:href="#linear-gradient-15"/><linearGradient id="linear-gradient-38" x1="-228.39" y1="1361.04" x2="-182.58" y2="1361.04" gradientTransform="matrix(1, 0, 0, -1, 1696.2, 3910.67)" xlink:href="#linear-gradient-16"/><linearGradient id="linear-gradient-39" x1="-398.91" y1="1584.04" x2="146.2" y2="1959.88" gradientTransform="matrix(1, 0, 0, -1, 1696.2, 3910.67)" xlink:href="#linear-gradient-15"/><linearGradient id="linear-gradient-40" x1="-483.08" y1="2017.86" x2="-460.1" y2="2075.83" gradientTransform="matrix(1, 0, 0, -1, 1696.2, 3910.67)" xlink:href="#linear-gradient-16"/><linearGradient id="linear-gradient-41" x1="-328.34" y1="2190.47" x2="-401.1" y2="2004.21" gradientTransform="matrix(1, 0, 0, -1, 1696.2, 3910.67)" xlink:href="#linear-gradient-21"/><linearGradient id="linear-gradient-42" x1="-462.51" y1="2447.78" x2="-484.42" y2="1733.58" gradientTransform="matrix(1, 0, 0, -1, 1696.2, 3910.67)" gradientUnits="userSpaceOnUse"><stop offset="0" stop-color="#e1473d"/><stop offset="1" stop-color="#e9605a"/></linearGradient><linearGradient id="linear-gradient-43" x1="-289.9" y1="1792.52" x2="-184.09" y2="1792.52" gradientTransform="matrix(1, 0, 0, -1, 1696.2, 3910.67)" xlink:href="#linear-gradient-16"/><linearGradient id="linear-gradient-44" x1="1675.72" y1="2600.2" x2="1560.95" y2="2512.39" gradientTransform="matrix(0.99, -0.13, -0.13, -0.99, -39.46, 4571.85)" xlink:href="#linear-gradient-16"/><linearGradient id="linear-gradient-45" x1="1595.78" y1="2669.45" x2="1699.82" y2="2535.48" gradientTransform="matrix(0.99, -0.13, -0.13, -0.99, -39.46, 4571.85)" xlink:href="#linear-gradient-15"/><linearGradient id="linear-gradient-46" x1="1661.92" y1="2618.66" x2="1547.11" y2="2530.82" gradientTransform="matrix(0.99, -0.13, -0.13, -0.99, -39.46, 4571.85)" xlink:href="#linear-gradient-16"/><linearGradient id="linear-gradient-47" x1="23804.45" y1="18356.06" x2="23521.18" y2="18082.18" gradientTransform="matrix(-1.39, -0.07, 0.07, -1.39, 10511.54, 4979.71)" xlink:href="#linear-gradient-15"/><linearGradient id="linear-gradient-48" x1="13841.32" y1="12907.59" x2="13556.47" y2="12632.2" gradientTransform="translate(8579.29 267.32) rotate(-62.15) scale(1.39)" xlink:href="#linear-gradient-15"/><linearGradient id="linear-gradient-49" x1="264.18" y1="1526.12" x2="422.71" y2="1526.12" gradientTransform="matrix(1, 0, 0, -1, 1696.2, 3910.67)" xlink:href="#linear-gradient-16"/><linearGradient id="linear-gradient-50" x1="361.23" y1="1420.94" x2="337.52" y2="1057.34" xlink:href="#linear-gradient-12"/><linearGradient id="linear-gradient-51" x1="78.02" y1="1515.07" x2="412.57" y2="1515.07" gradientTransform="matrix(1, 0, 0, -1, 1696.2, 3910.67)" xlink:href="#linear-gradient-16"/><linearGradient id="linear-gradient-52" x1="284.49" y1="1692.69" x2="659.24" y2="1692.69" gradientTransform="matrix(1, 0, 0, -1, 1696.2, 3910.67)" xlink:href="#linear-gradient-15"/><linearGradient id="linear-gradient-53" x1="136.27" y1="1435.59" x2="112.61" y2="1072.76" xlink:href="#linear-gradient-12"/><linearGradient id="linear-gradient-54" x1="549.15" y1="2330.08" x2="492.92" y2="2034.65" gradientTransform="matrix(1, 0, 0, -1, 1696.2, 3910.67)" xlink:href="#linear-gradient-15"/><linearGradient id="linear-gradient-55" x1="924.19" y1="2889.32" x2="708.11" y2="2363.74" gradientTransform="matrix(1, 0, 0, -1, 1696.2, 3910.67)" xlink:href="#linear-gradient-21"/><linearGradient id="linear-gradient-56" x1="457.43" y1="1960.66" x2="434.46" y2="2108.05" gradientTransform="matrix(1, 0, 0, -1, 1696.2, 3910.67)" xlink:href="#linear-gradient-16"/><linearGradient id="linear-gradient-57" x1="1717.53" y1="3799.84" x2="1865.63" y2="3699.25" gradientTransform="matrix(0.6, -0.8, -0.8, -0.6, 4020.94, 5457.85)" xlink:href="#linear-gradient-16"/><linearGradient id="linear-gradient-58" x1="1816.76" y1="3921.34" x2="1761.2" y2="3629.44" gradientTransform="matrix(0.6, -0.8, -0.8, -0.6, 4020.94, 5457.85)" xlink:href="#linear-gradient-15"/><linearGradient id="linear-gradient-59" x1="1726.71" y1="3813.33" x2="1874.91" y2="3712.66" gradientTransform="matrix(0.6, -0.8, -0.8, -0.6, 4020.94, 5457.85)" xlink:href="#linear-gradient-16"/><linearGradient id="linear-gradient-60" x1="549.85" y1="1793.16" x2="864.11" y2="1793.16" gradientTransform="matrix(1, 0, 0, -1, 1696.2, 3910.67)" xlink:href="#linear-gradient-16"/><linearGradient id="linear-gradient-61" x1="534.23" y1="2025.85" x2="336.36" y2="1971.62" gradientTransform="matrix(1, -0.05, -0.05, -1, 1818.41, 4135.35)" xlink:href="#linear-gradient-15"/><linearGradient id="linear-gradient-62" x1="288.94" y1="1955.56" x2="147.16" y2="1805.72" gradientTransform="matrix(1, 0, 0, -1, 1696.2, 3910.67)" xlink:href="#linear-gradient-15"/><linearGradient id="linear-gradient-63" x1="4040.88" y1="1080.97" x2="4043" y2="857.42" gradientTransform="translate(6464.48 3910.67) rotate(180)" xlink:href="#linear-gradient-15"/><linearGradient id="linear-gradient-64" x1="3987.98" y1="1330.62" x2="3976.38" y2="1421.36" gradientTransform="translate(6464.48 3910.67) rotate(180)" xlink:href="#linear-gradient-16"/><linearGradient id="linear-gradient-65" x1="3744.01" y1="1078.09" x2="3746.12" y2="854.52" gradientTransform="translate(6464.48 3910.67) rotate(180)" xlink:href="#linear-gradient-15"/><linearGradient id="linear-gradient-66" x1="3738.79" y1="1299.52" x2="3727.49" y2="1387.85" gradientTransform="translate(6464.48 3910.67) rotate(180)" xlink:href="#linear-gradient-16"/><linearGradient id="linear-gradient-67" x1="3661.08" y1="1635.39" x2="4003.01" y2="1635.39" gradientTransform="translate(6464.48 3910.67) rotate(180)" xlink:href="#linear-gradient-15"/><linearGradient id="linear-gradient-68" x1="1247.56" y1="2489.62" x2="1163.08" y2="2373.09" gradientTransform="matrix(1, 0, 0, -1, 1696.2, 3910.67)" xlink:href="#linear-gradient-21"/><linearGradient id="linear-gradient-69" x1="1257.77" y1="2647.28" x2="780.22" y2="2070.12" xlink:href="#linear-gradient-42"/><linearGradient id="linear-gradient-70" x1="1050.17" y1="2039.4" x2="793.88" y2="1765.74" gradientTransform="matrix(1, 0, 0, -1, 1696.2, 3910.67)" xlink:href="#linear-gradient-16"/><linearGradient id="linear-gradient-71" x1="3966.16" y1="2078.66" x2="4256.93" y2="2078.66" gradientTransform="translate(6464.48 3910.67) rotate(180)" xlink:href="#linear-gradient-16"/><linearGradient id="linear-gradient-72" x1="3860.84" y1="2245.17" x2="3963.22" y2="2350.21" gradientTransform="translate(6464.48 3910.67) rotate(180)" xlink:href="#linear-gradient-16"/><linearGradient id="linear-gradient-73" x1="4008.56" y1="2416.54" x2="3881.11" y2="2247.92" gradientTransform="translate(6464.48 3910.67) rotate(180)" xlink:href="#linear-gradient-16"/><linearGradient id="linear-gradient-74" x1="3911.88" y1="2375.88" x2="4062.61" y2="2375.88" gradientTransform="translate(6464.48 3910.67) rotate(180)" xlink:href="#linear-gradient-15"/><linearGradient id="linear-gradient-75" x1="3822.37" y1="2282.97" x2="3924.69" y2="2387.94" gradientTransform="translate(6464.48 3910.67) rotate(180)" xlink:href="#linear-gradient-16"/><linearGradient id="linear-gradient-76" x1="1345.99" y1="2564.97" x2="872.56" y2="1992.8" xlink:href="#linear-gradient-42"/><linearGradient id="linear-gradient-77" x1="9734.73" y1="15809.03" x2="9522.84" y2="15293.6" gradientTransform="translate(6464.48 3910.67) rotate(180)" xlink:href="#linear-gradient-12"/><linearGradient id="linear-gradient-78" x1="-1294.92" y1="2400.13" x2="-1163.26" y2="2400.13" xlink:href="#linear-gradient"/><linearGradient id="linear-gradient-79" x1="-1391.86" y1="2401.19" x2="-1068.23" y2="2401.19" xlink:href="#linear-gradient"/><linearGradient id="linear-gradient-80" x1="-839.92" y1="2123.77" x2="-750.27" y2="2123.77" xlink:href="#linear-gradient"/><linearGradient id="linear-gradient-81" x1="-907.3" y1="2124.48" x2="-684.03" y2="2124.48" xlink:href="#linear-gradient"/></defs><title>Asset 1</title><g id="Layer_2" data-name="Layer 2"><g id="Layer_1-2" data-name="Layer 1"><g id="Background"><rect class="cls-1" width="3710" height="3710"/></g><g id="Illustration"><path class="cls-2" d="M2752.09,897.44l918.6-4.08a15.87,15.87,0,0,1,15.88,15.87v.24l-1.94,327.21a15.86,15.86,0,0,1-15.8,15.93h-.4c-81-2.47-911.22-13.3-927.1-12.63-15.68.67-7.16-257.73-4.85-327.07A15.87,15.87,0,0,1,2752.09,897.44Z"/><path class="cls-1" d="M3668.86,1240h-.11c-51.76-1.57-547.88-7.91-786.3-10.88-69.71-.88-119.2-1.51-132.39-1.7h-1.23l-.22-1.23c-5.63-32.35-5.54-140.5.28-312.75a3.32,3.32,0,0,1,3.27-3.23l918.61-4.08a3.2,3.2,0,0,1,2.37,1,3.28,3.28,0,0,1,1,2.38l-2,327.21A3.32,3.32,0,0,1,3668.86,1240Zm-917.52-15.62c14.84.21,63.46.83,131.17,1.69,238.43,3,734.54,9.32,786.35,10.87h.09c.08,0,.22-.14.22-.32l1.94-327.22-.34-1.84V909l-918.6,4.09a.33.33,0,0,0-.31.31c-5.73,169.93-5.91,277.31-.52,310.91Z"/><path class="cls-3" d="M2791.35,982h0c0,8.9,2.92,16,6.48,16h351.88c3.57,0,6.48-7.17,6.48-16h0c0-8.9-2.92-16-6.48-16H2797.83C2794.25,965.93,2791.35,973.1,2791.35,982Z"/><path class="cls-4" d="M2791.35,1036.57h0c0,8.84,2.92,16,6.48,16h351.88c3.57,0,6.48-7.18,6.48-16h0c0-8.9-2.92-16-6.48-16H2797.83C2794.25,1020.54,2791.35,1027.72,2791.35,1036.57Z"/><path class="cls-5" d="M2791.35,1091.18h0c0,8.9,2.92,16,6.48,16h351.88c3.57,0,6.48-7.18,6.48-16h0c0-8.84-2.92-16-6.48-16H2797.83C2794.25,1075.16,2791.35,1082.34,2791.35,1091.18Z"/><path class="cls-6" d="M2791.35,1145.8h0c0,8.9,2.92,16,6.48,16h351.88c3.57,0,6.48-7.18,6.48-16h0c0-8.9-2.92-16-6.48-16H2797.83C2794.25,1129.74,2791.35,1137,2791.35,1145.8Z"/><ellipse class="cls-1" cx="3245.33" cy="993.24" rx="61.21" ry="62.29"/><ellipse class="cls-1" cx="3397.45" cy="993.24" rx="61.21" ry="62.29"/><ellipse class="cls-1" cx="3549.58" cy="995.27" rx="61.21" ry="62.29"/><path class="cls-2" d="M3281.7,980.08c8.25,20.44-1.34,43.82-21.43,52.21a39.08,39.08,0,0,1-51.31-21.8c-8.26-20.44,1.34-43.82,21.43-52.22a38.77,38.77,0,0,1,14.94-3h2V945.12h-2c-27.19,0-49.21,22.47-49.19,50.14s22.08,50.08,49.27,50.06,49.21-22.47,49.19-50.14a50.74,50.74,0,0,0-3.76-19.16Z"/><path class="cls-2" d="M3417.74,1029.13a38.93,38.93,0,0,1-54.22-12.54,40.44,40.44,0,0,1,12.33-55.17,38.78,38.78,0,0,1,20.94-6.15h1.94V945.12h-1.94c-27.22,0-49.29,22.44-49.3,50.14s22.05,50.15,49.27,50.16a48.63,48.63,0,0,0,25.91-7.48Z"/><path class="cls-2" d="M3582.39,1017.77a38.89,38.89,0,0,1-54.62,10.58,40.44,40.44,0,0,1-10.4-55.57,39.12,39.12,0,0,1,32.5-17.51h1.94V945.12h-1.94c-27.22,0-49.29,22.45-49.29,50.14s22.05,50.16,49.27,50.16a49.06,49.06,0,0,0,40.6-21.71Z"/><g class="cls-7"><path class="cls-8" d="M3295.23,1081.91h-99.77a11.54,11.54,0,0,0,0,23.07h99.77a11.54,11.54,0,0,0,0-23.07Z"/><path class="cls-9" d="M3447.32,1081.91h-99.74a11.54,11.54,0,0,0,0,23.07h99.74a11.54,11.54,0,0,0,0-23.07Z"/><path class="cls-10" d="M3499.7,1105h99.75a11.54,11.54,0,0,0,0-23.07H3499.7a11.54,11.54,0,0,0,0,23.07Z"/><path class="cls-11" d="M3195.46,1117.8h99.74a11.45,11.45,0,0,1,11.34,11.54v67.93a11.44,11.44,0,0,1-11.34,11.53h-99.74a11.44,11.44,0,0,1-11.34-11.53v-67.93A11.45,11.45,0,0,1,3195.46,1117.8Z"/><path class="cls-12" d="M3347.59,1117.8h99.73a11.45,11.45,0,0,1,11.34,11.54v67.93a11.44,11.44,0,0,1-11.34,11.53h-99.73a11.43,11.43,0,0,1-11.34-11.53v-67.93A11.44,11.44,0,0,1,3347.59,1117.8Z"/><path class="cls-13" d="M3499.7,1117.8h99.74a11.45,11.45,0,0,1,11.34,11.54v67.93a11.44,11.44,0,0,1-11.34,11.53H3499.7a11.44,11.44,0,0,1-11.34-11.53v-67.93A11.45,11.45,0,0,1,3499.7,1117.8Z"/></g><path class="cls-14" d="M3104.66,2152.57c-257.36,616.65-942.88,962.06-1537.37,868.92-96.74-15.17-361.94-60.32-596.75-273.42-452-410.21-548.67-1222.48-184.08-1794.9,265.42-416.64,741.14-652.8,1193.15-641,97.37,2.55,470.52,18.23,798.45,293.41C2826.23,646,2932.47,742,3028.21,894.41,3253.05,1252.21,3272.38,1750.73,3104.66,2152.57Z"/><path class="cls-15" d="M1006.41,704.56l146.17,162.81c-91.47,70.21-148.84,208,4.27,371.78L951,1340.74C806.74,1083.66,827.14,880.56,1006.41,704.56Z"/><path class="cls-2" d="M920.32,1281.68l141.81,2.29,25.47-142.14c77.89,162.8,262,230.84,472.59,161.4l106.35,201.23C1362.56,1645.49,1054.85,1573.12,920.32,1281.68Z"/><path class="cls-16" d="M2109.63,1066.6C2224.58,835.37,2528,750,2746.18,876.7l221.12-74.49C2709,451.54,2239.64,518.08,1948.08,868.45Z"/><path class="cls-17" d="M2619.81,1311.38l93.83,223.06c342.38-145.13,446-636.54,136.87-853l2.25,144.53-145.48,30.81C2921.54,960.16,2826.06,1253.32,2619.81,1311.38Z"/><path class="cls-2" d="M2008.67,1374.48c324.36,237.4,608.23,268.35,834.5,79.71l-159.29-57.59,44.35-144.36c-198.62,140.27-383.2,94.63-560.39-49Z"/><path class="cls-2" d="M1006.41,704.56V860.93l146.17,6.44c94.79-62.56,232-57.51,404.82-1.25L1657.8,639.6C1395.23,525.21,1180,552.53,1006.41,704.56Z"/><path class="cls-18" d="M1557.4,866.14l-82.12-174.07,182.52-52.41c118.53,62.93,214,140,290.29,228.86,83.93,188.12,199.18,348.68,343.2,417.2l-189.08,2,29.15,167.84c-74.07-45.15-145.57-95.82-208.47-151.08l-142-256.88C1731.41,971.07,1662.29,908.76,1557.4,866.14Z"/><path class="cls-17" d="M1948.08,868.48c-55.54,60.44-91.9,149.53-144.08,212.84-83.24,101-187,231.37-374.37,248.4l152.92,80.52-91,151.91c305.49-61.77,519.24-264.57,618.11-495.55V844.3Z"/><path class="cls-19" d="M1596.47,2530.57s-4.42,24.14-6.71,48a16.4,16.4,0,0,0,14.59,18l.74,0c31.3,1.63,98.26,4.87,122.3,4a5.31,5.31,0,0,0,5.06-5.54,5.51,5.51,0,0,0-.35-1.76h0a12,12,0,0,0-6-6.54L1616,2534Z"/><path class="cls-20" d="M1593.16,2516.33l3.1,29s19.3,9.36,32.63-.85l-7.77-32.3Z"/><path class="cls-21" d="M1600.79,1972.78c-1.52,7.53-11.35,376.71,25.88,542.57a5.63,5.63,0,0,1-3.29,6.49,94.81,94.81,0,0,1-31.65,6.23,9.56,9.56,0,0,1-9.37-7c-10.69-38.49-62-231.37-67.26-415.18-5.83-205.39.07-7,.07-7L1520.9,1972Z"/><path class="cls-22" d="M1469.07,2541.94s-6.8,12.15-13.6,44.5a10.06,10.06,0,0,0,7.55,12c.34.07.68.13,1,.17,10.33,1.14,26.24,2.62,39,2.66a10,10,0,0,0,9.91-10,10.31,10.31,0,0,0,0-1.11c-1.3-11.87-5.52-31.32-19-46.58Z"/><path class="cls-23" d="M1463.56,2504.7l7.46,43.8s7.77,5.93,23.18,1.85l-3.31-47.09Z"/><path class="cls-24" d="M1447.17,1982.62c-33.54,194.5,2.37,481.53,14.86,537.81a8.64,8.64,0,0,0,6.88,6.7c5.83,1,15.36,2,24.82-.76a8,8,0,0,0,5.74-7.33c2.17-45.35,1.63-323.87,32.23-433.65a25,25,0,0,1,9.6-13.7l57.75-40.94,5-67Z"/><path class="cls-25" d="M1652.76,1615.45c-95-2.52-200.15,23.45-200.15,23.45-29.92,168-8.36,362.28-8.36,362.28,73.42,20.36,156.74-10.49,156.74-10.49,12.88-70.2,71.81-267.58,71.81-267.58,46.5-5.4,84.89-18.67,116.59-36.39-23.77-28.59-34.76-64.78-39.48-86.15C1716.14,1610.87,1682.08,1616.19,1652.76,1615.45Z"/><path class="cls-26" d="M1934.89,1475.68c-9.23-11.57-21.1-6.25-21.1-6.25-14.58,60-88.36,108-163.94,131.14,4.72,21.37,15.71,57.56,39.48,86.15C1915,1616.37,1934.89,1475.68,1934.89,1475.68Z"/><path class="cls-27" d="M1932.6,1478.57c1,3.18-10.42,7.92-17-5.12-.17-6.19-3.63-32.77.06-37.79,19.63-26.69,57.51-60,57.51-60,6.3,6.43,1,12.64,1,12.64l-18.33,19.14c3.74,7,8.34,13,10.43,21.52a26.32,26.32,0,0,1-2.72,19.1c-3.25,5.84-7.69,13.42-11.87,19.34C1943.73,1478.6,1932.6,1478.57,1932.6,1478.57Z"/><path class="cls-28" d="M1947.72,1419.88,1931,1434.05l-5.35,14.22,14.64,16.81s5.25-28.26,9-34.35S1951.15,1421.71,1947.72,1419.88Z"/><path class="cls-29" d="M1488.15,1732.93l-35.6-94s-89.39,60.53-104.7,138.24c16.77,1.41,47.25,6.15,77,21.75C1431.77,1762.25,1488.15,1732.93,1488.15,1732.93Z"/><path class="cls-30" d="M1564.92,1821.85s-100.22,56.36-133.4,7.09c-6.89-10.23-8.47-20.36-6.66-30-29.74-15.65-60.24-20.39-77-21.75a109.05,109.05,0,0,0,10.78,73.76c57.89,110.26,219.23-4,219.23-4Z"/><path class="cls-31" d="M1557.2,1536l-31.09,88.72a3.24,3.24,0,0,0,1.4,3.88c8.2,4.72,37.79,18.42,73.8-4.33a15.07,15.07,0,0,0,6.93-10.72l10.53-76.94Z"/><path class="cls-32" d="M1623.79,1454.18s32.62,64,28.12,89.61-45.67,23.42-81.4,2.19L1546,1477Z"/><path class="cls-33" d="M1572.42,1512.26a2.66,2.66,0,0,0,1.36-3.47c-.06-.12-.12-.25-.19-.36-2.63-4.17-7.53-12.65-9.06-20.06,0,0-5.94-3.95,15.28-8.9s52.86-12.64,59.67-30.91c6.64-17.8-9.94-62.94-37.4-27.38a2.55,2.55,0,0,1-3.61.48,3.05,3.05,0,0,1-.47-.48c-4.39-5.93-16-18.27-32.26-11-15.25,6.79-17.07,18.1-16.91,23.8a2.58,2.58,0,0,1-2.47,2.69,2.32,2.32,0,0,1-.59-.05c-7.67-1.56-26.07-3-34.85,16.13-7.23,15.77-2.71,24.79,1.43,29.21a2.64,2.64,0,0,1,0,3.69,2.53,2.53,0,0,1-1.08.64c-5.06,1.52-11.66,5.81-11.08,17.85.74,16.65,19,15.35,24.29,14.65a2.51,2.51,0,0,1,2.27.84c4.43,5.07,24.3,26.6,46,29.37a2.61,2.61,0,0,0,2.88-2.34,2.72,2.72,0,0,0-.12-1.13l-9.15-27.93a2.65,2.65,0,0,1,1.43-3.25Z"/><path class="cls-34" d="M1576.17,1516.25s-23.49-16.74-25.36-2.86,21.11,20.35,32.57,15.28Z"/><path class="cls-35" d="M1544.44,1910.91l54.6-194a5.57,5.57,0,0,1,4.7-4.08c9.9-1.16,38.56-4.47,71.65-7.32,39.84-3.43,86.16-6.2,113.83-3.84a5.64,5.64,0,0,1,5.12,6.1,5.55,5.55,0,0,1-.56,2.07c-15.74,32.39-80.45,164.13-112.85,207.3a5.55,5.55,0,0,1-4.5,2.24l-126.72-1.19a5.64,5.64,0,0,1-5.48-5.79A5.09,5.09,0,0,1,1544.44,1910.91Z"/><path class="cls-36" d="M1557.63,1864s-7.61-31.82-4.54-43.11,9-25.81,28.83-22.58,43.18,11.72,43.18,11.72-1.18,14.71-16.24,10l9.34,7.35s-1.33,11.77-14,5.49l8.72,9.77s-5.46,9.67-14.82,3.47S1584.17,1867.86,1557.63,1864Z"/><path class="cls-17" d="M1671.75,1763.4a16,16,0,1,0,16-16.31h0A16.17,16.17,0,0,0,1671.75,1763.4Z"/><path class="cls-37" d="M1605.21,1774.15l-4.08-1.23,11.12-38.38a17.3,17.3,0,0,1,12.93-12.24c35.24-7.49,128-9,132-9.07l.07,4.33c-1,0-96.32,1.58-131.17,9a13,13,0,0,0-9.71,9.23Z"/><path class="cls-2" d="M959.05,2317.22c-5.83,8.77-29,207.19-32.58,280.49a8.61,8.61,0,0,0,8.1,9.08H935a8.6,8.6,0,0,0,8.43-7.35l42.31-275.86Z"/><path class="cls-2" d="M1145,2317.22c5.83,8.77,29,207.19,32.57,280.49a8.61,8.61,0,0,1-8.1,9.08h-.43a8.58,8.58,0,0,1-8.42-7.35l-42.32-275.86Z"/><path class="cls-2" d="M924.05,2301.69v2.16c-.14,15.56,13,28.34,29.55,28.62l195.55,3.39c16.27.27,29.82-11.68,30.62-27l.1-2c.82-16-12.52-29.45-29.48-29.76l-195.65-3.57C938,2273.24,924.19,2285.89,924.05,2301.69Z"/><path class="cls-2" d="M1336,2590.45c-34.76,0-50.14-3-57-5.8a13.25,13.25,0,0,0,12.85,10.39h123a6,6,0,0,0,6-6.08,6.17,6.17,0,0,0-.22-1.6C1406.57,2588.5,1376.76,2590.45,1336,2590.45Z"/><path class="cls-38" d="M1420.58,2587.36a5.69,5.69,0,0,0-1-2.14c-9.36-12.17-28.17-31.28-53.79-30.92-37.5.54-50.58,4.68-79.67.24l-6.88,23.19a13.64,13.64,0,0,0-.2,6.92c6.88,2.77,22.26,5.8,57,5.8C1376.76,2590.45,1406.57,2588.5,1420.58,2587.36Z"/><path class="cls-39" d="M1294.52,2529.54l-8.45,29.21s18.7,8.66,35.15,1.71l3.22-25.3Z"/><path class="cls-2" d="M1549.41,2572.05c-27.1,22.16-40.94,29.61-48,31.85a13,13,0,0,0,16.39-.12l95.87-78.4a6.13,6.13,0,0,0,.93-8.53,6,6,0,0,0-1.14-1.11C1603.22,2525.57,1581.2,2546.06,1549.41,2572.05Z"/><path class="cls-40" d="M1613.45,2515.74a5.75,5.75,0,0,0-2.09-1c-14.76-3.47-41.14-6.31-60.87,10.3-28.91,24.32-36.56,35.87-62,51l8.84,22.37a13.34,13.34,0,0,0,4.07,5.5c7.07-2.24,20.91-9.69,48-31.85C1581.2,2546.06,1603.22,2525.57,1613.45,2515.74Z"/><path class="cls-41" d="M1114,2196.77s208.14,17.29,250.83,37.75S1330,2541.67,1330,2541.67s-11.66,5.69-37.48-2.5c0,0,26.51-211.59,6.8-257.43l-225.38-37.52Z"/><path class="cls-42" d="M1467.81,2535.73c1.94,1.79,20.68,40.28,20.68,40.28s20.87-4.6,25.13-18l-18.78-34.73Z"/><path class="cls-43" d="M988.62,2195a109.08,109.08,0,0,0-6.5,38.68,57.6,57.6,0,0,0,54.41,56.81l246.06,11.41a11.87,11.87,0,0,1,10.89,9c5.83,22.74,34,92.65,172.19,232.11a11,11,0,0,0,13.78,1.52l19.66-12.63a4.66,4.66,0,0,0,1.5-6.23l-143.27-249a55.52,55.52,0,0,0-33.68-25.42l-209.72-54.55Z"/><path class="cls-44" d="M1231.1,1806.1s-26.35,47.46-53.23,70.4l55.55,31.54s12.52-50.2,41.11-64.91Z"/><path class="cls-45" d="M984.15,2196.77s66.43,16.47,129.83,0c0,0,88.72-121.37,123-154.41,0,0,54.74,87.92,176.6,100.38l6.8-15.45s-97-45.48-126.88-115.44-41.86-99.74-69-118c-16.92-11.36-27-19.12-32.29-23.35a8.53,8.53,0,0,0-10-.64C1153.44,1887.73,1017.76,1982.3,984.15,2196.77Z"/><path class="cls-46" d="M1233.42,2040.66a4.25,4.25,0,0,1-3.38-1.7c-21.15-28.07-32.94-59-33.42-60.31a4.36,4.36,0,0,1,2.44-5.6,4.23,4.23,0,0,1,5.5,2.48h0c.12.31,11.87,31.11,32.24,58.14a4.39,4.39,0,0,1-.79,6.09,4.19,4.19,0,0,1-2.59.89Z"/><path class="cls-47" d="M1406.3,2119.22l13.72-3.73,41.64-9.81a19.06,19.06,0,0,1,14.65,2.52l35.8,22.92-98.89-.17Z"/><path class="cls-48" d="M1273,1735s25.61,43.34,30.06,67.23,11.57,38.92-15.21,47.47-51.68-2.27-67.3-24.62c0,0-24.4-34.41-22-50.16S1273,1735,1273,1735Z"/><path class="cls-49" d="M1227.64,1806.57l3.46-.47s-18.13-27.89-6.27-34.8,60.24-23.9,68.64-43.28c8.09-18.69-4-39.81-18.62-44.21a1.85,1.85,0,0,0-2.23,1.2l-.86,2.35a1.88,1.88,0,0,1-2.43,1.12,1.93,1.93,0,0,1-1.06-1h0a1.85,1.85,0,0,0-2.44-1,1.89,1.89,0,0,0-1,.93c-2.59,5.8-10.34,15.72-33.61,23.4-33,10.88-53.55,27.82-51,51.68a1.92,1.92,0,0,1-1.63,2.15,1.94,1.94,0,0,1-1.06-.18c-2.7-1.21-6.8-1.41-11.53,3.88-8.26,9.2-1.8,29.3,20.76,43.51a1.92,1.92,0,0,1,.66,2.61,2.51,2.51,0,0,1-.35.44c-3.38,3-8.13,9.49,7.14,15.34,15.61,6,24.13,4,27.28,2.67a1.93,1.93,0,0,0,1.16-2.15l-4-20.91a1.91,1.91,0,0,1,1.49-2.24l.11,0Z"/><path class="cls-50" d="M1229.08,1810.87s-11.3-28.36-23.17-18.39,11,32,21.52,31.71Z"/><path class="cls-51" d="M1368.1,2150.86h.48l211.26-.21a9.61,9.61,0,0,0,.61-19.21c-.2,0-.4,0-.61,0l-211.26.22a9.6,9.6,0,0,0-.46,19.19Z"/><path class="cls-52" d="M1661.65,1940.32l-.21.45-88.88,195a9.67,9.67,0,0,0,4.58,12.76,9.38,9.38,0,0,0,12.54-4.67l88.89-195a9.69,9.69,0,0,0-4.73-12.71,9.37,9.37,0,0,0-12.19,4.18Z"/><rect class="cls-2" x="2192.56" y="2346.86" width="22.3" height="245.38"/><path class="cls-2" d="M2301.35,2597h-195.3a14.63,14.63,0,0,1,14.5-14.77h166.27a14.64,14.64,0,0,1,14.52,14.77Z"/><path class="cls-2" d="M2108.77,2291.88h197.58a24.19,24.19,0,0,1,24,24.4v22.06a24.19,24.19,0,0,1-24,24.4H2108.77a24.19,24.19,0,0,1-24-24.4v-22.06A24.19,24.19,0,0,1,2108.77,2291.88Z"/><path class="cls-53" d="M2039.1,2183.25s-33.13,5.22-70.39,30.56a19.07,19.07,0,0,0-8.2,18.07c4.46,35.95,22.81,152.33,83.28,266a29,29,0,0,1,2.7,19.64l-10.5,49.76-19.49,18.59h50.19l33.42-92-14.3-4.61a27.45,27.45,0,0,1-18.88-25.7l-1.67-98.72c1.43-44-26.5-74.33-26.5-74.33l80.15-3.95Z"/><path class="cls-54" d="M1996.9,2594.84c-4.57,6.08,49.19,14.12,76.36.8,0,0,37.65-66.67,37.65-101,0,0-3-7-25.1-5.42,0,0-12.63,78.95-26,87.79s-37.35.89-37.35.89S2003.64,2585.85,1996.9,2594.84Z"/><path class="cls-55" d="M2108.77,2291.88c-.42-.75-86.3-10.5-86.3-10.5s2.81,26.56-6,63.14-134.86,195-134.86,195l13.22,42.65c-40.88,14.48-81.08,16.8-120.64,7.38l81.92-50s76.68-265.85,123.64-313.31l86.08-30.3Z"/><path class="cls-56" d="M2301.35,2137.17s49.47,74.87,53.53,109-13.6,48-65.46,50.32-190.44,2.26-190.44,2.26L1980.69,2196s86.21-31.3,108.61-40.15S2301.35,2137.17,2301.35,2137.17Z"/><path class="cls-57" d="M1889.87,2567.84s14.23,14,4.61,29.66c0,0-112.71,20.33-143.35,11.11,0,0,6.35-14.77,40.81-31.57l-2.55,2a4.26,4.26,0,0,0-.79,5.88,4.12,4.12,0,0,0,3.51,1.65C1814.85,2585.17,1861.85,2581,1889.87,2567.84Z"/><path class="cls-58" d="M2087,1662.26c101.13-17.49,148.74,66.44,145.26,84a3.23,3.23,0,0,0,2.56,3.76,3.1,3.1,0,0,0,1.42-.06c11.66-3.19,37.26-7.19,53.16,13.08,14,17.91,3.54,34.79-5,44.07a3.28,3.28,0,0,0,.05,4.58,3.14,3.14,0,0,0,2.61.91c21.38-2.74,67.74-3.4,75.32,40.81,7.09,41.24-21.12,52.87-37.89,56.14a3.26,3.26,0,0,0-1.06,5.94c8.35,5.39,18,16.52,14.11,38.49-6.12,34.43-72.46,31.64-80.22,31.16a3.12,3.12,0,0,1-1.38-.42l-106.25-61.67a3.27,3.27,0,0,1-1.57-2.26l-21.45-126.08a3.32,3.32,0,0,1,.84-2.81l-69.26-99.48C2033.17,1688.72,2085.85,1662.46,2087,1662.26Z"/><path class="cls-59" d="M2167.55,2127.25s-57.61-55.83-86-92.81a79.52,79.52,0,0,1-13-70.6c12.94-44.39,36-90.37,38.05-97.52,3.21-11,67.81-10.51,67.81-10.51s127.12,84,177.06,226.16l-56.09,17.8s-33.19-56.66-66-92.69c0,0,56.74,76.28,58.74,107.51Z"/><path class="cls-60" d="M2098.76,1805c.68,2.28,17.54,59.16,18.86,60.32s37,3.12,53.76-8.55L2129.77,1774Z"/><path class="cls-61" d="M2031.18,1731.93s-8.15,32.63,14.39,76.42,48.06,43.78,62,29.75,31.15-37.83,27.07-80.21S2043,1690.48,2031.18,1731.93Z"/><path class="cls-62" d="M2103.47,1760.19s-37.4-58.19-72.48-12.39l-.64,16.65s-41.07-4.94-33.89-43.28,42.7-62.3,88.42-45.69,71.9,33.61,74.82,67-23.12,26-23.12,26-8.5-23.47-20.59-25.92-8.95,15.82-8.95,15.82Z"/><path class="cls-63" d="M2113.05,1759.41s-19.43-29.8.47-34.24,16.8,29,14.66,41.42Z"/><path class="cls-64" d="M2050.18,2131.39l42.33-41.53,58.56,25.18s58.29,9.19,91.64,0l33.36-9.19,75.38-23.89L2363.3,2116a20.72,20.72,0,0,1-7.37,23.55c-6.52,4.72-14.16,9.89-19,12.07-9.93,4.42-244.73-3-244.73-3Z"/><path class="cls-65" d="M2210.41,2151a5.23,5.23,0,0,1-.56,0l-245.54-.27a11.18,11.18,0,0,1,0-22.36l245.54.26a11.19,11.19,0,0,1,.54,22.36Z"/><path class="cls-66" d="M1743.53,1924.1H1948a39,39,0,0,1,35.25,22.74l94.53,204H1823.71a23.72,23.72,0,0,1-22-15.25l-73.31-188.76a16.73,16.73,0,0,1,9.21-21.57A16,16,0,0,1,1743.53,1924.1Z"/><path class="cls-17" d="M1887.59,2028.69c4.43,14,1.16,27.62-7.31,30.39s-18.93-6.33-23.32-20.34-1.16-27.62,7.31-30.39S1883.16,2014.66,1887.59,2028.69Z"/><path class="cls-67" d="M2490.31,2566a309.54,309.54,0,0,1,3.58,31.86,13.63,13.63,0,0,1-12.14,14.47c-25.14,2.48-82.34,7.06-118.87,1.7a6.27,6.27,0,0,1-3.37-10.73c15.07-14.28,51.44-42.07,111.31-48.14Z"/><path class="cls-68" d="M2502.79,2533.22l-12.7,31.69a10.34,10.34,0,0,1-10.68,6.56,55.6,55.6,0,0,1-10.38-2,13.89,13.89,0,0,1-9.08-17.25l9.59-32.63Z"/><path class="cls-69" d="M2720.05,2591.29s-25.45,21.67-35.36,49.44a11.91,11.91,0,0,0,7.26,15.06,11.47,11.47,0,0,0,3.76.64h52.37a12.45,12.45,0,0,0,12.38-12.53,12.94,12.94,0,0,0-.18-2.16C2756.94,2622.56,2747.33,2591.37,2720.05,2591.29Z"/><path class="cls-70" d="M2751.61,2563.09s-5.14,23.15-9.1,38.46a4.85,4.85,0,0,1-6,3.42l-.3-.09c-7.91-2.89-14.37-4.16-19-3.52a3.73,3.73,0,0,1-4.07-3.37c0-.14,0-.27,0-.4l-.5-38.45Z"/><path class="cls-71" d="M2616.24,2042.16l-154.77,480.53s29.68,19.78,43.82,19l183.84-386.2s32.17,237.93,16.58,408.76l52.66,4.08s85.62-436.52,20.76-586Z"/><path class="cls-17" d="M2688.13,2151.31h.19a1.54,1.54,0,0,0,1.31-1.71l-6-48.52a1.49,1.49,0,0,0-1.67-1.32,1.51,1.51,0,0,0-1.3,1.7h0l6,48.51A1.5,1.5,0,0,0,2688.13,2151.31Z"/><path class="cls-72" d="M2587.22,1619.34s125.39,11.34,107.65,102.26c0,0,69.32,132.74,101.73,289.11a9.19,9.19,0,0,1-7.08,10.83l-.25,0L2580.44,2058a11.25,11.25,0,0,1-12.78-8.41l-49.89-196.24-19.44,91.25-61.77-16.39,52-268.1S2495.81,1621,2587.22,1619.34Z"/><path class="cls-73" d="M2516.71,1844.59h.33a1.57,1.57,0,0,0,1.18-1.88h0l-17.4-81.33a1.55,1.55,0,0,0-1.85-1.21,1.58,1.58,0,0,0-1.19,1.88l17.41,81.35A1.55,1.55,0,0,0,2516.71,1844.59Z"/><path class="cls-74" d="M2529.31,2086.64a29.35,29.35,0,0,1,21.57-2.85l14.57,3.68a5.25,5.25,0,0,0,6.38-3.89,5.54,5.54,0,0,0,.12-.71l15-136.19c18.8,9.09,45.92,8,54.87,7.34l-34.61,160.55H2486.11Z"/><path class="cls-75" d="M2207.56,1791.25l3.66-12.38a24.27,24.27,0,0,1,14.07-15.66l66.2-27.09s1-8.65-14-14.52-11.48-22.95-11.48-22.95,20.48,9.5,50.46,24.58c17.13,8.62,26.75,23.84,31.86,35.3l150,186.1-17.6,12.31a46.53,46.53,0,0,1-65.4-12.31,49.75,49.75,0,0,1-2.81-4.72l-81.23-158.6C2290.48,1793.81,2249.2,1796.19,2207.56,1791.25Z"/><path class="cls-76" d="M2546.59,1532.53l38.58,109.85s-34.16,27.17-59.08,18l-19.43-63S2521.5,1520.44,2546.59,1532.53Z"/><path class="cls-77" d="M2431.5,1493.09c0,1.69,37.14,107,37.14,107l58.66-22.87-20.64-105.15S2431.5,1464.75,2431.5,1493.09Z"/><path class="cls-78" d="M2496.37,1497.71l15.12,54.49a8.41,8.41,0,0,1,.3,2.12c0,4.45-1.08,19.78-16.39,17.66-13.89-1.89-26.59-3.4-34.67.48a8,8,0,0,0-4,9.83c3.37,9.56,11.38,31,21.12,48.51a7.7,7.7,0,0,0,10,3.25c11-5.1,33.95-16.52,50.29-30.1a8,8,0,0,0,2.75-7.59c-2.57-13.95-10.23-56.36-10.57-68.49-.31-11.41,12.26-20.11,17.8-23.38a7.74,7.74,0,0,0,3.6-4.94c1.73-7.34,3.21-24-17.61-27.61a7.89,7.89,0,0,1-6.37-9.11,2.87,2.87,0,0,1,.05-.31c1.76-8.78,1.2-21.71-15.18-26.46-16.66-4.84-27.13,5.37-32.45,13.19a7.69,7.69,0,0,1-9.64,2.61c-1.95-.89-4.35-.93-6.9,1.25a7.56,7.56,0,0,1-10.76-1.12c-.15-.2-.3-.4-.43-.61-4.86-7.26-13.69-14.53-28.62-9.61-26.49,8.72-25.26,39.81-15.54,56.72s37.89,5.77,51.26-5.42c10.15-8.52,25.6-3.42,32.43-.49A7.83,7.83,0,0,1,2496.37,1497.71Z"/><path class="cls-79" d="M2535.6,1547.77s-15.68-30.19-5.31-39.67,27.94-7.91,27.47,15.67C2557.17,1553.14,2535.6,1547.77,2535.6,1547.77Z"/><path class="cls-80" d="M2629.64,1956.07a145.3,145.3,0,0,0,15.33-.75l1.11-.11,45.66-216.65a1.57,1.57,0,0,0-1-2,1.58,1.58,0,0,0-2,1.3l-45.19,214.39c-6.8.6-43.08,3-62.24-10.75l39.55-188.22-8.24-15.82a1.55,1.55,0,0,0-2.11-.66,1.59,1.59,0,0,0-.64,2.14l7.77,14.84-39.73,189.08.79.61C2592.45,1954.06,2614.74,1956.07,2629.64,1956.07Z"/><path class="cls-17" d="M1260.8,2616.56a7.32,7.32,0,0,1-3.14-.72c-4-1.92-5.89-7.13-4.16-11.6l166.85-430.83c1.73-4.48,6.41-6.54,10.45-4.61s5.9,7.12,4.16,11.6l-166.84,430.82A8,8,0,0,1,1260.8,2616.56Z"/><path class="cls-17" d="M1448.77,2616.56a8,8,0,0,1-7.32-5.34L1274.61,2180.4c-1.74-4.48.12-9.68,4.16-11.6s8.74.13,10.45,4.61l166.85,430.83c1.74,4.47-.13,9.68-4.16,11.6A7.26,7.26,0,0,1,1448.77,2616.56Z"/><path class="cls-17" d="M2393.17,2616.56a7.3,7.3,0,0,1-3.15-.72c-4-1.92-5.9-7.13-4.16-11.6l166.85-430.83c1.73-4.48,6.41-6.54,10.45-4.61s5.9,7.12,4.16,11.6l-166.85,430.82A8,8,0,0,1,2393.17,2616.56Z"/><path class="cls-17" d="M2581.12,2616.56a8,8,0,0,1-7.31-5.34L2407,2180.4c-1.74-4.48.13-9.68,4.16-11.6s8.75.13,10.46,4.61l166.84,430.83c1.74,4.47-.12,9.68-4.16,11.6A7.26,7.26,0,0,1,2581.12,2616.56Z"/><path class="cls-81" d="M2369,2143H2610.6v-25.38H2369C2374.12,2117.61,2374.12,2143,2369,2143Z"/><path class="cls-82" d="M2607.74,2143a2.93,2.93,0,0,0,2.91-2.92v-19.53a2.94,2.94,0,0,0-2.91-3H2364.45a2.87,2.87,0,0,1,0-5.74h260a10.53,10.53,0,0,1,10.44,10.61h0v16.23a9.93,9.93,0,0,1-9.84,10H2364.45a2.87,2.87,0,0,1,0-5.74Z"/><path class="cls-17" d="M2645.64,2160.1c.81-2.83-.3-5.77-3-8a17.67,17.67,0,0,0-11-3.51h-1448c-5.63,0-10.86,1.92-13.89,5.13s-3.43,7.21-1.08,10.66l15.7,22.92c3.59,5.25,11.37,8.61,19.94,8.61H2621.64c8,0,14.82-3.82,16.33-9.1Z"/><g class="cls-83"><path class="cls-81" d="M830.86,1601.08a9.75,9.75,0,0,1-7.43-11.53v0c2.1-10.26,3.79-20.77,5-31.22a9.65,9.65,0,0,1,10.5-8.54h.18a9.75,9.75,0,0,1,8.38,10.88c-1.3,11-3.08,22.06-5.3,32.86a9.61,9.61,0,0,1-10.35,7.72A8.62,8.62,0,0,1,830.86,1601.08Zm.19-94.08c-.18-10.53-.79-21.15-1.84-31.58a9.6,9.6,0,1,1,19.09-2c1.1,11,1.75,22.15,2,33.22a9.69,9.69,0,0,1-9.44,9.89,10.65,10.65,0,0,1-1.13,0,9.71,9.71,0,0,1-8.63-9.55Zm-10.45-82.18c-2.46-10.19-5.4-20.41-8.74-30.35a9.8,9.8,0,0,1,6-12.38h0a9.56,9.56,0,0,1,12.18,6.1c3.5,10.48,6.59,21.23,9.18,32a9.8,9.8,0,0,1-7,11.86h0a9.42,9.42,0,0,1-3.26.24,9.67,9.67,0,0,1-8.32-7.44Zm-28.25-77.74c-4.65-9.38-9.72-18.67-15.16-27.61a9.87,9.87,0,0,1,3.13-13.44,9.51,9.51,0,0,1,13.2,3.19c5.71,9.42,11.08,19.2,16,29.07a9.83,9.83,0,0,1-4.23,13.1l0,0a9.44,9.44,0,0,1-5.27,1,9.57,9.57,0,0,1-7.62-5.31Zm-44.56-69.39c-6.56-8.07-13.6-16-20.8-23.51a9.88,9.88,0,0,1,.1-13.8l0,0a9.46,9.46,0,0,1,13.55.08l.06.06c7.61,7.91,15,16.23,21.89,24.72a9.87,9.87,0,0,1-1.29,13.73h0a9.58,9.58,0,0,1-13.54-1.25Zm-58.54-57.62c-8.16-6.42-16.71-12.55-25.39-18.24a9.88,9.88,0,0,1-2.93-13.48l0,0a9.49,9.49,0,0,1,13.24-3h0c9.13,6,18.12,12.45,26.72,19.19a9.91,9.91,0,0,1,1.74,13.71,9.5,9.5,0,0,1-13.42,1.81ZM338.5,1156.29a9.79,9.79,0,0,1,6-12.36h0c10.28-3.54,20.86-6.66,31.43-9.28a9.58,9.58,0,0,1,11.6,7.15v0a9.77,9.77,0,0,1-7,11.79h0c-10,2.5-20.08,5.47-29.85,8.82a9.3,9.3,0,0,1-4,.47A9.62,9.62,0,0,1,338.5,1156.29Zm281.16,20.77c-9.36-4.4-19-8.45-28.73-12a9.81,9.81,0,0,1-5.75-12.5,9.56,9.56,0,0,1,12.28-5.87c10.21,3.76,20.41,8,30.26,12.66a9.84,9.84,0,0,1,4.68,13,9.65,9.65,0,0,1-12.74,4.82Zm-199.91-40.92a9.75,9.75,0,0,1,8.6-10.69c10.8-1.09,21.79-1.73,32.67-1.89a9.64,9.64,0,0,1,9.71,9.58v0a9.69,9.69,0,0,1-9.45,9.88c-10.33.16-20.77.77-31.09,1.81a9.08,9.08,0,0,1-1.95,0,9.69,9.69,0,0,1-8.49-8.67ZM542.4,1151c-10.1-2.15-20.4-3.9-30.66-5.18a9.77,9.77,0,0,1,2.13-19.41h.21c10.79,1.34,21.64,3.18,32.26,5.45a9.77,9.77,0,0,1,7.42,11.57,9.63,9.63,0,0,1-10.34,7.7,2.51,2.51,0,0,1-1,0Z"/><path class="cls-81" d="M285,1190.61a9.32,9.32,0,0,0,5.61-1.17c4.33-2.45,8.75-4.84,13.22-7.12a9.83,9.83,0,0,0,4.27-13.09h0a9.49,9.49,0,0,0-12.85-4.36l0,0c-4.68,2.39-9.36,4.94-13.91,7.48a9.84,9.84,0,0,0-3.73,13.28A9.54,9.54,0,0,0,285,1190.61Z"/></g><g class="cls-83"><path class="cls-81" d="M105,1425.28a9.63,9.63,0,0,0,10.23-7.21c1.26-4.87,2.66-9.79,4.13-14.63a9.79,9.79,0,0,0-6.31-12.21h0a9.56,9.56,0,0,0-12,6.42h0c-1.55,5.09-3,10.27-4.35,15.39a9.79,9.79,0,0,0,6.8,12A11,11,0,0,0,105,1425.28Z"/><path class="cls-81" d="M409.34,1899.15a9.73,9.73,0,0,1-8.06-11.09v0a9.62,9.62,0,0,1,10.92-8.19c10,1.53,20.17,2.66,30.41,3.36a9.77,9.77,0,0,1-1.27,19.49h0q-6.65-.46-13.24-1.14C421.81,1900.91,415.51,1900.1,409.34,1899.15Zm74.05-5.57a9.7,9.7,0,0,1,8.91-10.41h0c10.16-.7,20.41-1.86,30.41-3.42a9.61,9.61,0,0,1,10.94,8.16h0a9.74,9.74,0,0,1-8,11.14c-10.56,1.65-21.38,2.86-32,3.61a11.22,11.22,0,0,1-1.64,0A9.7,9.7,0,0,1,483.39,1893.58Zm-125.1-5.93c-10.24-3.08-20.49-6.64-30.46-10.59a9.82,9.82,0,0,1-5.5-12.62l0,0a9.54,9.54,0,0,1,12.42-5.55c9.48,3.76,19.2,7.14,28.93,10.06a9.8,9.8,0,0,1,6.49,12.13A9.6,9.6,0,0,1,360,1888a9.12,9.12,0,0,1-1.73-.33Zm206.43-6.82a9.8,9.8,0,0,1,6.45-12.14c9.72-3,19.43-6.36,28.91-10.14a9.54,9.54,0,0,1,12.44,5.51h0a9.82,9.82,0,0,1-5.42,12.65c-10,4-20.19,7.58-30.44,10.68a9.47,9.47,0,0,1-3.7.37,9.67,9.67,0,0,1-8.24-7Zm-284.15-26.46c-9.32-5.29-18.54-11.07-27.42-17.16a9.87,9.87,0,0,1-2.6-13.54,9.48,9.48,0,0,1,13.31-2.65h0c8.43,5.78,17.18,11.26,26,16.28a9.84,9.84,0,0,1,3.72,13.27h0a9.58,9.58,0,0,1-9.36,4.94A9.48,9.48,0,0,1,280.57,1854.37Zm-68.68-49.81c-8-7.25-15.74-14.93-23.08-22.82a9.88,9.88,0,0,1,.32-13.8l.05,0a9.48,9.48,0,0,1,13.56.33l0,0c7,7.5,14.36,14.84,21.94,21.69a9.9,9.9,0,0,1,.79,13.8l0,0a9.54,9.54,0,0,1-13.6.76Zm-56.35-63.85c-6.24-8.9-12.18-18.07-17.65-27.39a9.85,9.85,0,0,1,3.3-13.38h0a9.48,9.48,0,0,1,13.14,3.35v0c5.21,8.9,10.85,17.61,16.78,26a9.87,9.87,0,0,1-2.19,13.62h0a9.4,9.4,0,0,1-6.56,1.78,9.51,9.51,0,0,1-6.87-4Zm-41.35-74.84c-4.19-10-8-20.35-11.33-30.65A9.79,9.79,0,0,1,109,1622.9h0a9.57,9.57,0,0,1,12.11,6.23c3.16,9.82,6.8,19.61,10.76,29.14a9.84,9.84,0,0,1-5,12.83l0,0a9.41,9.41,0,0,1-4.71.72,9.59,9.59,0,0,1-7.91-6ZM90,1583.57c-1.94-10.69-3.39-21.61-4.41-32.45a9.71,9.71,0,0,1,8.63-10.64h0a9.62,9.62,0,0,1,10.46,8.78h0c1,10.29,2.38,20.65,4.18,30.8a9.76,9.76,0,0,1-7.74,11.35h0a9.33,9.33,0,0,1-2.69.1,9.64,9.64,0,0,1-8.45-8ZM84.16,1498c.32-8,.88-16.09,1.67-24,.29-2.88.6-5.74,1-8.6a9.52,9.52,0,0,1,10.47-8.52l.22,0a9.71,9.71,0,0,1,8.34,10.86h0c-.33,2.73-.63,5.45-.9,8.19-.75,7.55-1.28,15.25-1.59,22.85a9.65,9.65,0,0,1-10,9.36h-.6A9.7,9.7,0,0,1,84.12,1498Z"/><path class="cls-81" d="M648.91,1855a9.39,9.39,0,0,0,5.65-1.2c4.53-2.59,9.1-5.33,13.61-8.13a9.86,9.86,0,0,0,3.12-13.42h0a9.47,9.47,0,0,0-13.17-3.2h0c-4.24,2.66-8.57,5.26-12.87,7.73a9.86,9.86,0,0,0-3.67,13.29h0A9.56,9.56,0,0,0,648.91,1855Z"/></g><path class="cls-81" d="M693.51,1693.83a4.63,4.63,0,0,0,.85-5.23l-23.9-49.93a244.56,244.56,0,0,0,29.5-72.42l51.56-18.09a4.57,4.57,0,0,0,3-4.32v-66.63a4.56,4.56,0,0,0-3-4.31L700,1454.81a244.58,244.58,0,0,0-29.51-72.42l23.9-49.93a4.63,4.63,0,0,0-.86-5.22l-46.3-47.11a4.42,4.42,0,0,0-5.14-.87L593,1303.59a235.19,235.19,0,0,0-71.16-30L504,1221.09a4.51,4.51,0,0,0-4.25-3.08H434.33a4.49,4.49,0,0,0-4.24,3.08l-17.78,52.48a234.9,234.9,0,0,0-71.15,30l-49.08-24.32a4.4,4.4,0,0,0-5.13.87l-46.3,47.11a4.63,4.63,0,0,0-.85,5.23l23.91,49.93a244.29,244.29,0,0,0-29.5,72.42l-51.56,18.09a4.56,4.56,0,0,0-3,4.32v66.63a4.56,4.56,0,0,0,3,4.31l51.57,18.09a244.31,244.31,0,0,0,29.51,72.42l-23.9,49.93a4.61,4.61,0,0,0,.86,5.22L287,1741a4.43,4.43,0,0,0,5.13.87l49.07-24.34a234.69,234.69,0,0,0,71.16,30L430.14,1800a4.48,4.48,0,0,0,4.23,3.08h65.47a4.5,4.5,0,0,0,4.25-3.08l17.77-52.48a235,235,0,0,0,71.16-30l49.07,24.33a4.45,4.45,0,0,0,5.14-.87Z"/><path class="cls-84" d="M451,1575.49c-35.21-9.09-56.55-45.47-47.71-81.33a66.46,66.46,0,0,1,30.12-41.11,64.36,64.36,0,0,1,49.84-7.44c35.21,9.09,56.56,45.47,47.7,81.33-8,32.16-37.94,53.52-70.39,50.25A66,66,0,0,1,451,1575.49Zm-9.72-109A51,51,0,0,0,418.21,1498c-6.78,27.49,9.58,55.38,36.58,62.35s54.42-9.75,61.27-37.23-9.58-55.38-36.58-62.35a49.76,49.76,0,0,0-38.25,5.7Z"/><path class="cls-85" d="M449.63,1673.28a163.43,163.43,0,0,0,16.6.87h0q2.64,0,5.28-.09a161.73,161.73,0,0,0,25.76-3l.34-.06,1-.21,1.94-.4a3.93,3.93,0,0,0,3-3.42,4.16,4.16,0,0,0-.06-1.22,3.84,3.84,0,0,0-4.56-3,151.89,151.89,0,0,1-32.64,3.52c-52.74,0-101.81-27.45-130.09-72.76a157.94,157.94,0,0,1-24.06-84,160.65,160.65,0,0,1,.79-16.12,156.84,156.84,0,0,1,44.34-94.8,151.81,151.81,0,0,1,108.9-46c85,0,154.14,70.36,154.14,156.85,0,5.31-.26,10.63-.78,15.92a158.2,158.2,0,0,1-21,64.62,3.82,3.82,0,0,0-.52,1.61,3.91,3.91,0,0,0,1.84,3.75,3.86,3.86,0,0,0,5.27-1.34A167.18,167.18,0,0,0,628,1509.46c0-90.81-72.63-164.67-161.82-164.66A159.32,159.32,0,0,0,351.73,1393a164.53,164.53,0,0,0-46.55,99.52c-.56,5.62-.84,11.27-.84,16.92a165.08,165.08,0,0,0,47.41,116.44A159.4,159.4,0,0,0,449.63,1673.28Z"/><g class="cls-83"><path class="cls-81" d="M1132.18,1890.8a5.91,5.91,0,0,0,6.08-3.73c2-4.74,3.68-9.61,5.29-14.46a6,6,0,0,0-3.71-7.64,5.89,5.89,0,0,0-7.51,3.76h0c-1.54,4.63-3.24,9.27-5,13.8a6.08,6.08,0,0,0,3.22,7.89l0,0A6.16,6.16,0,0,0,1132.18,1890.8Z"/><path class="cls-81" d="M1144.8,1846.32a6,6,0,0,1-4.6-7.13h0q2.49-12.4,3.75-25c.17-1.77.33-3.54.47-5.32a6,6,0,0,1,6.39-5.52,6.2,6.2,0,0,1,5.43,6.49c-.15,1.86-.31,3.72-.5,5.56a263.36,263.36,0,0,1-3.94,26.23,5.93,5.93,0,0,1-6.39,4.79Zm.2-68.08a257.06,257.06,0,0,0-3.11-30.45,6,6,0,0,1,4.86-6.92,6,6,0,0,1,6.8,4.94,267.08,267.08,0,0,1,3.25,31.94,6,6,0,0,1-5.67,6.28h0a5.71,5.71,0,0,1-6.13-5.79Zm-9.9-60.31a247.64,247.64,0,0,0-10.37-28.76,6.07,6.07,0,0,1,3-7.91,5.87,5.87,0,0,1,7.77,3.1,263.14,263.14,0,0,1,10.89,30.16,6,6,0,0,1-4,7.5h0a5.86,5.86,0,0,1-2.28.22,6,6,0,0,1-5.06-4.29Zm-24.15-56a250.09,250.09,0,0,0-17-25.29,6.09,6.09,0,0,1,1-8.45h0a5.84,5.84,0,0,1,8.3,1.06,258.67,258.67,0,0,1,17.79,26.51,6.09,6.09,0,0,1-2.06,8.28,5.83,5.83,0,0,1-3.62.82,5.94,5.94,0,0,1-4.5-2.9Zm-36.84-48.29a251.68,251.68,0,0,0-22.49-20.34,6.08,6.08,0,0,1-1-8.45h0a5.85,5.85,0,0,1,8.31-1h0a263,263,0,0,1,23.58,21.32,6.12,6.12,0,0,1,0,8.53,5.88,5.88,0,0,1-4.79,1.73,5.81,5.81,0,0,1-3.64-1.77Zm-47.25-37.72a243.23,243.23,0,0,0-26.66-14.1,6.06,6.06,0,0,1-3-7.91,5.89,5.89,0,0,1,7.82-3.06,252.52,252.52,0,0,1,28,14.83,6.08,6.08,0,0,1,2,8.26h0a5.89,5.89,0,0,1-5.67,2.9,5.74,5.74,0,0,1-2.46-.91ZM972,1551.12a243.64,243.64,0,0,0-29.28-7,6,6,0,0,1,2-11.86,251.05,251.05,0,0,1,30.69,7.39,6.05,6.05,0,0,1,4,7.52h0a6,6,0,0,1-6.26,4.25,5.28,5.28,0,0,1-1.1-.24Zm-95.65-15.5a6,6,0,0,1,5.47-6.47,253,253,0,0,1,27.4-.59c1.39,0,2.77.1,4.15.16a5.93,5.93,0,0,1,5.63,6.22v.11a6,6,0,0,1-6.21,5.72c-1.29-.07-2.59-.12-3.89-.15a242.91,242.91,0,0,0-26.16.56,6.14,6.14,0,0,1-1,0,6,6,0,0,1-5.34-5.54Z"/></g><g class="cls-83"><path class="cls-81" d="M871.79,2047.69a255.38,255.38,0,0,1-30.56-5.48,6,6,0,0,1-4.38-7.25v0a6,6,0,0,1,7.14-4.46,240.19,240.19,0,0,0,29.15,5.22,6,6,0,0,1-1.26,12Zm25-4.3a6,6,0,0,1,5.87-6.06h0a247.43,247.43,0,0,0,29.55-2,6,6,0,0,1,1.52,12h0a252.5,252.5,0,0,1-31,2.09h-.64a6,6,0,0,1-5.32-6ZM811.54,2033a253.44,253.44,0,0,1-28.36-12.85,6.07,6.07,0,0,1-2.53-8.13,5.88,5.88,0,0,1,8-2.58h0a240.53,240.53,0,0,0,27,12.25,6.06,6.06,0,0,1,3.48,7.75h0a5.94,5.94,0,0,1-6.16,3.88A5.31,5.31,0,0,1,811.54,2033Zm145.51,4a6,6,0,0,1,4.28-7.33,240.76,240.76,0,0,0,28.18-9.19,5.92,5.92,0,0,1,7.68,3.43,6.08,6.08,0,0,1-3.39,7.81,251.83,251.83,0,0,1-29.56,9.64,5.86,5.86,0,0,1-7.19-4.36Zm-200.47-33.11a260.73,260.73,0,0,1-24.48-19.39,6.12,6.12,0,0,1-.54-8.52h0a5.86,5.86,0,0,1,8.37-.54h0A243.82,243.82,0,0,0,763.25,1994a6.11,6.11,0,0,1,1.53,8.39,5.84,5.84,0,0,1-8.2,1.57Zm-46.5-41.64a264,264,0,0,1-19.23-24.8,6.1,6.1,0,0,1,1.48-8.38h0a5.86,5.86,0,0,1,8.25,1.49h0a250.06,250.06,0,0,0,18.33,23.65,6.1,6.1,0,0,1-.46,8.5h0a5.88,5.88,0,0,1-8.37-.49Zm-35.38-51.78a265.32,265.32,0,0,1-12.81-28.78,6.06,6.06,0,0,1,3.41-7.78h0a5.91,5.91,0,0,1,7.65,3.49,248.23,248.23,0,0,0,12.23,27.43,6.11,6.11,0,0,1-2.47,8.16,5.78,5.78,0,0,1-3.36.67,5.93,5.93,0,0,1-4.66-3.18Z"/><path class="cls-81" d="M1018.87,2019.09a5.83,5.83,0,0,0,3.4-.69c4.47-2.45,8.88-5,13.13-7.71a6.09,6.09,0,0,0,1.94-8.3,5.87,5.87,0,0,0-8.15-2c-4,2.54-8.26,5-12.52,7.35a6.08,6.08,0,0,0-2.4,8.17A5.92,5.92,0,0,0,1018.87,2019.09Z"/></g><path class="cls-81" d="M1052.65,1909.55a3.09,3.09,0,0,0,.58-3.5l-16-33.41a163.67,163.67,0,0,0,19.74-48.45l34.5-12.11a3.06,3.06,0,0,0,2-2.89v-44.58a3.05,3.05,0,0,0-2-2.89l-34.51-12.1a163.56,163.56,0,0,0-19.74-48.45l16-33.41a3.11,3.11,0,0,0-.57-3.5l-31-31.52a3,3,0,0,0-3.44-.59l-32.83,16.28a157.44,157.44,0,0,0-47.61-20.08l-11.9-35.12a3,3,0,0,0-2.84-2.06H879.22a3,3,0,0,0-2.83,2.06l-11.88,35.1a157.49,157.49,0,0,0-47.61,20.1l-32.84-16.28a3,3,0,0,0-3.43.59l-31,31.53a3.08,3.08,0,0,0-.58,3.49l16,33.41a163.56,163.56,0,0,0-19.74,48.45l-34.5,12.11a3,3,0,0,0-2,2.89v44.58a3.06,3.06,0,0,0,2,2.89l34.51,12.1a163.67,163.67,0,0,0,19.74,48.45l-16,33.41a3.11,3.11,0,0,0,.58,3.5l31,31.52a3,3,0,0,0,3.44.58l32.81-16.25a158,158,0,0,0,47.61,20.07l11.9,35.12a3,3,0,0,0,2.84,2.06h43.81a3,3,0,0,0,2.84-2.06l11.89-35.11a158,158,0,0,0,47.61-20.1l32.83,16.27a3,3,0,0,0,3.44-.58Z"/><path class="cls-86" d="M890.17,1831.13a44.65,44.65,0,0,1-27.53-20.84,46,46,0,0,1-5-34.55c6.1-24.39,30.42-39.18,54.41-33.07s38.5,30.95,32.49,55.37a45.2,45.2,0,0,1-20.48,28,44.2,44.2,0,0,1-33.92,5.09Zm-21-52.4a33.87,33.87,0,0,0,3.67,25.42,32.76,32.76,0,0,0,20.24,15.33h0a32.31,32.31,0,0,0,25-3.73,33.27,33.27,0,0,0,15.07-20.6c4.42-18-6.27-36.18-23.9-40.75a32.34,32.34,0,0,0-4.78-.85,33.08,33.08,0,0,0-35.27,25.14Z"/><path class="cls-87" d="M889.21,1899.21q5.6.57,11.34.58a110.39,110.39,0,0,0,22.63-2.34l1-.22a6,6,0,0,0,4.64-5.28,6.31,6.31,0,0,0-.1-1.89,5.94,5.94,0,0,0-7-4.62,98.8,98.8,0,0,1-21.13,2.29h-1.18A97.75,97.75,0,0,1,852.09,1875a101.22,101.22,0,0,1-21.5-16.39l-.15-.16L830,1858a102.8,102.8,0,0,1,0-143.61,98.59,98.59,0,0,1,141.12,0,101.72,101.72,0,0,1,29.23,71.8c0,3.44-.17,6.88-.51,10.3a102.4,102.4,0,0,1-13.6,41.84,6.08,6.08,0,0,0,2,8.27,5.86,5.86,0,0,0,8.13-2.07h0a115.16,115.16,0,0,0-16.89-138.68,110.26,110.26,0,0,0-157.87,0,113.62,113.62,0,0,0-32.11,68.66c-.38,3.85-.57,7.76-.57,11.67C789,1844.44,832.27,1893.23,889.21,1899.21Z"/></g></g></g></svg>