<?xml version="1.0" encoding="utf-8"?>
<!-- Generator: Adobe Illustrator 25.2.3, SVG Export Plug-In . SVG Version: 6.00 Build 0)  -->
<svg version="1.1"
	id="svg2"
	xmlnsCc="http://creativecommons.org/ns#" 
	xmlnsDc="http://purl.org/dc/elements/1.1/"
	xmlnsRdf="http://www.w3.org/1999/02/22-rdf-syntax-ns#" 
	xmlnsSvg="http://www.w3.org/2000/svg"
	xmlns="http://www.w3.org/2000/svg" 
	xmlnsXlink="http://www.w3.org/1999/xlink" 
	x="0px" 
	y="0px"
	viewBox="0 0 1500 1500"
	style="enable-background:new 0 0 1500 1500;" 
	xmlSpace="preserve">
<style type="text/css">
	.st0{fill:#394D54;}
	.st1{clip-path:url(#SVGID_2_);}
	.st2{fill:#00ACD3;}
	.st3{fill:#20C2EF;}
	.st4{stroke:#394D54;stroke-width:1.56;}
	.st5{clip-path:url(#SVGID_4_);fill:#17B5EB;}
	.st6{clip-path:url(#SVGID_6_);fill-opacity:0.17;}
	.st7{clip-path:url(#SVGID_8_);fill:#D4EDF1;}
	.st8{clip-path:url(#SVGID_10_);fill-opacity:8.500000e-02;}
	.st9{fill:none;stroke:#394D54;stroke-width:3.4;stroke-linecap:round;}
	.st10{fill:#D4EDF1;}
</style>
<path id="path14" class="st0" d="M867.9,593h134.5v137.5h68c31.4,0,63.7-5.6,93.4-15.7c14.6-5,31-11.8,45.4-20.5
	c-19-24.8-28.7-56.1-31.5-86.9c-3.9-42,4.6-96.6,33-129.4l14.1-16.3l16.8,13.5c42.4,34.1,78.1,81.7,84.4,136
	c51.1-15,111-11.5,156,14.5l18.5,10.7l-9.7,19c-38.1,74.3-117.6,97.3-195.5,93.2c-116.4,290-369.9,427.3-677.2,427.3
	c-158.8,0-304.5-59.4-387.4-200.2c-4.9-8.8-9-17.9-13.4-26.9c-28-62-37.4-129.9-31-197.8l1.9-20.3h115V593h134.5V458.5h269V324.1
	h161.4L867.9,593"/>
<g>
	<defs>
		<path id="SVGID_1_" d="M447.5,335.8v270.5H318.1v135.3H209.8c-0.5,3.9-0.8,7.8-1.2,11.8c-6.8,73.7,6.1,141.7,35.7,199.8l9.9,17.8
			c5.9,10.7,12.9,20.7,20.2,30.5c7.3,9.8,9.9,15.2,14.5,21.7C367,1111,483.5,1153.3,618,1153.3c297.9,0,550.7-132,662.5-428.4
			c79.4,8.1,155.5-12.2,190.2-79.9c-55.3-31.9-126.3-21.7-167.2-1.1l108.4-308L988.5,606.4H853.3V335.8H447.5z"/>
	</defs>
	<clipPath id="SVGID_2_">
		<use xlinkHref="#SVGID_1_"  style="overflow:visible;"/>
	</clipPath>
	<g id="g16" class="st1">
		<g id="g18">
			<g id="g20" transform="translate(0,-22.866)">
				<path id="path22" class="st2" d="M728.9,234.9h116.5v116.5H728.9V234.9z"/>
				<path id="path24" class="st3" d="M728.9,369.3h116.5v116.5H728.9V369.3z"/>
				<path id="path26" class="st4" d="M743.3,341.7v-97.1 M760.7,341.7v-97.1 M778.4,341.7v-97.1 M796,341.7v-97.1 M813.7,341.7
					v-97.1 M831.2,341.7v-97.1"/>
				<g id="use28" transform="translate(0,22.866)">
					<path id="path26_1_" class="st4" d="M743.3,476.2V379 M760.7,476.2V379 M778.4,476.2V379 M796,476.2V379 M813.7,476.2V379
						 M831.2,476.2V379"/>
				</g>
			</g>
			<g id="use30" transform="matrix(1,0,0,-1,22.866,4.572651)">
				<g id="g20_1_" transform="translate(0,-22.866)">
					<path id="path22_1_" class="st2" d="M863.4,485.9H980V369.3H863.4L863.4,485.9z"/>
					<path id="path24_1_" class="st3" d="M863.4,351.4H980V234.9H863.4L863.4,351.4z"/>
					<path id="path26_2_" class="st4" d="M877.7,379.1v97.1 M895.2,379.1v97.1 M912.9,379.1v97.1 M930.5,379.1v97.1 M948.2,379.1
						v97.1 M965.7,379.1v97.1"/>
					<g id="use28_1_" transform="translate(0,22.866)">
						<path id="path26_3_" class="st4" d="M877.7,244.6v97.1 M895.2,244.6v97.1 M912.9,244.6v97.1 M930.5,244.6v97.1 M948.2,244.6
							v97.1 M965.7,244.6v97.1"/>
					</g>
				</g>
			</g>
		</g>
		<g id="use32" transform="translate(-91.464,45.732)">
			<g id="g18_1_">
				<g id="g20_2_" transform="translate(0,-22.866)">
					<path id="path22_2_" class="st2" d="M191,503.8h116.5v116.5H191L191,503.8z"/>
					<path id="path24_2_" class="st3" d="M191,638.3h116.5v116.5H191L191,638.3z"/>
					<path id="path26_4_" class="st4" d="M205.4,610.7v-97.1 M222.8,610.7v-97.1 M240.5,610.7v-97.1 M258.1,610.7v-97.1
						 M275.8,610.7v-97.1 M293.3,610.7v-97.1"/>
					<g id="use28_2_" transform="translate(0,22.866)">
						<path id="path26_5_" class="st4" d="M205.4,745.1V648 M222.8,745.1V648 M240.5,745.1V648 M258.1,745.1V648 M275.8,745.1V648
							 M293.3,745.1V648"/>
					</g>
				</g>
				<g id="use30_1_" transform="matrix(1,0,0,-1,22.866,4.572651)">
					<g id="g20_3_" transform="translate(0,-22.866)">
						<path id="path22_3_" class="st2" d="M325.5,754.8h116.5V638.3H325.5L325.5,754.8z"/>
						<path id="path24_3_" class="st3" d="M325.5,620.4h116.5V503.8H325.5L325.5,620.4z"/>
						<path id="path26_6_" class="st4" d="M339.8,648v97.1 M357.3,648v97.1 M375,648v97.1 M392.6,648v97.1 M410.3,648v97.1
							 M427.8,648v97.1"/>
						<g id="use28_3_" transform="translate(0,22.866)">
							<path id="path26_7_" class="st4" d="M339.8,513.5v97.1 M357.3,513.5v97.1 M375,513.5v97.1 M392.6,513.5v97.1 M410.3,513.5
								v97.1 M427.8,513.5v97.1"/>
						</g>
					</g>
				</g>
			</g>
		</g>
		<g id="use34" transform="translate(-45.732,45.732)">
			<g id="g18_2_">
				<g id="g20_4_" transform="translate(0,-22.866)">
					<path id="path22_4_" class="st2" d="M460,503.8h116.5v116.5H460L460,503.8z"/>
					<path id="path24_4_" class="st3" d="M460,638.3h116.5v116.5H460L460,638.3z"/>
					<path id="path26_8_" class="st4" d="M474.3,610.7v-97.1 M491.8,610.7v-97.1 M509.4,610.7v-97.1 M527.1,610.7v-97.1
						 M544.8,610.7v-97.1 M562.2,610.7v-97.1"/>
					<g id="use28_4_" transform="translate(0,22.866)">
						<path id="path26_9_" class="st4" d="M474.3,745.1V648 M491.8,745.1V648 M509.4,745.1V648 M527.1,745.1V648 M544.8,745.1V648
							 M562.2,745.1V648"/>
					</g>
				</g>
				<g id="use30_2_" transform="matrix(1,0,0,-1,22.866,4.572651)">
					<g id="g20_5_" transform="translate(0,-22.866)">
						<path id="path22_5_" class="st2" d="M594.5,754.8H711V638.3H594.5L594.5,754.8z"/>
						<path id="path24_5_" class="st3" d="M594.5,620.4H711V503.8H594.5L594.5,620.4z"/>
						<path id="path26_10_" class="st4" d="M608.8,648v97.1 M626.3,648v97.1 M643.9,648v97.1 M661.6,648v97.1 M679.2,648v97.1
							 M696.7,648v97.1"/>
						<g id="use28_5_" transform="translate(0,22.866)">
							<path id="path26_11_" class="st4" d="M608.8,513.5v97.1 M626.3,513.5v97.1 M643.9,513.5v97.1 M661.6,513.5v97.1 M679.2,513.5
								v97.1 M696.7,513.5v97.1"/>
						</g>
					</g>
				</g>
			</g>
		</g>
		<g id="use36" transform="translate(0,45.732)">
			<g id="g18_3_">
				<g id="g20_6_" transform="translate(0,-22.866)">
					<path id="path22_6_" class="st2" d="M728.9,503.8h116.5v116.5H728.9V503.8z"/>
					<path id="path24_6_" class="st3" d="M728.9,638.3h116.5v116.5H728.9V638.3z"/>
					<path id="path26_12_" class="st4" d="M743.3,610.7v-97.1 M760.7,610.7v-97.1 M778.4,610.7v-97.1 M796,610.7v-97.1 M813.7,610.7
						v-97.1 M831.2,610.7v-97.1"/>
					<g id="use28_6_" transform="translate(0,22.866)">
						<path id="path26_13_" class="st4" d="M743.3,745.1V648 M760.7,745.1V648 M778.4,745.1V648 M796,745.1V648 M813.7,745.1V648
							 M831.2,745.1V648"/>
					</g>
				</g>
				<g id="use30_3_" transform="matrix(1,0,0,-1,22.866,4.572651)">
					<g id="g20_7_" transform="translate(0,-22.866)">
						<path id="path22_7_" class="st2" d="M863.4,754.8H980V638.3H863.4L863.4,754.8z"/>
						<path id="path24_7_" class="st3" d="M863.4,620.4H980V503.8H863.4L863.4,620.4z"/>
						<path id="path26_14_" class="st4" d="M877.7,648v97.1 M895.2,648v97.1 M912.9,648v97.1 M930.5,648v97.1 M948.2,648v97.1
							 M965.7,648v97.1"/>
						<g id="use28_7_" transform="translate(0,22.866)">
							<path id="path26_15_" class="st4" d="M877.7,513.5v97.1 M895.2,513.5v97.1 M912.9,513.5v97.1 M930.5,513.5v97.1 M948.2,513.5
								v97.1 M965.7,513.5v97.1"/>
						</g>
					</g>
				</g>
			</g>
		</g>
	</g>
</g>
<g>
	<defs>
		<path id="SVGID_3_" d="M447.5,335.8v270.5H318.1v135.3H209.8c-0.5,3.9-0.8,7.8-1.2,11.8c-6.8,73.7,6.1,141.7,35.7,199.8l9.9,17.8
			c5.9,10.7,12.9,20.7,20.2,30.5c7.3,9.8,9.9,15.2,14.5,21.7C367,1111,483.5,1153.3,618,1153.3c297.9,0,550.7-132,662.5-428.4
			c79.4,8.1,155.5-12.2,190.2-79.9c-55.3-31.9-126.3-21.7-167.2-1.1l108.4-308L988.5,606.4H853.3V335.8H447.5z"/>
	</defs>
	<clipPath id="SVGID_4_">
		<use xlinkHref="#SVGID_3_"  style="overflow:visible;"/>
	</clipPath>
	<path id="path38" class="st5" d="M1303.6,643.9c9-70.1-43.4-125.1-75.9-151.2c-37.5,43.3-43.3,156.9,15.5,204.7
		c-32.8,29.1-102,55.6-172.8,55.6H200.5c-6.9,73.9,0,429.8,0,429.8h1276.2l-5.8-537.7C1415.6,613.1,1344.5,623.3,1303.6,643.9"/>
</g>
<g>
	<defs>
		<path id="SVGID_5_" d="M447.5,335.8v270.5H318.1v135.3H209.8c-0.5,3.9-0.8,7.8-1.2,11.8c-6.8,73.7,6.1,141.7,35.7,199.8l9.9,17.8
			c5.9,10.7,12.9,20.7,20.2,30.5c7.3,9.8,9.9,15.2,14.5,21.7C367,1111,483.5,1153.3,618,1153.3c297.9,0,550.7-132,662.5-428.4
			c79.4,8.1,155.5-12.2,190.2-79.9c-55.3-31.9-126.3-21.7-167.2-1.1l108.4-308L988.5,606.4H853.3V335.8H447.5z"/>
	</defs>
	<clipPath id="SVGID_6_">
		<use xlinkHref="#SVGID_5_"  style="overflow:visible;"/>
	</clipPath>
	<path id="path40" class="st6" d="M200.5,847.5v335.2h1276.2V847.5"/>
</g>
<g>
	<defs>
		<path id="SVGID_7_" d="M447.5,335.8v270.5H318.1v135.3H209.8c-0.5,3.9-0.8,7.8-1.2,11.8c-6.8,73.7,6.1,141.7,35.7,199.8l9.9,17.8
			c5.9,10.7,12.9,20.7,20.2,30.5c7.3,9.8,9.9,15.2,14.5,21.7C367,1111,483.5,1153.3,618,1153.3c297.9,0,550.7-132,662.5-428.4
			c79.4,8.1,155.5-12.2,190.2-79.9c-55.3-31.9-126.3-21.7-167.2-1.1l108.4-308L988.5,606.4H853.3V335.8H447.5z"/>
	</defs>
	<clipPath id="SVGID_8_">
		<use xlinkHref="#SVGID_7_"  style="overflow:visible;"/>
	</clipPath>
	<path id="path42" class="st7" d="M654.7,1152.6c-79.6-37.8-123.3-89.2-147.7-145.2L265.2,1018l123.5,164.7L654.7,1152.6"/>
</g>
<g>
	<defs>
		<path id="SVGID_9_" d="M447.5,335.8v270.5H318.1v135.3H209.8c-0.5,3.9-0.8,7.8-1.2,11.8c-6.8,73.7,6.1,141.7,35.7,199.8l9.9,17.8
			c5.9,10.7,12.9,20.7,20.2,30.5c7.3,9.8,9.9,15.2,14.5,21.7C367,1111,483.5,1153.3,618,1153.3c297.9,0,550.7-132,662.5-428.4
			c79.4,8.1,155.5-12.2,190.2-79.9c-55.3-31.9-126.3-21.7-167.2-1.1l108.4-308L988.5,606.4H853.3V335.8H447.5z"/>
	</defs>
	<clipPath id="SVGID_10_">
		<use xlinkHref="#SVGID_9_"  style="overflow:visible;"/>
	</clipPath>
	<path id="path44" class="st8" d="M1309.1,641.3v0.2c-122.7,158.1-298.7,296.3-487.6,368.8c-168.5,64.7-315.4,65-416.8,13
		c-10.9-6.2-21.6-13-32.3-19.5C298,951.9,256.1,866,259.7,752.8h-59.2v429.9h1276.2V618.1h-147L1309.1,641.3z"/>
</g>
<path id="path46" class="st9" d="M268.9,1012.3c83.3,4.6,172.2,5.4,249.8-18.9"/>
<path id="path48" class="st10" d="M601.4,953.1c0,17.8-14.4,32.1-32.1,32.1c-17.8,0-32.2-14.4-32.2-32.1c0-17.8,14.4-32.2,32.2-32.2
	C587,920.9,601.4,935.3,601.4,953.1z"/>
<path id="path50" class="st0" d="M577.6,931.6c-2.8,1.6-4.7,4.7-4.7,8.1c0,5.2,4.2,9.4,9.4,9.4c3.6,0,6.6-2,8.2-4.9
	c1.1,2.7,1.8,5.7,1.8,8.8c0,12.7-10.3,23-23,23c-12.7,0-23-10.3-23-23c0-12.7,10.3-23,23-23C572.2,930.1,575,930.6,577.6,931.6z"/>
<path id="path52" class="st0" d="M0.5,854.3h1495.7c-32.6-8.3-103-19.4-91.4-62.1c-59.2,68.5-202,48.1-238.1,14.3
	c-40.1,58.2-273.8,36.1-290.1-9.3c-50.3,59-206.2,59-256.5,0c-16.3,45.3-250,67.5-290.1,9.3c-36,33.8-178.8,54.2-238.1-14.3
	C103.6,834.9,33.1,846,0.5,854.3"/>
</svg>