<?xml version="1.0" encoding="utf-8"?>
<!-- Generator: Adobe Illustrator 25.2.3, SVG Export Plug-In . SVG Version: 6.00 Build 0)  -->
<svg version="1.1" id="Layer_1" xmlns="http://www.w3.org/2000/svg" xmlns:xlink="http://www.w3.org/1999/xlink" x="0px" y="0px"
	 viewBox="0 0 1200 1200" style="enable-background:new 0 0 1200 1200;" xml:space="preserve">
<path d="M372.2,733.9V471.3h14.2v41.3c1.7-1.8,3.2-3.8,4.6-5.8c11.9-24.7,37-40.2,64.4-39.9c32.5-1,58.9,11.1,74.4,39.9
	c20,36.4,21.2,80.3,3.1,117.7c-14.4,32.4-50.1,48.5-88.3,42.6c-24.2-2.1-45.6-16.2-57-37.6v104.4L372.2,733.9z M386.4,564.2
	l3.2,30.8c5.6,35.1,26.4,55.8,58.9,59.7c31.5,5.2,62.4-12.6,73.6-42.6c12.7-30.2,11.7-64.4-2.5-93.9c-11.9-26.7-40.1-42.3-69.1-38.2
	c-27.1,2-50.1,20.9-57.1,47.2C390.4,539.5,388,551.8,386.4,564.2L386.4,564.2z M836.4,599.9c-4.5,38.2-36.6,67.3-75,67.9
	c-59.7,3-87.7-36.6-92.2-82.4c-3.1-24.9,0.9-50.1,11.6-72.7c15.3-31.9,49.4-50.2,84.4-45.3c33.3,2.8,61,26.6,68.8,59
	c3,14.4,5.3,29,6.7,43.6H683.9c-2.9,41.5,19.4,74.8,51,82.9c39.4,9.7,73-7.4,85.2-44.8c2.7-9.6,7.7-11,16.4-8.2L836.4,599.9z
	 M683.8,556.8h140.3c-0.9-44.2-28.4-76.3-65.7-76.7C716.2,479.4,685.6,510.2,683.8,556.8z M865.4,600.9h13.8
	c1,20.7,13.5,39,32.4,47.5c23.5,10.6,50.6,9.9,73.5-1.9c12.6-5.7,20.4-18.7,19.4-32.5c0.7-13.4-7.5-25.6-20.2-30
	c-15.1-5.6-31.2-8.7-46.6-13.7c-16-4.6-31.7-10.3-46.9-17.2c-24.8-12.1-26.4-59.3,1.7-74.3c29.3-16.5,64.9-17.1,94.6-1.5
	c18.2,10,28.2,30.3,25.2,50.8h-11.8c0-0.6-1.1-1.1-1.1-1.7c-1.5-37.6-33.1-49.4-67-46c-10.3,1.1-20,4.2-29.1,8.8
	c-11.2,5.1-18,16.8-16.9,29.1c0,12.3,7.8,23.3,19.4,27.3c14.8,5.4,30.5,8.9,45.9,13.2l37,9.7c17.2,5.7,29.2,21.4,30.1,39.5
	c3,19.9-7.2,39.4-25.1,48.5c-32.4,18.3-85.7,13.5-109.5-9.7C872.1,634.7,865.3,618.1,865.4,600.9L865.4,600.9z M1193.3,528.3h-12.9
	c0-1.7-0.7-3.4-0.9-4.8c-0.4-19.9-14.7-36.8-34.3-40.5c-17.9-5.1-37-4.2-54.4,2.6c-14.1,4-23.8,16.9-23.9,31.5
	c-0.5,14.4,9.2,27.2,23.3,30.6l58.9,15.1c6.4,1.5,12.7,3.4,18.8,5.7c18.8,6.8,31.6,24.3,32.1,44.2c0.6,20-11.2,38.3-29.6,46
	c-27.7,12.6-59.3,12.9-87.3,0.9c-23.2-10-37.8-33.5-36.5-58.8h12.6c4.7,22.8,20.4,41.9,41.9,50.9c21.5,9,46.1,6.8,65.7-5.9
	c12-6.2,19.3-18.9,18.6-32.4c0.6-13.4-7.8-25.5-20.5-29.8c-15.1-5.6-31.2-8.6-46.6-13.7c-16.1-4.5-31.9-10.2-47.2-17
	c-24.2-11.9-26.2-58.8,1.5-73.7c29.6-17.2,66.2-17.6,96.2-1.1c17.2,10.3,26.8,29.8,24.3,49.7L1193.3,528.3z M348.7,663
	c-10.5,4-22.3-0.5-27.5-10.5l-50.1-69.3l-7.3-9.7l-58.2,79.1c-4.9,9.5-16.1,13.9-26.2,10.3l74.9-100.5l-69.7-90.8
	c10.3-3.7,21.9,0.3,27.6,9.7l52,70.2l52.3-69.9c4.9-9.4,16.1-13.5,26-9.7l-27.1,35.9l-36.6,47.7c-4,3.6-4.3,9.7-0.8,13.7
	c0.2,0.3,0.5,0.5,0.8,0.8l69.8,93.2L348.7,663z M666.9,470.6v13.7c-38.7-2.5-72.2,26.8-74.7,65.5c-0.2,2.4-0.2,4.7-0.1,7.1
	c0,31.9,0,63.9,0,95.8v10.9h-13.9V471.4h13.7v39.4C608.7,482.1,634.6,471.4,666.9,470.6L666.9,470.6z M0,561.1L6.1,531
	c16.8-59.6,85.1-84.4,132.2-47.5c27.5,21.6,34.4,52.3,33.1,86.8H16.2c-2.5,61.7,42,98.9,98.9,79.9c18.8-6.8,32.9-22.4,37.5-41.8
	c3-9.7,8-11.3,17.1-8.5c-3.1,23.9-16.9,45.1-37.6,57.5c-34.6,18.9-77.4,13.4-106.2-13.6C12,628.2,3.7,608.5,2,587.7
	c0-3.4-1.1-6.6-1.9-9.7C0,572.3,0,566.6,0,561.1L0,561.1z M16.4,557h140.3c-0.9-44.7-29.1-76.4-66.7-76.7
	c-41.9-0.6-71.8,30.4-73.7,76.5L16.4,557z"/>
</svg>
