<?xml version="1.0" encoding="utf-8"?>
<!-- Generator: Adobe Illustrator 25.2.3, SVG Export Plug-In . SVG Version: 6.00 Build 0)  -->
<svg version="1.1" id="Layer_1" xmlns="http://www.w3.org/2000/svg" xmlns:xlink="http://www.w3.org/1999/xlink" x="0px" y="0px"
	 viewBox="0 0 1823 2500" style="enable-background:new 0 0 1823 2500;" xml:space="preserve">
<style type="text/css">
	.st0{fill:#FFC24A;}
	.st1{fill-rule:evenodd;clip-rule:evenodd;fill:#FFA712;}
	.st2{opacity:0.15;}
	.st3{fill:#F6820C;}
	.st4{fill:#F4BD62;}
	.st5{fill-rule:evenodd;clip-rule:evenodd;fill:#FFA50E;}
	.st6{fill:#FDE068;}
	.st7{fill:#FCCA3F;}
	.st8{fill:#EEAB37;}
</style>
<path class="st0" d="M409.3,1670.3l8.3-11.6l393.1-746l0.8-7.9L638.3,579.3c-14.5-27.3-55.4-20.4-60.2,10.2L409.3,1670.3z"/>
<g>
	<path id="a" class="st1" d="M414.3,1661.4l6.3-12.3l389-738.1L636.7,584.2c-14.4-27-50.9-20.1-55.6,10.1L414.3,1661.4z"/>
</g>
<g class="st2">
	<path id="a_1_" class="st3" d="M414.3,1661.4l6.3-12.3l389-738.1L636.7,584.2c-14.4-27-50.9-20.1-55.6,10.1L414.3,1661.4z"/>
</g>
<path class="st4" d="M938,1151l129-132.1L937.9,772.5c-12.3-23.3-46.5-23.4-58.6,0l-69,131.5v11.2L938,1151L938,1151z"/>
<g>
	<path id="c" class="st5" d="M935.7,1145.5l125.4-128.5L935.7,778.2c-11.9-22.7-40.9-25.1-52.6-2.3l-69.3,133.6l-2.1,6.8
		L935.7,1145.5z"/>
</g>
<g class="st2">
	<path id="c_1_" class="st3" d="M935.7,1145.5l125.4-128.5L935.7,778.2c-11.9-22.7-40.9-25.1-52.6-2.3l-69.3,133.6l-2.1,6.8
		L935.7,1145.5z"/>
</g>
<path class="st3" d="M409.3,1670.3l3.8-3.8l13.7-5.6l503.1-501.2l6.4-17.3L810.7,903.3L409.3,1670.3z"/>
<path class="st6" d="M954.1,1923l455.3-253.9l-130-800.7c-4.1-25.1-34.8-35-52.7-17l-817.3,818.8L862,1923
	C890.6,1939,925.5,1939,954.1,1923"/>
<path class="st7" d="M1405.3,1667l-129-794.6c-4-24.9-29.6-35.1-47.4-17.3l-814.5,813.7l447.7,250.2c28.4,15.9,63,15.9,91.4,0
	L1405.3,1667L1405.3,1667z"/>
<path class="st8" d="M954.1,1915.6c-28.6,16-63.5,16-92.1,0l-449-249.1l-3.6,3.8L862,1923c28.6,16,63.4,16,92.1,0l455.3-253.9
	l-1.1-6.9L954.1,1915.6L954.1,1915.6z"/>
</svg>
