<svg id="Layer_1" data-name="Layer 1" xmlns="http://www.w3.org/2000/svg" xmlns:xlink="http://www.w3.org/1999/xlink" viewBox="0 0 1000.53 763.49"><defs><style>.cls-1,.cls-10,.cls-11,.cls-12,.cls-13,.cls-14,.cls-15,.cls-16,.cls-17,.cls-18,.cls-19,.cls-2,.cls-20,.cls-3,.cls-4,.cls-5,.cls-6,.cls-7,.cls-8,.cls-9{fill:none;}.cls-10,.cls-11,.cls-12,.cls-13,.cls-14,.cls-15,.cls-16,.cls-17,.cls-18,.cls-19,.cls-2,.cls-20,.cls-3,.cls-4,.cls-5,.cls-6,.cls-7,.cls-8,.cls-9{stroke:#0024a8;stroke-miterlimit:10;stroke-width:1.07px;}.cls-2{stroke-dasharray:3.2;}.cls-4{stroke-dasharray:3.15 3.15;}.cls-5{stroke-dasharray:3.16 3.16;}.cls-6{stroke-dasharray:3.19 3.19;}.cls-7{stroke-dasharray:3.21 3.21;}.cls-8{stroke-dasharray:3.21 3.21;}.cls-9{stroke-dasharray:3.17 3.17;}.cls-10{stroke-dasharray:3.29 3.29;}.cls-11{stroke-dasharray:3.16 3.16;}.cls-12{stroke-dasharray:3.17 3.17;}.cls-13{stroke-dasharray:3.18 3.18;}.cls-14{stroke-dasharray:2.92 2.92;}.cls-15{stroke-dasharray:3.22 3.22;}.cls-16{stroke-dasharray:3.05 3.05;}.cls-17{stroke-dasharray:3.29 3.29;}.cls-18{stroke-dasharray:3.16 3.16;}.cls-19{stroke-dasharray:3.31 3.31;}.cls-20{stroke-dasharray:3.17 3.17;}.cls-21{fill:#4779f6;}.cls-22{fill:#072bdb;}.cls-23{fill:#0024a8;}.cls-24{fill:#054ddd;}.cls-25{fill:#130751;}.cls-26{fill:#b6ceff;}.cls-27{fill:#e4eafe;}.cls-28,.cls-32{fill:#fff;}.cls-28{opacity:0.24;}.cls-29{fill:#fca232;}.cls-30{fill:#f98816;}.cls-31{clip-path:url(#clip-path);}.cls-33{clip-path:url(#clip-path-2);}.cls-34{opacity:0.51;}.cls-35{fill:#ffb564;}.cls-36{clip-path:url(#clip-path-3);}</style><clipPath id="clip-path" transform="translate(1.24 -109.66)"><path class="cls-1" d="M104.3,469.46a10.76,10.76,0,1,1-10.76-10.75A10.76,10.76,0,0,1,104.3,469.46Z"/></clipPath><clipPath id="clip-path-2" transform="translate(1.24 -109.66)"><path class="cls-1" d="M104.3,516.33a10.76,10.76,0,1,1-10.76-10.76A10.76,10.76,0,0,1,104.3,516.33Z"/></clipPath><clipPath id="clip-path-3" transform="translate(1.24 -109.66)"><rect class="cls-1" x="458.67" y="145.58" width="52.34" height="86.72" rx="7.96"/></clipPath></defs><polyline class="cls-2" points="830.06 112.43 830.06 50.02 167.45 50.02 167.45 77.79 167.45 242.06 56.66 242.06 56.66 451.07 194.44 451.07"/><line class="cls-3" x1="114.2" y1="577.86" x2="114.2" y2="576.26"/><line class="cls-4" x1="114.2" y1="573.1" x2="114.2" y2="492.65"/><polyline class="cls-3" points="114.2 491.07 114.2 489.47 112.61 489.47"/><line class="cls-5" x1="109.45" y1="489.47" x2="3.71" y2="489.47"/><polyline class="cls-3" points="2.13 489.47 0.53 489.47 0.53 487.88"/><line class="cls-6" x1="0.53" y1="484.68" x2="0.53" y2="371.34"/><polyline class="cls-3" points="0.53 369.75 0.53 368.15 2.13 368.15"/><line class="cls-7" x1="5.35" y1="368.15" x2="138.7" y2="368.15"/><polyline class="cls-3" points="140.31 368.15 141.91 368.15 141.91 366.55"/><line class="cls-8" x1="141.91" y1="363.34" x2="141.91" y2="82.49"/><polyline class="cls-3" points="141.91 80.89 141.91 79.29 143.5 79.29"/><line class="cls-9" x1="146.68" y1="79.29" x2="379.93" y2="79.29"/><polyline class="cls-3" points="381.52 79.29 383.12 79.29 383.12 77.69"/><line class="cls-10" x1="383.12" y1="74.41" x2="383.12" y2="3.77"/><polyline class="cls-3" points="383.12 2.13 383.12 0.53 384.72 0.53"/><line class="cls-11" x1="387.87" y1="0.53" x2="499.88" y2="0.53"/><polyline class="cls-3" points="501.46 0.53 503.06 0.53 503.06 2.13"/><line class="cls-12" x1="503.06" y1="5.3" x2="503.06" y2="79.8"/><polyline class="cls-3" points="503.06 81.38 503.06 82.98 504.65 82.98"/><line class="cls-13" x1="507.84" y1="82.98" x2="620.88" y2="82.98"/><polyline class="cls-3" points="622.47 82.98 624.07 82.98 624.07 84.58"/><line class="cls-14" x1="624.07" y1="87.5" x2="624.07" y2="109.37"/><polyline class="cls-3" points="624.07 110.83 624.07 112.43 625.67 112.43"/><line class="cls-15" x1="628.89" y1="112.43" x2="826.85" y2="112.43"/><polyline class="cls-3" points="828.46 112.43 830.06 112.43 830.06 114.03"/><line class="cls-16" x1="830.06" y1="117.08" x2="830.06" y2="158.24"/><polyline class="cls-3" points="830.06 159.77 830.06 161.36 831.66 161.36"/><line class="cls-17" x1="834.94" y1="161.36" x2="938.44" y2="161.36"/><polyline class="cls-3" points="940.08 161.36 941.68 161.36 941.68 162.96"/><line class="cls-18" x1="941.68" y1="166.13" x2="941.68" y2="265.78"/><polyline class="cls-3" points="941.68 267.36 941.68 268.96 940.08 268.96"/><line class="cls-19" x1="936.77" y1="268.96" x2="858.95" y2="268.96"/><polyline class="cls-3" points="857.29 268.96 855.7 268.96 855.7 270.56"/><line class="cls-20" x1="855.7" y1="273.73" x2="855.7" y2="525.79"/><line class="cls-3" x1="855.7" y1="527.38" x2="855.7" y2="528.98"/><rect class="cls-21" x="64.8" y="731.18" width="862.64" height="32.31"/><polygon class="cls-22" points="817.86 616.8 174.38 616.8 64.8 731.18 927.44 731.18 817.86 616.8"/><ellipse class="cls-23" cx="492.14" cy="676.14" rx="318.34" ry="29.8"/><polygon class="cls-24" points="428.37 571.59 414.65 666.79 577.6 666.79 562.16 571.59 428.37 571.59"/><rect class="cls-24" x="358.05" y="680.51" width="276.15" height="6.86"/><polygon class="cls-21" points="414.65 666.79 358.05 680.51 634.2 680.51 577.6 666.79 414.65 666.79"/><path class="cls-25" d="M190.47,166h611.3a12.68,12.68,0,0,1,12.68,12.68V522.57a0,0,0,0,1,0,0H177.79a0,0,0,0,1,0,0V178.7A12.68,12.68,0,0,1,190.47,166Z"/><path class="cls-21" d="M177.79,522.57H814.46a0,0,0,0,1,0,0V571a12.63,12.63,0,0,1-12.63,12.63H190.42A12.63,12.63,0,0,1,177.79,571V522.57a0,0,0,0,1,0,0Z"/><rect class="cls-26" x="201.28" y="186.6" width="589.69" height="313.89"/><path class="cls-25" d="M507.32,660.32a12.44,12.44,0,1,1-12.43-12.44A12.44,12.44,0,0,1,507.32,660.32Z" transform="translate(1.24 -109.66)"/><rect class="cls-21" x="294.24" y="222.43" width="208.81" height="243.73"/><rect class="cls-27" x="324.42" y="255.67" width="148.46" height="13.29"/><rect class="cls-27" x="324.42" y="280.04" width="148.46" height="13.29"/><rect class="cls-27" x="324.42" y="304.41" width="148.46" height="13.29"/><rect class="cls-27" x="324.42" y="328.79" width="148.46" height="13.29"/><rect class="cls-27" x="324.42" y="353.16" width="148.46" height="13.29"/><rect class="cls-27" x="324.42" y="377.53" width="148.46" height="13.29"/><rect class="cls-27" x="324.42" y="401.91" width="148.46" height="13.29"/><rect class="cls-27" x="324.42" y="426.28" width="148.46" height="13.29"/><path class="cls-25" d="M642.42,420.5V399.26H629.2a45.59,45.59,0,0,0-5.49-13.48l9.42-9.42-15-15-9.35,9.34A45.65,45.65,0,0,0,595.35,365V351.71H574.11v13.22a45.59,45.59,0,0,0-13.48,5.49L551.21,361l-15,15,9.35,9.35a45.39,45.39,0,0,0-5.64,13.41H526.57V420h13.22a45.32,45.32,0,0,0,5.49,13.48l-9.42,9.42,15,15,9.34-9.35a45.5,45.5,0,0,0,13.41,5.64v13.33h21.25V454.34a45.37,45.37,0,0,0,13.47-5.49l9.43,9.42,15-15-9.34-9.34a45.77,45.77,0,0,0,5.64-13.41Zm-57.93,9.55a20.41,20.41,0,1,1,20.42-20.41A20.41,20.41,0,0,1,584.49,430.05Z" transform="translate(1.24 -109.66)"/><path class="cls-25" d="M721.64,485.63V468.91H711.23a36,36,0,0,0-4.32-10.61l7.41-7.42L702.5,439.06l-7.36,7.36A35.94,35.94,0,0,0,684.58,442V431.48H667.86v10.41a35.69,35.69,0,0,0-10.61,4.32l-7.42-7.42L638,450.62l7.35,7.35a36,36,0,0,0-4.44,10.57H630.43v16.72h10.4a35.82,35.82,0,0,0,4.33,10.61l-7.42,7.42,11.82,11.82,7.36-7.36a35.65,35.65,0,0,0,10.56,4.44v10.5h16.73V512.28A36.06,36.06,0,0,0,694.82,508l7.42,7.41,11.82-11.82-7.36-7.36a35.92,35.92,0,0,0,4.44-10.56ZM676,493.15a16.07,16.07,0,1,1,16.07-16.07A16.07,16.07,0,0,1,676,493.15Z" transform="translate(1.24 -109.66)"/><path class="cls-25" d="M630.1,524.32V512.46h-7.39a25.27,25.27,0,0,0-3.06-7.53l5.26-5.26-8.39-8.39-5.22,5.22a25.34,25.34,0,0,0-7.49-3.15V485.9H591.94v7.38a25.67,25.67,0,0,0-7.53,3.07l-5.26-5.26-8.39,8.39L576,504.7a25.49,25.49,0,0,0-3.15,7.49h-7.44v11.86h7.38a25.46,25.46,0,0,0,3.07,7.54l-5.27,5.26,8.39,8.39,5.22-5.23a25.42,25.42,0,0,0,7.5,3.16v7.44h11.86v-7.38a25.67,25.67,0,0,0,7.53-3.07l5.26,5.26,8.39-8.39-5.22-5.22a25.23,25.23,0,0,0,3.15-7.49Zm-32.36,5.34a11.41,11.41,0,1,1,11.4-11.4A11.4,11.4,0,0,1,597.74,529.66Z" transform="translate(1.24 -109.66)"/><polygon class="cls-28" points="481.12 186.6 354.34 500.49 424.52 500.49 550.16 186.6 481.12 186.6"/><polygon class="cls-28" points="593.81 186.6 475.44 500.49 503.65 500.49 624.07 186.6 593.81 186.6"/><path class="cls-24" d="M698.42,230a4.91,4.91,0,0,1-2.13-.49,11,11,0,0,0-9,0,4.9,4.9,0,0,1-6.51-2.21A4.85,4.85,0,0,1,683,220.8c.35-.18,8.74-4.36,17.61,0a4.87,4.87,0,0,1-2.14,9.25Z" transform="translate(1.24 -109.66)"/><path class="cls-24" d="M710.24,216.79a4.84,4.84,0,0,1-2.79-.89c-15.66-11-30.66-.18-30.81-.06a4.87,4.87,0,0,1-5.78-7.85c7.13-5.25,25.11-12,42.18-.06a4.87,4.87,0,0,1-2.8,8.86Z" transform="translate(1.24 -109.66)"/><path class="cls-24" d="M722.07,204.43a4.84,4.84,0,0,1-3-1c-29-22.42-52.65-1.2-53.65-.28a4.87,4.87,0,0,1-6.63-7.13c.3-.28,30.58-27.87,66.24-.29a4.87,4.87,0,0,1-3,8.72Z" transform="translate(1.24 -109.66)"/><circle class="cls-29" cx="828.82" cy="271.02" r="75.64" transform="translate(52.35 555.79) rotate(-45)"/><path class="cls-30" d="M771.16,222.09A75.62,75.62,0,0,0,881.31,325.46C794.67,313.22,775,256.47,771.16,222.09Z" transform="translate(1.24 -109.66)"/><path class="cls-21" d="M883.86,739.32h5.58a58.13,58.13,0,0,0,0-116.15l-5.53,0-.06,0a58.14,58.14,0,0,0,0,116.12Zm-35.11-20.47A64.18,64.18,0,0,1,860.64,712a69.41,69.41,0,0,0,16.55,22A53.8,53.8,0,0,1,848.75,718.85Zm36,15.51a66.45,66.45,0,0,1-19.9-24,67,67,0,0,1,19.9-4Zm0-32.48A71.57,71.57,0,0,0,863,706.21a66.55,66.55,0,0,1-4.64-20.79l26.36,0Zm0-21-26.5,0a67.16,67.16,0,0,1,3.62-21.51,70.43,70.43,0,0,0,22.88,4.85ZM896,734.13a69.53,69.53,0,0,0,17.11-22.93,65.57,65.57,0,0,1,12.79,6.94A53.6,53.6,0,0,1,896,734.13Zm32.87-19.39a69.43,69.43,0,0,0-14-7.68,71.18,71.18,0,0,0,4.64-21.68h21A53.14,53.14,0,0,1,928.85,714.74ZM930.53,650a53.11,53.11,0,0,1,10.08,30.89h-21a71.69,71.69,0,0,0-3.68-22.37A70.83,70.83,0,0,0,930.53,650Zm-2.77-3.54a66.27,66.27,0,0,1-13.4,7.84A70.24,70.24,0,0,0,896,628.38,53.38,53.38,0,0,1,927.76,646.45Zm-38.54-17.82a66,66,0,0,1,21,27.33,66.25,66.25,0,0,1-21,3.86Zm0,35.69a70.63,70.63,0,0,0,22.51-4.15,67.3,67.3,0,0,1,3.37,20.72H889.22Zm0,21.08H915a66.54,66.54,0,0,1-4.36,20.1,72,72,0,0,0-21.38-3.67Zm0,20.91a67.5,67.5,0,0,1,19.62,3.33,66.36,66.36,0,0,1-19.62,24.24Zm-4.5-78.15v31.6a66.13,66.13,0,0,1-21.26-4.55A66.06,66.06,0,0,1,884.72,628.16Zm-7.52.36a70.48,70.48,0,0,0-17.87,24.9,65.84,65.84,0,0,1-12.47-7.74A53.59,53.59,0,0,1,877.2,628.52ZM844,649.17a70.47,70.47,0,0,0,13.67,8.45,71.94,71.94,0,0,0-4,23.3h-20.4A53,53,0,0,1,844,649.17Zm-10.53,36.26h20.37a70.93,70.93,0,0,0,5,22.47,69.45,69.45,0,0,0-13.11,7.6A53,53,0,0,1,833.49,685.43Z" transform="translate(1.24 -109.66)"/><rect class="cls-21" x="76.76" y="344.3" width="164.93" height="34.79"/><g class="cls-31"><path class="cls-32" d="M104.3,469.46a10.76,10.76,0,1,1-10.76-10.75A10.76,10.76,0,0,1,104.3,469.46Z" transform="translate(1.24 -109.66)"/><path class="cls-21" d="M97.29,465.54a3.75,3.75,0,1,1-3.75-3.75A3.74,3.74,0,0,1,97.29,465.54Z" transform="translate(1.24 -109.66)"/><path class="cls-21" d="M90.34,359.88h8.88a3,3,0,0,1,3,3v7.83a0,0,0,0,1,0,0H87.35a0,0,0,0,1,0,0v-7.83A3,3,0,0,1,90.34,359.88Z"/></g><rect class="cls-32" x="110.79" y="353.16" width="109.77" height="1.66"/><rect class="cls-32" x="110.79" y="358.15" width="109.77" height="1.66"/><rect class="cls-32" x="110.79" y="363.14" width="109.77" height="1.66"/><rect class="cls-32" x="110.79" y="368.13" width="109.77" height="1.66"/><rect class="cls-21" x="76.76" y="391.16" width="164.93" height="34.79"/><g class="cls-33"><path class="cls-32" d="M104.3,516.33a10.76,10.76,0,1,1-10.76-10.76A10.76,10.76,0,0,1,104.3,516.33Z" transform="translate(1.24 -109.66)"/><path class="cls-21" d="M97.29,512.4a3.75,3.75,0,1,1-3.75-3.75A3.75,3.75,0,0,1,97.29,512.4Z" transform="translate(1.24 -109.66)"/><path class="cls-21" d="M90.34,406.74h8.88a3,3,0,0,1,3,3v7.83a0,0,0,0,1,0,0H87.35a0,0,0,0,1,0,0v-7.83A3,3,0,0,1,90.34,406.74Z"/></g><rect class="cls-32" x="110.79" y="400.02" width="109.77" height="1.66"/><rect class="cls-32" x="110.79" y="405.01" width="109.77" height="1.66"/><rect class="cls-32" x="110.79" y="410" width="109.77" height="1.66"/><rect class="cls-32" x="110.79" y="414.99" width="109.77" height="1.66"/><path class="cls-32" d="M307.84,216.34c-.51,0-1,0-1.52,0a53.8,53.8,0,0,0-85.47-55.08,53.82,53.82,0,0,0-101.3,11.32A53.81,53.81,0,0,0,48.4,216.36l-.48,0a41.11,41.11,0,0,0-35.77,20.84,4.94,4.94,0,0,0,4.28,7.38h322.9a4.94,4.94,0,0,0,4.29-7.38A41.11,41.11,0,0,0,307.84,216.34Z" transform="translate(1.24 -109.66)"/><polygon class="cls-21" points="178.28 145.98 141.91 82.98 105.53 145.98 129.77 145.98 129.77 224.65 154.04 224.65 154.04 145.98 178.28 145.98"/><polygon class="cls-29" points="179.96 161.65 216.33 224.65 252.7 161.65 228.47 161.65 228.47 82.98 204.2 82.98 204.2 161.65 179.96 161.65"/><g class="cls-34"><rect class="cls-21" x="751.18" y="297.24" width="249.36" height="135.26"/><rect class="cls-27" x="762.49" y="311.01" width="207.68" height="9.73"/><rect class="cls-27" x="762.49" y="326.81" width="145.19" height="9.73"/><rect class="cls-27" x="762.49" y="342.61" width="177.69" height="9.73"/><rect class="cls-27" x="762.49" y="358.42" width="207.68" height="9.73"/><rect class="cls-27" x="762.49" y="374.22" width="191.65" height="9.73"/><rect class="cls-27" x="762.49" y="390.02" width="170.32" height="9.73"/><rect class="cls-27" x="762.49" y="405.83" width="195.75" height="9.73"/></g><rect class="cls-29" x="33.97" y="536.89" width="160.48" height="93.43"/><polygon class="cls-35" points="33.97 630.31 114.2 577.86 194.44 630.31 33.97 630.31"/><polygon class="cls-30" points="33.97 536.88 114.2 601.3 194.44 536.88 33.97 536.88"/><rect class="cls-25" x="454.71" y="31.01" width="62.73" height="103.94" rx="9.54"/><g class="cls-36"><rect class="cls-26" x="459.91" y="35.93" width="52.34" height="86.72" rx="7.96"/><polygon class="cls-32" points="449.18 102.35 508.22 23.01 522.37 23.01 449.18 122.65 449.18 102.35"/><polygon class="cls-32" points="454.71 133.72 524.83 35.93 524.83 45.15 454.71 144.79 454.71 133.72"/></g><path class="cls-32" d="M487.92,237.84a3.08,3.08,0,1,1-3.08-3.07A3.08,3.08,0,0,1,487.92,237.84Z" transform="translate(1.24 -109.66)"/><rect class="cls-32" x="503.73" y="54.69" width="84.26" height="64.04"/><polygon class="cls-24" points="529.82 105.3 511.68 87.16 530.07 68.77 533.15 71.85 517.85 87.16 532.9 102.21 529.82 105.3"/><polygon class="cls-24" points="560.96 105.3 557.88 102.21 573.18 86.91 558.13 71.85 561.21 68.77 579.35 86.91 560.96 105.3"/><rect class="cls-24" x="526.94" y="195.21" width="34.69" height="4.36" transform="translate(154.81 514.99) rotate(-67.49)"/><rect class="cls-24" x="503.73" y="47.23" width="84.26" height="7.46"/></svg>