<svg id="Layer_1" data-name="Layer 1" xmlns="http://www.w3.org/2000/svg" xmlns:xlink="http://www.w3.org/1999/xlink" viewBox="0 0 1200 1200"><defs><style>.cls-1{fill:none;}.cls-2{fill:#8050f2;}.cls-3{fill:#623ca4;}.cls-4{fill:#a184e9;}.cls-5{fill:#99aff0;}.cls-6{fill:#c7b2fd;}.cls-7{fill:#7c4f84;}.cls-8{fill:#b48db8;}.cls-9{fill:#986c9e;}.cls-10{fill:url(#linear-gradient);}.cls-11{fill:url(#linear-gradient-2);}.cls-12{fill:url(#linear-gradient-3);}.cls-13{fill:url(#linear-gradient-4);}.cls-14{fill:url(#linear-gradient-5);}.cls-15{fill:url(#linear-gradient-6);}.cls-16{fill:url(#linear-gradient-7);}.cls-17{fill:url(#linear-gradient-8);}.cls-18{fill:url(#linear-gradient-9);}.cls-19{fill:url(#linear-gradient-10);}.cls-20{fill:url(#linear-gradient-11);}.cls-21{fill:url(#linear-gradient-12);}.cls-22{fill:url(#linear-gradient-13);}.cls-23{fill:url(#linear-gradient-14);}.cls-24{fill:url(#linear-gradient-15);}.cls-25{fill:url(#linear-gradient-16);}.cls-26{fill:url(#linear-gradient-17);}.cls-27{fill:url(#linear-gradient-18);}.cls-28{fill:url(#linear-gradient-19);}.cls-29{fill:url(#linear-gradient-20);}.cls-30{fill:url(#linear-gradient-21);}.cls-31{fill:url(#linear-gradient-22);}.cls-32{fill:url(#linear-gradient-23);}.cls-33{fill:url(#linear-gradient-24);}.cls-34{fill:url(#linear-gradient-25);}.cls-35{fill:url(#linear-gradient-26);}.cls-36{fill:url(#linear-gradient-27);}.cls-37{fill:url(#linear-gradient-28);}.cls-38{fill:url(#linear-gradient-29);}.cls-39{fill:url(#linear-gradient-30);}.cls-40{fill:url(#linear-gradient-31);}.cls-41{fill:url(#linear-gradient-32);}.cls-42{fill:url(#linear-gradient-33);}.cls-43{fill:url(#linear-gradient-34);}.cls-44{fill:url(#linear-gradient-35);}.cls-45{fill:url(#linear-gradient-36);}.cls-46{fill:url(#linear-gradient-37);}.cls-47{fill:url(#linear-gradient-38);}.cls-48{fill:url(#linear-gradient-39);}.cls-49{fill:url(#linear-gradient-40);}.cls-50{fill:url(#linear-gradient-41);}.cls-51{fill:url(#linear-gradient-42);}.cls-52{fill:url(#linear-gradient-43);}.cls-53{fill:url(#linear-gradient-44);}.cls-54{fill:url(#linear-gradient-45);}.cls-55{fill:url(#linear-gradient-46);}.cls-56{fill:url(#linear-gradient-47);}.cls-57{fill:url(#linear-gradient-48);}.cls-58{fill:url(#linear-gradient-49);}.cls-59{fill:url(#linear-gradient-50);}.cls-60{fill:url(#linear-gradient-51);}.cls-61{fill:url(#linear-gradient-52);}.cls-62{fill:url(#linear-gradient-53);}.cls-63{fill:url(#linear-gradient-54);}.cls-64{fill:url(#linear-gradient-55);}.cls-65{fill:url(#linear-gradient-56);}.cls-66{fill:url(#linear-gradient-57);}.cls-67{fill:url(#linear-gradient-58);}.cls-68{fill:url(#linear-gradient-59);}.cls-69{fill:url(#linear-gradient-60);}.cls-70{fill:url(#linear-gradient-61);}.cls-71{fill:url(#linear-gradient-62);}.cls-72{fill:url(#linear-gradient-63);}.cls-73{fill:url(#linear-gradient-64);}.cls-74{fill:url(#linear-gradient-65);}.cls-75{fill:url(#linear-gradient-66);}.cls-76{fill:url(#linear-gradient-67);}.cls-77{fill:url(#linear-gradient-68);}.cls-78{fill:url(#linear-gradient-69);}.cls-79{fill:url(#linear-gradient-70);}.cls-80{fill:url(#linear-gradient-71);}.cls-81{fill:url(#linear-gradient-72);}.cls-82{fill:#fcd838;}.cls-83{opacity:0.31;}.cls-84{fill:#a27fb0;}.cls-85{fill:#956b9b;}.cls-105,.cls-86{fill:#190128;}.cls-87{fill:#fb7d5d;}.cls-88,.cls-90{opacity:0.06;}.cls-88{fill:url(#linear-gradient-73);}.cls-89{fill:#dccbde;}.cls-90{fill:url(#linear-gradient-74);}.cls-91{fill:#a2bfef;}.cls-92{fill:#879ade;}.cls-93{clip-path:url(#clip-path);}.cls-104,.cls-94{fill:#1e3667;}.cls-95{fill:#2e1238;}.cls-96{fill:#562c77;}.cls-97{fill:#925f97;}.cls-98{fill:#3c0a59;}.cls-99{fill:#aa80a0;}.cls-100{fill:#452751;}.cls-101{fill:#ed8d9b;}.cls-102,.cls-119{fill:#2a3463;}.cls-102,.cls-104,.cls-105{fill-rule:evenodd;}.cls-103{fill:#ec6379;}.cls-106{fill:#fdfdfd;}.cls-107{fill:#e9e3ff;}.cls-108,.cls-110{fill:#120a30;}.cls-108{opacity:0.25;}.cls-109{fill:#c4a1ba;}.cls-111{fill:#f7991d;}.cls-112{fill:#f6b735;}.cls-113{fill:#fad445;}.cls-114{fill:#fff;}.cls-115{fill:#d3e2f7;}.cls-116{fill:#a1e1fd;}.cls-117{fill:#32b2f6;}.cls-118{fill:#6dd1fd;}.cls-120{fill:#e8be33;}.cls-121{fill:#f2ca25;}.cls-122{fill:#ad3447;}.cls-123{fill:#d84e64;}.cls-124{font-size:33.01px;}.cls-124,.cls-132{font-family:Impact;}.cls-125{fill:#96cc46;}.cls-126{fill:#254f24;}.cls-127{fill:#6d8a42;}.cls-128{fill:#ea6f00;}.cls-129{fill:#ff871a;}.cls-130{fill:#ffae59;}.cls-131{fill:#761f24;}.cls-132{font-size:48px;}</style><linearGradient id="linear-gradient" x1="292.76" y1="670.91" x2="304.04" y2="670.91" gradientTransform="translate(56.98)" gradientUnits="userSpaceOnUse"><stop offset="0" stop-color="#dccbde"/><stop offset="1" stop-color="#b48db8"/></linearGradient><linearGradient id="linear-gradient-2" x1="301.95" y1="676.26" x2="313.23" y2="676.26" xlink:href="#linear-gradient"/><linearGradient id="linear-gradient-3" x1="412.21" y1="740.38" x2="423.49" y2="740.38" xlink:href="#linear-gradient"/><linearGradient id="linear-gradient-4" x1="285" y1="674.7" x2="298.8" y2="674.7" xlink:href="#linear-gradient"/><linearGradient id="linear-gradient-5" x1="294.19" y1="680.04" x2="307.99" y2="680.04" xlink:href="#linear-gradient"/><linearGradient id="linear-gradient-6" x1="386.07" y1="733.48" x2="399.87" y2="733.48" xlink:href="#linear-gradient"/><linearGradient id="linear-gradient-7" x1="376.88" y1="728.13" x2="390.68" y2="728.13" xlink:href="#linear-gradient"/><linearGradient id="linear-gradient-8" x1="367.69" y1="722.79" x2="381.49" y2="722.79" xlink:href="#linear-gradient"/><linearGradient id="linear-gradient-9" x1="358.51" y1="717.45" x2="372.31" y2="717.45" xlink:href="#linear-gradient"/><linearGradient id="linear-gradient-10" x1="349.32" y1="712.1" x2="363.12" y2="712.1" xlink:href="#linear-gradient"/><linearGradient id="linear-gradient-11" x1="340.13" y1="706.76" x2="353.93" y2="706.76" xlink:href="#linear-gradient"/><linearGradient id="linear-gradient-12" x1="330.94" y1="701.41" x2="344.74" y2="701.41" xlink:href="#linear-gradient"/><linearGradient id="linear-gradient-13" x1="321.75" y1="696.07" x2="335.55" y2="696.07" xlink:href="#linear-gradient"/><linearGradient id="linear-gradient-14" x1="312.56" y1="690.73" x2="326.36" y2="690.73" xlink:href="#linear-gradient"/><linearGradient id="linear-gradient-15" x1="303.38" y1="685.38" x2="317.17" y2="685.38" xlink:href="#linear-gradient"/><linearGradient id="linear-gradient-16" x1="395.26" y1="741.49" x2="418.25" y2="741.49" xlink:href="#linear-gradient"/><linearGradient id="linear-gradient-17" x1="277.53" y1="680.35" x2="295.81" y2="680.35" xlink:href="#linear-gradient"/><linearGradient id="linear-gradient-18" x1="397.05" y1="748.51" x2="410.77" y2="748.51" xlink:href="#linear-gradient"/><linearGradient id="linear-gradient-19" x1="270.05" y1="685.28" x2="290.35" y2="685.28" xlink:href="#linear-gradient"/><linearGradient id="linear-gradient-20" x1="364.63" y1="738.39" x2="378.43" y2="738.39" xlink:href="#linear-gradient"/><linearGradient id="linear-gradient-21" x1="354.68" y1="732.7" x2="368.48" y2="732.7" xlink:href="#linear-gradient"/><linearGradient id="linear-gradient-22" x1="344.73" y1="727.01" x2="358.53" y2="727.01" xlink:href="#linear-gradient"/><linearGradient id="linear-gradient-23" x1="334.78" y1="721.31" x2="348.58" y2="721.31" xlink:href="#linear-gradient"/><linearGradient id="linear-gradient-24" x1="324.83" y1="715.62" x2="338.63" y2="715.62" xlink:href="#linear-gradient"/><linearGradient id="linear-gradient-25" x1="314.88" y1="709.93" x2="328.68" y2="709.93" xlink:href="#linear-gradient"/><linearGradient id="linear-gradient-26" x1="304.93" y1="704.24" x2="318.73" y2="704.24" xlink:href="#linear-gradient"/><linearGradient id="linear-gradient-27" x1="294.98" y1="698.55" x2="308.78" y2="698.55" xlink:href="#linear-gradient"/><linearGradient id="linear-gradient-28" x1="285.03" y1="692.86" x2="298.84" y2="692.86" xlink:href="#linear-gradient"/><linearGradient id="linear-gradient-29" x1="374.49" y1="744.12" x2="388.29" y2="744.12" xlink:href="#linear-gradient"/><linearGradient id="linear-gradient-30" x1="383.51" y1="751.12" x2="403.3" y2="751.12" xlink:href="#linear-gradient"/><linearGradient id="linear-gradient-31" x1="262.58" y1="690.4" x2="285.57" y2="690.4" xlink:href="#linear-gradient"/><linearGradient id="linear-gradient-32" x1="280.96" y1="698.42" x2="294.76" y2="698.42" xlink:href="#linear-gradient"/><linearGradient id="linear-gradient-33" x1="363.66" y1="746.51" x2="377.45" y2="746.51" xlink:href="#linear-gradient"/><linearGradient id="linear-gradient-34" x1="354.47" y1="741.16" x2="368.27" y2="741.16" xlink:href="#linear-gradient"/><linearGradient id="linear-gradient-35" x1="345.28" y1="735.81" x2="359.08" y2="735.81" xlink:href="#linear-gradient"/><linearGradient id="linear-gradient-36" x1="336.09" y1="730.46" x2="349.89" y2="730.46" xlink:href="#linear-gradient"/><linearGradient id="linear-gradient-37" x1="326.9" y1="725.11" x2="340.7" y2="725.11" xlink:href="#linear-gradient"/><linearGradient id="linear-gradient-38" x1="317.71" y1="719.76" x2="331.51" y2="719.76" xlink:href="#linear-gradient"/><linearGradient id="linear-gradient-39" x1="308.52" y1="714.41" x2="322.33" y2="714.41" xlink:href="#linear-gradient"/><linearGradient id="linear-gradient-40" x1="299.34" y1="709.06" x2="313.14" y2="709.06" xlink:href="#linear-gradient"/><linearGradient id="linear-gradient-41" x1="290.15" y1="703.71" x2="303.95" y2="703.71" xlink:href="#linear-gradient"/><linearGradient id="linear-gradient-42" x1="373.52" y1="754.73" x2="395.83" y2="754.73" xlink:href="#linear-gradient"/><linearGradient id="linear-gradient-43" x1="255.11" y1="692.08" x2="268.91" y2="692.08" xlink:href="#linear-gradient"/><linearGradient id="linear-gradient-44" x1="264.3" y1="697.42" x2="278.1" y2="697.42" xlink:href="#linear-gradient"/><linearGradient id="linear-gradient-45" x1="273.49" y1="702.77" x2="287.29" y2="702.77" xlink:href="#linear-gradient"/><linearGradient id="linear-gradient-46" x1="282.5" y1="708.09" x2="296.3" y2="708.09" xlink:href="#linear-gradient"/><linearGradient id="linear-gradient-47" x1="291.86" y1="729.49" x2="360.8" y2="729.49" xlink:href="#linear-gradient"/><linearGradient id="linear-gradient-48" x1="356.18" y1="751.74" x2="366.97" y2="751.74" xlink:href="#linear-gradient"/><linearGradient id="linear-gradient-49" x1="365.37" y1="756.2" x2="379.17" y2="756.2" xlink:href="#linear-gradient"/><linearGradient id="linear-gradient-50" x1="374.56" y1="762.42" x2="385.35" y2="762.42" xlink:href="#linear-gradient"/><linearGradient id="linear-gradient-51" x1="387.36" y1="742.88" x2="401.09" y2="742.88" xlink:href="#linear-gradient"/><linearGradient id="linear-gradient-52" x1="377.67" y1="737.26" x2="391.4" y2="737.26" xlink:href="#linear-gradient"/><linearGradient id="linear-gradient-53" x1="367.98" y1="731.63" x2="381.71" y2="731.63" xlink:href="#linear-gradient"/><linearGradient id="linear-gradient-54" x1="358.3" y1="726" x2="372.03" y2="726" xlink:href="#linear-gradient"/><linearGradient id="linear-gradient-55" x1="348.61" y1="720.37" x2="362.34" y2="720.37" xlink:href="#linear-gradient"/><linearGradient id="linear-gradient-56" x1="338.92" y1="714.75" x2="352.65" y2="714.75" xlink:href="#linear-gradient"/><linearGradient id="linear-gradient-57" x1="329.23" y1="709.12" x2="342.96" y2="709.12" xlink:href="#linear-gradient"/><linearGradient id="linear-gradient-58" x1="319.55" y1="703.49" x2="333.28" y2="703.49" xlink:href="#linear-gradient"/><linearGradient id="linear-gradient-59" x1="309.86" y1="697.86" x2="323.59" y2="697.86" xlink:href="#linear-gradient"/><linearGradient id="linear-gradient-60" x1="300.17" y1="692.24" x2="313.9" y2="692.24" xlink:href="#linear-gradient"/><linearGradient id="linear-gradient-61" x1="290.48" y1="686.61" x2="304.21" y2="686.61" xlink:href="#linear-gradient"/><linearGradient id="linear-gradient-62" x1="403.02" y1="735.03" x2="414.3" y2="735.03" xlink:href="#linear-gradient"/><linearGradient id="linear-gradient-63" x1="393.84" y1="729.68" x2="405.11" y2="729.68" xlink:href="#linear-gradient"/><linearGradient id="linear-gradient-64" x1="384.65" y1="724.33" x2="395.92" y2="724.33" xlink:href="#linear-gradient"/><linearGradient id="linear-gradient-65" x1="375.46" y1="718.98" x2="386.73" y2="718.98" xlink:href="#linear-gradient"/><linearGradient id="linear-gradient-66" x1="366.27" y1="713.63" x2="377.55" y2="713.63" xlink:href="#linear-gradient"/><linearGradient id="linear-gradient-67" x1="357.08" y1="708.28" x2="368.36" y2="708.28" xlink:href="#linear-gradient"/><linearGradient id="linear-gradient-68" x1="347.89" y1="702.93" x2="359.17" y2="702.93" xlink:href="#linear-gradient"/><linearGradient id="linear-gradient-69" x1="338.7" y1="697.58" x2="349.98" y2="697.58" xlink:href="#linear-gradient"/><linearGradient id="linear-gradient-70" x1="329.51" y1="692.23" x2="340.79" y2="692.23" xlink:href="#linear-gradient"/><linearGradient id="linear-gradient-71" x1="320.33" y1="686.88" x2="331.61" y2="686.88" xlink:href="#linear-gradient"/><linearGradient id="linear-gradient-72" x1="311.14" y1="681.53" x2="322.42" y2="681.53" xlink:href="#linear-gradient"/><linearGradient id="linear-gradient-73" x1="408.95" y1="534.04" x2="418.43" y2="603.1" gradientTransform="translate(56.98)" gradientUnits="userSpaceOnUse"><stop offset="0" stop-color="#fff"/><stop offset="0.15" stop-color="#d0c4d7"/><stop offset="0.32" stop-color="#a38cb1"/><stop offset="0.48" stop-color="#7e5d92"/><stop offset="0.63" stop-color="#623979"/><stop offset="0.77" stop-color="#4d1f67"/><stop offset="0.9" stop-color="#400f5d"/><stop offset="1" stop-color="#3c0a59"/></linearGradient><linearGradient id="linear-gradient-74" x1="611.55" y1="651.46" x2="621.02" y2="720.52" xlink:href="#linear-gradient-73"/><clipPath id="clip-path"><polygon class="cls-1" points="550.03 927.11 373.67 824.07 474.83 696.87 254.89 524.54 175.64 516.95 35.18 1045.83 331.67 1193.93 550.03 927.11"/></clipPath></defs><polygon class="cls-2" points="562.79 1166.01 539.91 1152.3 539.91 919.46 562.79 933.17 562.79 1166.01"/><polygon class="cls-2" points="164.73 934.9 141.86 921.19 141.86 680.04 164.73 693.75 164.73 934.9"/><polygon class="cls-3" points="164.73 934.9 422.23 792.15 300.23 618.75 164.73 693.75 164.73 934.9"/><polygon class="cls-3" points="798.87 1023.48 562.79 1166.01 562.79 933.17 798.87 790.64 798.87 1023.48"/><polygon class="cls-4" points="562.28 934.29 131.46 682.07 131.46 667.82 806.42 773.27 806.42 787.52 562.28 934.29"/><polygon class="cls-5" points="562.28 920.03 131.46 667.82 378.81 516.94 806.42 773.27 562.28 920.03"/><polygon class="cls-6" points="562.28 920.03 131.46 667.82 378.81 516.94 806.42 773.27 562.28 920.03"/><path class="cls-7" d="M309.33,698.84,435.5,772.22a7.13,7.13,0,0,0,6.48.27l50.66-24.25c1.66-1,3.36-22.14,1.14-15.28l-137.1-57.18a7.13,7.13,0,0,0-6.48-.27l-41.34,16.07C307.2,692.55,307.41,697.72,309.33,698.84Z"/><path class="cls-8" d="M309.33,695.35,435.5,768.73A7.13,7.13,0,0,0,442,769s57.43-34.19,52.58-37.37l-126.95-72c-1.92-1.11-15.75,7-17.41,8l-41.34,24C307.2,692.55,307.41,694.24,309.33,695.35Z"/><polygon class="cls-9" points="357.14 675.75 349.75 671.45 353.63 669.19 361.02 673.5 357.14 675.75"/><polygon class="cls-9" points="366.33 681.1 358.94 676.8 362.82 674.54 370.21 678.84 366.33 681.1"/><polygon class="cls-9" points="349.38 680.27 341.98 675.97 348.39 672.24 355.78 676.54 349.38 680.27"/><polygon class="cls-9" points="358.57 685.61 351.17 681.31 357.58 677.59 364.97 681.89 358.57 685.61"/><polygon class="cls-9" points="475.23 746.01 468.83 749.74 452.25 740.09 452.25 738.53 475.23 744.45 475.23 746.01"/><polygon class="cls-9" points="352.79 683.5 346.39 687.22 334.51 680.31 340.92 676.59 352.79 683.5"/><polygon class="cls-9" points="340.94 692.74 327.04 684.66 333.44 680.93 347.34 689.01 340.94 692.74"/><polygon class="cls-9" points="419.15 738.23 411.75 733.93 418.16 730.2 425.55 734.5 419.15 738.23"/><polygon class="cls-9" points="460.29 754.7 453.88 758.43 440.5 750.64 460.29 753.14 460.29 754.7"/><polygon class="cls-9" points="336.15 698.65 319.57 689 325.97 685.28 342.56 694.92 336.15 698.65"/><polygon class="cls-9" points="345.34 703.99 337.94 699.69 344.35 695.97 351.75 700.27 345.34 703.99"/><polygon class="cls-9" points="418.85 746.74 411.45 742.44 417.86 738.72 425.25 743.02 418.85 746.74"/><polygon class="cls-9" points="446.41 762.77 430.5 753.52 430.5 751.96 452.82 757.49 452.82 759.05 446.41 762.77"/><polygon class="cls-9" points="347.06 713.68 339.66 709.38 346.06 705.66 353.46 709.96 347.06 713.68"/><polygon class="cls-9" points="417.78 747.37 411.38 751.09 348.85 714.73 348.85 713.17 417.78 745.8 417.78 747.37"/><polygon class="cls-9" points="420.56 756.43 413.17 752.13 413.17 750.57 423.96 752.9 423.96 754.46 420.56 756.43"/><polygon class="cls-9" points="429.75 761.78 422.36 757.48 422.36 755.91 436.16 756.49 436.16 758.05 429.75 761.78"/><polygon class="cls-9" points="438.94 767.12 431.55 762.82 431.55 761.26 442.34 763.59 442.34 765.15 438.94 767.12"/><rect class="cls-9" x="349.75" y="669.74" width="4.55" height="1.71"/><rect class="cls-9" x="358.07" y="671.94" width="2.95" height="1.3"/><rect class="cls-9" x="365.27" y="677.28" width="4.94" height="1.43"/><rect class="cls-9" x="358.93" y="675.24" width="5.05" height="1.56"/><rect class="cls-9" x="351.17" y="679.75" width="6.44" height="1.62"/><rect class="cls-9" x="360.36" y="680.27" width="4.61" height="1.62"/><rect class="cls-9" x="342.14" y="674.19" width="5.26" height="1.56"/><rect class="cls-9" x="348.85" y="674.91" width="6.94" height="1.63"/><rect class="cls-9" x="334.51" y="678.71" width="5.79" height="1.56"/><rect class="cls-9" x="340.44" y="681.91" width="12.35" height="1.59"/><rect class="cls-9" x="327.04" y="683.1" width="4.64" height="1.49"/><rect class="cls-9" x="337.19" y="687.41" width="10.15" height="1.6"/><rect class="cls-9" x="328.8" y="693.41" width="13.76" height="1.51"/><rect class="cls-9" x="319.57" y="687.41" width="3.93" height="1.59"/><rect class="cls-9" x="343.65" y="698.75" width="8.09" height="1.52"/><rect class="cls-9" x="337.94" y="698.08" width="5.01" height="1.61"/><polygon class="cls-10" points="357.14 674.19 349.75 669.89 353.63 667.64 361.02 671.94 357.14 674.19"/><polygon class="cls-11" points="366.33 679.54 358.94 675.24 362.82 672.98 370.21 677.28 366.33 679.54"/><polygon class="cls-9" points="476.59 745.22 469.2 740.92 469.2 739.36 480.47 741.4 480.47 742.97 476.59 745.22"/><polygon class="cls-12" points="476.59 743.66 469.2 739.36 473.08 737.1 480.47 741.4 476.59 743.66"/><polygon class="cls-13" points="349.38 678.71 341.98 674.41 348.39 670.68 355.78 674.98 349.38 678.71"/><polygon class="cls-14" points="358.57 684.05 351.17 679.75 357.58 676.03 364.97 680.33 358.57 684.05"/><polygon class="cls-9" points="450.45 739.05 443.06 734.75 443.06 733.19 456.86 733.76 456.86 735.33 450.45 739.05"/><polygon class="cls-15" points="450.45 737.49 443.06 733.19 449.46 729.46 456.86 733.76 450.45 737.49"/><polygon class="cls-9" points="441.26 733.71 433.87 729.4 433.87 727.85 447.67 728.42 447.67 729.98 441.26 733.71"/><polygon class="cls-16" points="441.26 732.15 433.87 727.85 440.27 724.12 447.67 728.42 441.26 732.15"/><polygon class="cls-9" points="432.07 728.36 424.68 724.06 424.68 722.5 438.48 723.08 438.48 724.64 432.07 728.36"/><polygon class="cls-17" points="432.07 726.8 424.68 722.5 431.08 718.78 438.48 723.08 432.07 726.8"/><polygon class="cls-9" points="422.89 723.02 415.49 718.72 415.49 717.16 429.29 717.73 429.29 719.29 422.89 723.02"/><polygon class="cls-18" points="422.89 721.46 415.49 717.16 421.9 713.43 429.29 717.73 422.89 721.46"/><polygon class="cls-9" points="413.7 717.67 406.3 713.38 406.3 711.81 420.1 712.39 420.1 713.95 413.7 717.67"/><polygon class="cls-19" points="413.7 716.12 406.3 711.81 412.71 708.09 420.1 712.39 413.7 716.12"/><polygon class="cls-9" points="404.51 712.33 397.11 708.03 397.11 706.47 410.92 707.05 410.92 708.61 404.51 712.33"/><polygon class="cls-20" points="404.51 710.77 397.11 706.47 403.52 702.75 410.92 707.05 404.51 710.77"/><polygon class="cls-9" points="395.32 706.99 387.93 702.69 387.93 701.13 401.73 701.7 401.73 703.26 395.32 706.99"/><polygon class="cls-21" points="395.32 705.43 387.93 701.13 394.33 697.4 401.73 701.7 395.32 705.43"/><polygon class="cls-9" points="386.13 701.64 378.74 697.34 378.74 695.78 392.54 696.36 392.54 697.92 386.13 701.64"/><polygon class="cls-22" points="386.13 700.08 378.74 695.78 385.14 692.06 392.54 696.36 386.13 700.08"/><polygon class="cls-9" points="376.94 696.3 369.55 692 369.55 690.44 383.35 691.02 383.35 692.58 376.94 696.3"/><polygon class="cls-23" points="376.94 694.74 369.55 690.44 375.95 686.71 383.35 691.02 376.94 694.74"/><polygon class="cls-9" points="367.75 690.96 360.36 686.66 360.36 685.1 374.16 685.67 374.16 687.23 367.75 690.96"/><polygon class="cls-24" points="367.75 689.4 360.36 685.1 366.76 681.37 374.16 685.67 367.75 689.4"/><polygon class="cls-25" points="475.23 744.45 468.83 748.18 452.25 738.53 458.65 734.81 475.23 744.45"/><polygon class="cls-26" points="352.79 681.94 346.39 685.66 334.51 678.75 340.92 675.03 352.79 681.94"/><polygon class="cls-9" points="461.36 752.52 453.96 748.22 453.96 749.78 461.36 754.08 467.76 750.36 467.76 748.8 461.36 752.52"/><path class="cls-27" d="M467.76,748.8l-7.4-4.3L454,748.18c-.07,0,7.33,4.34,7.33,4.34Z"/><polygon class="cls-28" points="340.94 691.18 327.04 683.1 333.44 679.37 347.34 687.46 340.94 691.18"/><polygon class="cls-9" points="429.01 742.4 421.61 738.1 421.61 739.66 429.01 743.96 435.41 740.24 435.41 738.68 429.01 742.4"/><polygon class="cls-29" points="435.41 738.68 428.02 734.38 421.61 738.1 429.01 742.4 435.41 738.68"/><polygon class="cls-9" points="419.06 736.71 411.66 732.41 411.66 733.97 419.06 738.27 425.46 734.54 425.46 732.99 419.06 736.71"/><polygon class="cls-30" points="425.46 732.99 418.07 728.68 411.66 732.41 419.06 736.71 425.46 732.99"/><polygon class="cls-9" points="409.11 731.02 401.71 726.72 401.71 728.28 409.11 732.58 415.51 728.85 415.51 727.29 409.11 731.02"/><polygon class="cls-31" points="415.51 727.29 408.12 722.99 401.71 726.72 409.11 731.02 415.51 727.29"/><polygon class="cls-9" points="399.16 725.33 391.76 721.03 391.76 722.59 399.16 726.89 405.56 723.16 405.56 721.6 399.16 725.33"/><polygon class="cls-32" points="405.56 721.6 398.17 717.3 391.76 721.03 399.16 725.33 405.56 721.6"/><polygon class="cls-9" points="389.21 719.64 381.82 715.34 381.82 716.89 389.21 721.2 395.62 717.47 395.62 715.91 389.21 719.64"/><polygon class="cls-33" points="395.62 715.91 388.22 711.61 381.82 715.34 389.21 719.64 395.62 715.91"/><polygon class="cls-9" points="379.26 713.95 371.87 709.64 371.87 711.2 379.26 715.5 385.67 711.78 385.67 710.22 379.26 713.95"/><polygon class="cls-34" points="385.67 710.22 378.27 705.92 371.87 709.64 379.26 713.95 385.67 710.22"/><polygon class="cls-9" points="369.31 708.25 361.92 703.95 361.92 705.51 369.31 709.81 375.72 706.09 375.72 704.53 369.31 708.25"/><polygon class="cls-35" points="375.72 704.53 368.32 700.23 361.92 703.95 369.31 708.25 375.72 704.53"/><polygon class="cls-9" points="359.36 702.56 351.97 698.26 351.97 699.82 359.36 704.12 365.77 700.4 365.77 698.84 359.36 702.56"/><polygon class="cls-36" points="365.77 698.84 358.37 694.53 351.97 698.26 359.36 702.56 365.77 698.84"/><polygon class="cls-9" points="349.42 696.87 342.02 692.57 342.02 694.13 349.42 698.43 355.82 694.71 355.82 693.15 349.42 696.87"/><polygon class="cls-37" points="355.82 693.15 348.42 688.85 342.02 692.57 349.42 696.87 355.82 693.15"/><polygon class="cls-9" points="438.87 748.14 431.47 743.84 431.47 745.39 438.87 749.7 445.27 745.97 445.27 744.41 438.87 748.14"/><polygon class="cls-38" points="445.27 744.41 437.88 740.11 431.47 743.84 438.87 748.14 445.27 744.41"/><polygon class="cls-39" points="460.29 753.14 453.88 756.87 440.5 749.09 446.9 745.36 460.29 753.14"/><polygon class="cls-40" points="336.15 697.09 319.57 687.44 325.97 683.72 342.56 693.36 336.15 697.09"/><polygon class="cls-41" points="345.34 702.43 337.94 698.13 344.35 694.41 351.75 698.71 345.34 702.43"/><polygon class="cls-9" points="428.04 750.53 420.64 746.23 420.64 747.79 428.04 752.09 434.44 748.36 434.44 746.8 428.04 750.53"/><polygon class="cls-42" points="434.44 746.8 427.05 742.5 420.64 746.23 428.04 750.53 434.44 746.8"/><polygon class="cls-9" points="418.85 745.18 411.45 740.87 411.45 742.44 418.85 746.74 425.25 743.01 425.25 741.45 418.85 745.18"/><polygon class="cls-43" points="425.25 741.45 417.86 737.15 411.45 740.87 418.85 745.18 425.25 741.45"/><polygon class="cls-9" points="409.66 739.83 402.26 735.52 402.26 737.09 409.66 741.39 416.06 737.66 416.06 736.1 409.66 739.83"/><polygon class="cls-44" points="416.06 736.1 408.67 731.8 402.26 735.52 409.66 739.83 416.06 736.1"/><polygon class="cls-9" points="400.47 734.48 393.07 730.17 393.07 731.73 400.47 736.03 406.88 732.31 406.88 730.75 400.47 734.48"/><polygon class="cls-45" points="406.88 730.75 399.48 726.45 393.07 730.17 400.47 734.48 406.88 730.75"/><polygon class="cls-9" points="391.28 729.13 383.88 724.82 383.88 726.38 391.28 730.68 397.69 726.96 397.69 725.4 391.28 729.13"/><polygon class="cls-46" points="397.69 725.4 390.29 721.1 383.88 724.82 391.28 729.13 397.69 725.4"/><polygon class="cls-9" points="382.09 723.77 374.7 719.47 374.7 721.03 382.09 725.33 388.5 721.61 388.5 720.05 382.09 723.77"/><polygon class="cls-47" points="388.5 720.05 381.1 715.75 374.7 719.47 382.09 723.77 388.5 720.05"/><polygon class="cls-9" points="372.9 718.42 365.51 714.12 365.51 715.68 372.9 719.99 379.31 716.26 379.31 714.7 372.9 718.42"/><polygon class="cls-48" points="379.31 714.7 371.91 710.4 365.51 714.12 372.9 718.42 379.31 714.7"/><polygon class="cls-9" points="363.72 713.07 356.32 708.77 356.32 710.33 363.72 714.63 370.12 710.91 370.12 709.35 363.72 713.07"/><polygon class="cls-49" points="370.12 709.35 362.73 705.05 356.32 708.77 363.72 713.07 370.12 709.35"/><polygon class="cls-9" points="354.53 707.72 347.13 703.42 347.13 704.98 354.53 709.28 360.93 705.55 360.93 704 354.53 707.72"/><polygon class="cls-50" points="360.93 704 353.54 699.7 347.13 703.42 354.53 707.72 360.93 704"/><polygon class="cls-51" points="446.41 761.22 430.5 751.96 436.91 748.24 452.82 757.49 446.41 761.22"/><path class="cls-9" d="M319.49,696.09l-7.4-4.3v1.62c.11,0,7.4,4.24,7.4,4.24l6.4-3.72v-1.56Z"/><path class="cls-52" d="M318.5,688.07l-6.41,3.72,7.4,4.3,6.4-3.72Z"/><path class="cls-9" d="M328.68,701.44l-7.4-4.31v1.52c0,.05,7.4,4.35,7.4,4.35l6.4-3.73v-1.56Z"/><path class="cls-53" d="M327.69,693.41l-6.41,3.72,7.4,4.31,6.4-3.73Z"/><path class="cls-9" d="M337.87,706.78l-7.4-4.3V704s7.4,4.35,7.4,4.35l6.4-3.73v-1.56Z"/><path class="cls-54" d="M336.88,698.75l-6.41,3.73,7.4,4.3,6.4-3.73Z"/><path class="cls-9" d="M346.88,712.1l-7.4-4.3v1.52s7.4,4.34,7.4,4.34l6.4-3.72v-1.56Z"/><path class="cls-55" d="M345.89,704.08l-6.41,3.72,7.4,4.3,6.4-3.72Z"/><polygon class="cls-56" points="417.78 745.8 411.38 749.53 348.85 713.17 355.25 709.44 417.78 745.8"/><polygon class="cls-57" points="420.56 754.88 413.17 750.57 416.56 748.6 423.96 752.9 420.56 754.88"/><polygon class="cls-58" points="429.75 760.22 422.36 755.91 428.76 752.19 436.16 756.49 429.75 760.22"/><polygon class="cls-59" points="438.94 765.56 431.55 761.26 434.94 759.28 442.34 763.59 438.94 765.56"/><polygon class="cls-9" points="451.67 746.9 444.27 742.6 444.27 744.15 451.67 748.46 458.07 744.73 458.07 743.17 451.67 746.9"/><path class="cls-60" d="M458.07,743.17l-7.39-4.3-6.34,3.68c-.07.05,7.33,4.35,7.33,4.35Z"/><polygon class="cls-9" points="441.98 741.27 434.58 736.97 434.58 738.53 441.98 742.83 448.39 739.11 448.39 737.54 441.98 741.27"/><path class="cls-61" d="M448.39,737.54l-7.4-4.3-6.33,3.69c-.07,0,7.32,4.34,7.32,4.34Z"/><polygon class="cls-9" points="432.29 735.64 424.9 731.34 424.9 732.9 432.29 737.2 438.7 733.48 438.7 731.92 432.29 735.64"/><path class="cls-62" d="M438.7,731.92l-7.4-4.31L425,731.3c-.07,0,7.32,4.34,7.32,4.34Z"/><polygon class="cls-9" points="422.61 730.01 415.21 725.71 415.21 727.27 422.61 731.57 429.01 727.85 429.01 726.29 422.61 730.01"/><path class="cls-63" d="M429,726.29l-7.4-4.3-6.33,3.68c-.07,0,7.33,4.34,7.33,4.34Z"/><polygon class="cls-9" points="412.92 724.39 405.52 720.09 405.52 721.65 412.92 725.95 419.32 722.22 419.32 720.66 412.92 724.39"/><path class="cls-64" d="M419.32,720.66l-7.39-4.3L405.59,720c-.07,0,7.33,4.35,7.33,4.35Z"/><polygon class="cls-9" points="403.23 718.76 395.83 714.46 395.83 716.02 403.23 720.32 409.63 716.59 409.63 715.03 403.23 718.76"/><path class="cls-65" d="M409.63,715l-7.39-4.31-6.33,3.69c-.08,0,7.32,4.34,7.32,4.34Z"/><polygon class="cls-9" points="393.54 713.13 386.15 708.83 386.15 710.39 393.54 714.69 399.95 710.97 399.95 709.41 393.54 713.13"/><path class="cls-66" d="M400,709.41l-7.4-4.3-6.33,3.68c-.07,0,7.32,4.34,7.32,4.34Z"/><polygon class="cls-9" points="383.86 707.5 376.46 703.2 376.46 704.76 383.86 709.06 390.26 705.34 390.26 703.78 383.86 707.5"/><path class="cls-67" d="M390.26,703.78l-7.39-4.3-6.34,3.68c-.07,0,7.33,4.34,7.33,4.34Z"/><polygon class="cls-9" points="374.17 701.88 366.77 697.58 366.77 699.13 374.17 703.44 380.57 699.71 380.57 698.15 374.17 701.88"/><path class="cls-68" d="M380.57,698.15l-7.39-4.3-6.34,3.68c-.07.05,7.33,4.35,7.33,4.35Z"/><polygon class="cls-9" points="364.48 696.25 357.08 691.95 357.08 693.51 364.48 697.81 370.88 694.09 370.88 692.52 364.48 696.25"/><path class="cls-69" d="M370.88,692.52l-7.39-4.3-6.33,3.69c-.08,0,7.32,4.34,7.32,4.34Z"/><polygon class="cls-9" points="354.79 690.62 347.4 686.32 347.4 687.88 354.79 692.18 361.2 688.46 361.2 686.9 354.79 690.62"/><path class="cls-70" d="M361.2,686.9l-7.4-4.3-6.33,3.68c-.07,0,7.32,4.34,7.32,4.34Z"/><polygon class="cls-9" points="467.4 739.87 460.01 735.57 460.01 734.01 471.29 736.05 471.29 737.62 467.4 739.87"/><polygon class="cls-71" points="467.4 738.31 460.01 734.01 463.89 731.75 471.29 736.05 467.4 738.31"/><polygon class="cls-9" points="458.21 734.52 450.82 730.22 450.82 728.66 462.1 730.71 462.1 732.26 458.21 734.52"/><polygon class="cls-72" points="458.21 732.96 450.82 728.66 454.7 726.4 462.1 730.71 458.21 732.96"/><polygon class="cls-9" points="449.03 729.17 441.63 724.87 441.63 723.31 452.91 725.35 452.91 726.91 449.03 729.17"/><polygon class="cls-73" points="449.03 727.61 441.63 723.31 445.51 721.05 452.91 725.35 449.03 727.61"/><polygon class="cls-9" points="439.84 723.82 432.44 719.52 432.44 717.96 443.72 720 443.72 721.56 439.84 723.82"/><polygon class="cls-74" points="439.84 722.26 432.44 717.96 436.32 715.7 443.72 720 439.84 722.26"/><polygon class="cls-9" points="430.65 718.47 423.25 714.17 423.25 712.61 434.53 714.65 434.53 716.21 430.65 718.47"/><polygon class="cls-75" points="430.65 716.91 423.25 712.61 427.14 710.35 434.53 714.65 430.65 716.91"/><polygon class="cls-9" points="421.46 713.12 414.07 708.82 414.07 707.26 425.34 709.3 425.34 710.86 421.46 713.12"/><polygon class="cls-76" points="421.46 711.56 414.07 707.26 417.95 705 425.34 709.3 421.46 711.56"/><polygon class="cls-9" points="412.27 707.77 404.88 703.47 404.88 701.91 416.15 703.95 416.15 705.51 412.27 707.77"/><polygon class="cls-77" points="412.27 706.21 404.88 701.91 408.76 699.65 416.15 703.95 412.27 706.21"/><polygon class="cls-9" points="403.08 702.42 395.69 698.12 395.69 696.56 406.96 698.6 406.96 700.16 403.08 702.42"/><polygon class="cls-78" points="403.08 700.86 395.69 696.56 399.57 694.3 406.96 698.6 403.08 700.86"/><polygon class="cls-9" points="393.9 697.07 386.5 692.76 386.5 691.21 397.78 693.25 397.78 694.81 393.9 697.07"/><polygon class="cls-79" points="393.9 695.51 386.5 691.21 390.38 688.95 397.78 693.25 393.9 695.51"/><polygon class="cls-9" points="384.71 691.72 377.31 687.42 377.31 685.86 388.59 687.9 388.59 689.46 384.71 691.72"/><polygon class="cls-80" points="384.71 690.16 377.31 685.86 381.19 683.6 388.59 687.9 384.71 690.16"/><polygon class="cls-9" points="375.52 686.37 368.12 682.06 368.12 680.5 379.4 682.55 379.4 684.11 375.52 686.37"/><polygon class="cls-81" points="375.52 684.81 368.12 680.5 372 678.25 379.4 682.55 375.52 684.81"/><polygon class="cls-82" points="313.49 681.9 399.92 632 347.77 601.89 261.33 651.79 313.49 681.9"/><path class="cls-8" d="M423.37,629.4l95.75,55.67s21.6-16.5,34.51-20.19L451.88,605.72a146.5,146.5,0,0,0-34.43,20c-.2.15,5.92,3.71,5.92,3.71Z"/><g class="cls-83"><path class="cls-84" d="M423.41,629.33c8.15,4.33,16.34,8.6,24.39,13.13l12.1,6.72,12,6.87q12,6.83,23.94,13.91l11.92,7c4,2.33,7.89,4.79,11.84,7.18l-1.51.88a17.74,17.74,0,0,1,1.68-1.68c.31-.26.64-.51.94-.72l.76-.52,3-2c2-1.4,4.07-2.64,6.15-3.89l3.11-1.88c1-.65,2.13-1.16,3.19-1.75l6.42-3.4c.07.14-6.19,3.79-6.19,3.79-1,.62-2.1,1.18-3.1,1.86l-3,2c-2,1.34-4,2.63-6,4.06l-5.82,4.17c-.17.1-95.9-55.6-95.9-55.6Z"/></g><path class="cls-7" d="M553.63,664.88A147,147,0,0,0,519.12,685v7.11l34.66-20.14v-7.11Z"/><path class="cls-85" d="M423.37,629.4l-6.12-3.56c0,2.38,0,4.74,0,7.09l101.9,59.25v-7.11Z"/><path class="cls-84" d="M478.5,600.69v42.07a3.51,3.51,0,0,0,2.05,2.88,10.87,10.87,0,0,0,9.9,0,3.51,3.51,0,0,0,2-2.88V600.69Z"/><polygon class="cls-8" points="518.68 643.61 512.18 639.84 512.18 638.21 518.68 641.98 518.68 643.61"/><polygon class="cls-8" points="526.96 648.43 520.46 644.65 520.46 643.02 526.96 646.8 526.96 648.43"/><polygon class="cls-8" points="535.23 653.24 528.74 649.46 528.74 647.83 535.23 651.61 535.23 653.24"/><path class="cls-7" d="M559.07,533.43,383.39,431.25a4,4,0,0,0-2.66-.62c-.25-.23-5.06,2.78-5.06,2.78l2.86,5.38v115.7a10.83,10.83,0,0,0,4.86,8.49L556.91,663.9l.92,4.21,3.8-2.33c1.38-.2,2.31-1.42,2.31-3.46V541.91A10.83,10.83,0,0,0,559.07,533.43Z"/><path class="cls-85" d="M555,667.53,379.32,565.35a10.84,10.84,0,0,1-4.87-8.49V436.45a3.62,3.62,0,0,1,1.22-3c.89-.65,2.19-.63,3.65.21L555,535.79a10.86,10.86,0,0,1,4.86,8.49V664.7C559.86,667.82,557.69,669.09,555,667.53Z"/><path class="cls-8" d="M557.82,543.09V658.91c-.07,1.73-1.3,2.4-2.83,1.5L379.32,558.24a6.31,6.31,0,0,1-2.83-4.93V437.63a1.83,1.83,0,0,1,1-1.9,2,2,0,0,1,1.81.26L555,538.16A6.26,6.26,0,0,1,557.82,543.09Z"/><path class="cls-86" d="M557.81,543.08V658.9a2.09,2.09,0,0,1-1.81-.31L380.32,556.42a6.29,6.29,0,0,1-2.82-4.93V435.72a2,2,0,0,1,1.81.26L555,538.15A6.28,6.28,0,0,1,557.81,543.08Z"/><polygon class="cls-8" points="445.63 487.95 382.9 451.74 382.9 445.46 445.63 481.67 445.63 487.95"/><polygon class="cls-8" points="495.86 516.95 466.06 499.75 466.06 493.47 495.86 510.68 495.86 516.95"/><polygon class="cls-8" points="412.14 493.4 382.9 476.52 382.9 470.25 412.14 487.13 412.14 493.4"/><polygon class="cls-8" points="430.14 503.79 417.51 496.5 417.51 490.22 430.14 497.52 430.14 503.79"/><polygon class="cls-8" points="445.94 512.92 434.21 506.14 434.21 499.87 445.94 506.64 445.94 512.92"/><polygon class="cls-8" points="417.51 510.32 382.9 490.35 382.9 484.07 417.51 504.05 417.51 510.32"/><polygon class="cls-87" points="433.88 519.78 421.96 512.89 421.96 506.62 433.88 513.5 433.88 519.78"/><polygon class="cls-87" points="433.63 533.46 382.9 504.17 382.9 497.89 433.63 527.18 433.63 533.46"/><polygon class="cls-8" points="448.5 542.05 431.64 532.31 431.64 526.03 448.5 535.77 448.5 542.05"/><polygon class="cls-8" points="466.61 552.5 452.84 544.55 452.84 538.27 466.61 546.22 466.61 552.5"/><polygon class="cls-8" points="416.44 537.36 382.9 518 382.9 511.72 416.44 531.08 416.44 537.36"/><polygon class="cls-8" points="432.69 546.74 421.05 540.02 421.05 533.74 432.69 540.46 432.69 546.74"/><polygon class="cls-8" points="418.98 552.65 382.9 531.82 382.9 525.54 418.98 546.37 418.98 552.65"/><polygon class="cls-8" points="431.78 560.04 421.96 554.37 421.96 548.09 431.78 553.76 431.78 560.04"/><polygon class="cls-87" points="452.66 572.1 435.89 562.41 435.89 556.13 452.66 565.82 452.66 572.1"/><polygon class="cls-8" points="417.25 565.48 382.9 545.65 382.9 539.37 417.25 559.2 417.25 565.48"/><polygon class="cls-87" points="434.61 575.5 419.13 566.56 419.13 560.28 434.61 569.22 434.61 575.5"/><polygon class="cls-8" points="467.74 510.86 382.9 461.88 382.9 455.6 467.74 504.58 467.74 510.86"/><polygon class="cls-8" points="521.59 541.94 475.57 515.37 475.57 509.1 521.59 535.66 521.59 541.94"/><polygon class="cls-8" points="543.51 658.05 537.02 654.28 537.02 652.65 543.51 656.43 543.51 658.05"/><polygon class="cls-8" points="536.06 653.61 529.57 649.83 529.57 648.2 536.06 651.98 536.06 653.61"/><path class="cls-84" d="M552.17,662.5c0,1.6-1.11,2.24-2.48,1.44a5.52,5.52,0,0,1-2.49-4.33c0-1.6,1.12-2.24,2.49-1.45A5.55,5.55,0,0,1,552.17,662.5Z"/><path class="cls-8" d="M550.8,665.92a3.81,3.81,0,0,1-1.92-.56,7.13,7.13,0,0,1-3.3-5.75,3.15,3.15,0,0,1,4.92-2.86,7.14,7.14,0,0,1,3.29,5.75C553.79,664.51,552.56,665.92,550.8,665.92Zm-2-6.37a3.92,3.92,0,0,0,1.68,3,3.71,3.71,0,0,0-1.62-2.95Z"/><path class="cls-88" d="M557.81,542.55V657.66a2.11,2.11,0,0,1-1.81-.3L380.32,555.18a6.29,6.29,0,0,1-2.82-4.92v-6.5c13.22-6.14,44.77-16.07,74.75-16.07C521.56,527.69,548.78,540.49,557.81,542.55Z"/><path class="cls-8" d="M626,746.82l95.75,55.67s21.6-16.5,34.52-20.19L654.48,723.14a146.5,146.5,0,0,0-34.43,20c-.2.15,5.91,3.71,5.91,3.71Z"/><g class="cls-83"><path class="cls-84" d="M626,746.75c8.15,4.33,16.34,8.6,24.38,13.13l12.11,6.72,12,6.87q12,6.82,23.94,13.91l11.92,7c4,2.33,7.89,4.79,11.84,7.18l-1.51.88a16.64,16.64,0,0,1,1.68-1.68c.31-.26.64-.51.94-.72l.75-.52,3-2c2-1.4,4.07-2.64,6.15-3.89l3.11-1.88c1-.65,2.13-1.17,3.19-1.75l6.41-3.4c.08.14-6.18,3.79-6.18,3.79-1,.62-2.11,1.18-3.11,1.86l-3,2c-2,1.34-4.06,2.63-6,4.06l-5.82,4.17c-.17.1-95.91-55.6-95.91-55.6Z"/></g><path class="cls-7" d="M756.23,782.3a147.23,147.23,0,0,0-34.52,20.08v7.11l34.66-20.14v-7.11Z"/><path class="cls-85" d="M626,746.82l-6.11-3.56c0,2.38,0,4.73,0,7.09L721.71,809.6v-7.11Z"/><path class="cls-84" d="M681.1,718.11v42.07a3.51,3.51,0,0,0,2,2.88,10.91,10.91,0,0,0,9.89,0,3.51,3.51,0,0,0,2.05-2.88V718.11Z"/><polygon class="cls-8" points="721.28 761.03 714.78 757.26 714.78 755.63 721.28 759.4 721.28 761.03"/><polygon class="cls-8" points="729.55 765.85 723.06 762.07 723.06 760.44 729.55 764.22 729.55 765.85"/><polygon class="cls-8" points="737.83 770.66 731.34 766.88 731.34 765.25 737.83 769.03 737.83 770.66"/><path class="cls-7" d="M761.67,650.84,586,548.67a4,4,0,0,0-2.67-.62c-.24-.23-5.05,2.78-5.05,2.78l2.86,5.38v115.7A10.83,10.83,0,0,0,586,680.4L759.51,781.32l.91,4.21,3.81-2.33c1.38-.2,2.31-1.42,2.31-3.46V659.33A10.87,10.87,0,0,0,761.67,650.84Z"/><path class="cls-85" d="M757.6,784.94,581.92,682.77a10.84,10.84,0,0,1-4.87-8.49V553.87a3.61,3.61,0,0,1,1.22-3c.89-.65,2.19-.63,3.65.21L757.6,653.21a10.88,10.88,0,0,1,4.86,8.49V782.12C762.46,785.24,760.28,786.51,757.6,784.94Z"/><path class="cls-8" d="M760.42,660.51V776.33c-.07,1.73-1.3,2.39-2.83,1.49L581.92,675.66a6.3,6.3,0,0,1-2.83-4.93V555.05a1.84,1.84,0,0,1,1-1.9,2.05,2.05,0,0,1,1.82.26L757.59,655.58A6.26,6.26,0,0,1,760.42,660.51Z"/><path class="cls-86" d="M760.41,660.5V776.32a2.12,2.12,0,0,1-1.81-.31L582.92,673.84a6.29,6.29,0,0,1-2.82-4.93V553.14a2,2,0,0,1,1.81.26L757.59,655.57A6.28,6.28,0,0,1,760.41,660.5Z"/><path class="cls-89" d="M630.8,681.69a2.11,2.11,0,0,1-1.06-.29l-35-20.21a2.11,2.11,0,0,1,0-3.65l34.79-20.08a2.1,2.1,0,0,1,2.11,0l35,20.21a2.11,2.11,0,0,1,0,3.65l-34.8,20.08A2.1,2.1,0,0,1,630.8,681.69ZM600,659.37l30.81,17.78,30.58-17.66-30.8-17.78Z"/><path class="cls-89" d="M630.8,653.62a2.11,2.11,0,0,1-1.06-.29l-35-20.21a2.11,2.11,0,0,1,0-3.65l34.79-20.09a2.1,2.1,0,0,1,2.11,0l35,20.22a2.1,2.1,0,0,1,0,3.64l-34.8,20.09A2.1,2.1,0,0,1,630.8,653.62ZM600,631.3l30.81,17.78,30.58-17.66-30.8-17.79Z"/><path class="cls-89" d="M630.8,681.69a2.11,2.11,0,0,1-1.06-.29l-35-20.21a2.11,2.11,0,0,1-1.05-1.82l-.11-28a2.1,2.1,0,0,1,3.15-1.83l35,20.21a2.09,2.09,0,0,1,1,1.81l.11,28.06a2.12,2.12,0,0,1-2.1,2.12Zm-32.92-23.54,30.8,17.77-.09-23.18L597.79,635Z"/><path class="cls-89" d="M665.59,661.59a2.1,2.1,0,0,1-1.05-.29l-35-20.22a2.12,2.12,0,0,1-1-1.81l-.1-28.06a2.09,2.09,0,0,1,1-1.83,2.12,2.12,0,0,1,2.11,0l35,20.22a2.09,2.09,0,0,1,1.05,1.81l.11,28.06a2.12,2.12,0,0,1-2.11,2.12ZM632.68,638l30.79,17.78-.09-23.18-30.79-17.78Z"/><path class="cls-89" d="M630.92,681.69a2.12,2.12,0,0,1-2.11-2.12l.11-28.06A2.09,2.09,0,0,1,630,649.7l35-20.21a2.11,2.11,0,0,1,3.16,1.83l-.12,28a2.11,2.11,0,0,1-1,1.82L632,681.4A2.1,2.1,0,0,1,630.92,681.69Zm2.2-29L633,675.92l30.8-17.77.09-23.19Z"/><path class="cls-89" d="M701.16,721.47a2.09,2.09,0,0,1-1-.28l-35-20.21a2.11,2.11,0,0,1,0-3.65l34.8-20.09a2.14,2.14,0,0,1,2.11,0l35,20.22a2.1,2.1,0,0,1,0,3.64l-34.79,20.09A2.1,2.1,0,0,1,701.16,721.47Zm-30.8-22.32,30.8,17.79,30.59-17.66L701,681.5Z"/><path class="cls-89" d="M701.16,721.47a2.09,2.09,0,0,1-1-.28l-35-20.21a2.1,2.1,0,0,1-1-1.39,2.08,2.08,0,0,1,.35-1.67l34.8-48.16a2.1,2.1,0,0,1,3.81,1.23l.22,68.37a2.12,2.12,0,0,1-1,1.83A2.1,2.1,0,0,1,701.16,721.47Zm-31.94-23L699,715.71l-.18-58.23Z"/><path class="cls-89" d="M736,701.37a2.07,2.07,0,0,1-1.05-.28l-35-20.22a2.08,2.08,0,0,1-1-1.81L698.73,651a2.1,2.1,0,0,1,1.45-2,2.13,2.13,0,0,1,2.36.76L737.66,698a2.09,2.09,0,0,1-1.7,3.34Zm-32.91-23.54,25.36,14.65L703,657.5Z"/><polygon class="cls-8" points="746.11 775.47 739.61 771.7 739.61 770.07 746.11 773.85 746.11 775.47"/><polygon class="cls-8" points="738.66 771.03 732.17 767.25 732.17 765.62 738.66 769.4 738.66 771.03"/><path class="cls-84" d="M754.77,779.92c0,1.59-1.11,2.24-2.48,1.44A5.51,5.51,0,0,1,749.8,777c0-1.6,1.11-2.25,2.49-1.45A5.55,5.55,0,0,1,754.77,779.92Z"/><path class="cls-8" d="M753.39,783.34a3.78,3.78,0,0,1-1.91-.56,7.13,7.13,0,0,1-3.3-5.75,3.15,3.15,0,0,1,4.92-2.86,7.12,7.12,0,0,1,3.29,5.75C756.39,781.93,755.16,783.34,753.39,783.34Zm-2-6.37a3.92,3.92,0,0,0,1.68,3,3.74,3.74,0,0,0-1.62-3Z"/><path class="cls-90" d="M760.41,660V775.08a2.11,2.11,0,0,1-1.81-.3L582.92,672.6a6.29,6.29,0,0,1-2.82-4.92v-6.5c13.22-6.14,44.77-16.07,74.74-16.07C724.15,645.11,751.38,657.91,760.41,660Z"/><path class="cls-91" d="M240.75,778.25l-17,69.69s-6,5.49-7.7,5.3c-.51-.2-.58-.66-.3-1.57,1.54-5.07,5.68-7.76,6.71-14.32.75-4.78,9.74-39.37,14.56-57.77,1.48-5.64-1.53-9-5.94-6.53l-6.69,3.69c-21.78,12.06-59.06,33-63.41,37.64-6.21,6.56-19.64,23.27-19.64,23.27s-2.38,1.65-2.7.62c-.15-.49.16-1.59,1.41-3.75,0,0,9.49-13,17.14-20.54l.54-.52q.66-.63,1.29-1.2l.63-.55.61-.51c.56-.44.81-.63,1.06-.8.62-.43.92-.62,1.2-.79l62.74-36.22,6.83-3.95a11.07,11.07,0,0,1,1.89-.86,8,8,0,0,1,2.41-.38C241.28,768.08,244.21,771.88,240.75,778.25Z"/><path class="cls-92" d="M237,779.58c-4.82,18.4-13.81,53-14.56,57.77-1,6.56-5.17,9.25-6.71,14.32-.28.91-.21,1.37.11,1.52-1.61-.41-13.19-3.51-11.74-8.23,1.55-5.07,5.68-7.76,6.72-14.32.7-4.47,8.58-34.91,13.55-53.9l6.69-3.69C235.48,770.62,238.49,773.94,237,779.58Z"/><path class="cls-91" d="M236.38,768.2a6.5,6.5,0,0,0-2.41.38,11.07,11.07,0,0,0-1.89.86l-6.83,3.95-62.74,36.22c-.28.17-.58.36-.89.57-.56.39-.81.58-1.07.79l-.91.74-.63.55q-.63.57-1.29,1.2l-.54.52c-7.65,7.51-17.14,20.54-17.14,20.54-1.25,2.16-1.56,3.26-1.41,3.75,0,0-10.84-6.4-10.84-6.4-.94.18-1.46-.46.62-4.06,0,0,15-20.59,22.48-24.91l69.57-40.17a6.32,6.32,0,0,1,5.24-.11l3.89,2Z"/><polygon class="cls-5" points="276.36 903.58 275.5 954.3 270.76 949.26 276.36 903.58"/><g class="cls-93"><path class="cls-94" d="M367.58,1103.33a3.51,3.51,0,0,1-1,.6Z"/><path class="cls-95" d="M359.59,1107.69c0,2.13-.65,3.53-1.62,4.34-1.33,1.11-3.35,1.14-5.6-.16a16,16,0,0,1-7.23-12.53,6.84,6.84,0,0,1,.59-3,3.67,3.67,0,0,1,2.15-2,5.54,5.54,0,0,1,4.49.78,11.69,11.69,0,0,1,2.12,1.6,17,17,0,0,1,4.78,8.28,11.63,11.63,0,0,1,.31,2.14C359.59,1107.36,359.59,1107.53,359.59,1107.69Z"/><path class="cls-96" d="M360.17,1104.21a6.94,6.94,0,0,1-.59,3,11.63,11.63,0,0,0-.31-2.14,17,17,0,0,0-4.78-8.28,11.69,11.69,0,0,0-2.12-1.6,5.57,5.57,0,0,0-4.48-.79,3.71,3.71,0,0,0-2.16,2c0-.18,0-.35,0-.51,0-2.65,1.07-4.4,2.74-5a5.39,5.39,0,0,1,4.28.67,11.71,11.71,0,0,1,2.33,1.71,17,17,0,0,1,4.78,8.28A11.68,11.68,0,0,1,360.17,1104.21Z"/><path class="cls-97" d="M369.21,1099a6.94,6.94,0,0,1-.59,3,4,4,0,0,1-1,1.35l-1,.6-7,4c0-.42,0-.59,0-.76a6.94,6.94,0,0,0,.59-3,11.68,11.68,0,0,0-.32-2.64,17,17,0,0,0-4.78-8.28,11.69,11.69,0,0,0-2.12-1.6,5.66,5.66,0,0,0-4.48-.79l7.84-4.53c1.34-1.16,3.38-1.21,5.67.11A16,16,0,0,1,369.21,1099Z"/><path class="cls-98" d="M368.63,1102.48a5.44,5.44,0,0,1-1.63,4.33l-1,.59-8,4.63a5.33,5.33,0,0,0,1.62-4.08l7-4,1-.6a4,4,0,0,0,1-1.35C368.63,1102.14,368.63,1102.31,368.63,1102.48Z"/><path class="cls-94" d="M194.74,1003.55a3.24,3.24,0,0,1-1,.59Z"/><path class="cls-95" d="M186.76,1007.91c0,2.12-.65,3.52-1.63,4.33-1.32,1.11-3.34,1.14-5.6-.16a16,16,0,0,1-7.23-12.52,6.71,6.71,0,0,1,.6-3,3.64,3.64,0,0,1,2.15-2,5.52,5.52,0,0,1,4.48.78,12.23,12.23,0,0,1,2.13,1.6,17.08,17.08,0,0,1,4.78,8.29,12.3,12.3,0,0,1,.31,2.13C186.76,1007.57,186.76,1007.74,186.76,1007.91Z"/><path class="cls-96" d="M187.34,1004.43a6.89,6.89,0,0,1-.59,3,12.3,12.3,0,0,0-.31-2.13,17.08,17.08,0,0,0-4.78-8.29,12.23,12.23,0,0,0-2.13-1.6,5.5,5.5,0,0,0-4.47-.78,3.63,3.63,0,0,0-2.16,2c0-.17,0-.34,0-.51,0-2.65,1.08-4.39,2.75-5a5.43,5.43,0,0,1,4.28.67,12.46,12.46,0,0,1,2.33,1.72,17,17,0,0,1,4.78,8.28A11.61,11.61,0,0,1,187.34,1004.43Z"/><path class="cls-97" d="M196.38,999.21a6.93,6.93,0,0,1-.6,3,4,4,0,0,1-1,1.36l-1,.59-7,4c0-.42,0-.59,0-.76a6.89,6.89,0,0,0,.59-3,11.61,11.61,0,0,0-.32-2.64,17,17,0,0,0-4.78-8.28,11.75,11.75,0,0,0-2.13-1.6,5.59,5.59,0,0,0-4.47-.79l7.84-4.53c1.33-1.17,3.38-1.22,5.67.1A16,16,0,0,1,196.38,999.21Z"/><path class="cls-98" d="M195.8,1002.69a5.46,5.46,0,0,1-1.63,4.34l-1,.59-8,4.62a5.3,5.3,0,0,0,1.63-4.08l7-4,1-.59a3.85,3.85,0,0,0,1-1.36C195.79,1002.35,195.8,1002.52,195.8,1002.69Z"/><path class="cls-94" d="M194.74,1103.33a3.27,3.27,0,0,1-1,.6Z"/><path class="cls-95" d="M186.76,1107.69c0,2.13-.65,3.53-1.63,4.34-1.32,1.11-3.34,1.14-5.6-.16a16,16,0,0,1-7.23-12.53,6.69,6.69,0,0,1,.6-3,3.64,3.64,0,0,1,2.15-2,5.52,5.52,0,0,1,4.48.78,11.75,11.75,0,0,1,2.13,1.6,17.1,17.1,0,0,1,4.78,8.28,12.55,12.55,0,0,1,.31,2.14C186.76,1107.36,186.76,1107.53,186.76,1107.69Z"/><path class="cls-96" d="M187.34,1104.21a6.94,6.94,0,0,1-.59,3,12.55,12.55,0,0,0-.31-2.14,17.1,17.1,0,0,0-4.78-8.28,11.75,11.75,0,0,0-2.13-1.6,5.55,5.55,0,0,0-4.47-.79,3.68,3.68,0,0,0-2.16,2c0-.18,0-.35,0-.51,0-2.65,1.08-4.4,2.75-5a5.39,5.39,0,0,1,4.28.67,12,12,0,0,1,2.33,1.71,17.1,17.1,0,0,1,4.78,8.28A11.68,11.68,0,0,1,187.34,1104.21Z"/><path class="cls-97" d="M196.38,1099a6.93,6.93,0,0,1-.6,3,3.82,3.82,0,0,1-1,1.35l-1,.6-7,4c0-.42,0-.59,0-.76a6.94,6.94,0,0,0,.59-3,11.68,11.68,0,0,0-.32-2.64,17.1,17.1,0,0,0-4.78-8.28,11.75,11.75,0,0,0-2.13-1.6,5.63,5.63,0,0,0-4.47-.79l7.84-4.53c1.33-1.16,3.38-1.21,5.67.11A16,16,0,0,1,196.38,1099Z"/><path class="cls-98" d="M195.8,1102.48a5.44,5.44,0,0,1-1.63,4.33l-1,.59-8,4.63a5.3,5.3,0,0,0,1.63-4.08l7-4,1-.6a3.73,3.73,0,0,0,1-1.35C195.79,1102.14,195.8,1102.31,195.8,1102.48Z"/><path class="cls-94" d="M367.58,1003.55a3.48,3.48,0,0,1-1,.59Z"/><path class="cls-95" d="M359.59,1007.91c0,2.12-.65,3.52-1.62,4.33-1.33,1.11-3.35,1.14-5.6-.16a16,16,0,0,1-7.23-12.52,6.86,6.86,0,0,1,.59-3,3.67,3.67,0,0,1,2.15-2,5.54,5.54,0,0,1,4.49.78,12.16,12.16,0,0,1,2.12,1.6,17,17,0,0,1,4.78,8.29,11.41,11.41,0,0,1,.31,2.13C359.59,1007.57,359.59,1007.74,359.59,1007.91Z"/><path class="cls-96" d="M360.17,1004.43a6.89,6.89,0,0,1-.59,3,11.41,11.41,0,0,0-.31-2.13,17,17,0,0,0-4.78-8.29,12.16,12.16,0,0,0-2.12-1.6,5.52,5.52,0,0,0-4.48-.78,3.66,3.66,0,0,0-2.16,2c0-.17,0-.34,0-.51,0-2.65,1.07-4.39,2.74-5a5.43,5.43,0,0,1,4.28.67,12.14,12.14,0,0,1,2.33,1.72,16.93,16.93,0,0,1,4.78,8.28A11.61,11.61,0,0,1,360.17,1004.43Z"/><path class="cls-97" d="M369.21,999.21a6.94,6.94,0,0,1-.59,3,4.1,4.1,0,0,1-1,1.36l-1,.59-7,4c0-.42,0-.59,0-.76a6.89,6.89,0,0,0,.59-3,11.61,11.61,0,0,0-.32-2.64,16.93,16.93,0,0,0-4.78-8.28,11.69,11.69,0,0,0-2.12-1.6c-1.82-1-3.3-1.19-4.48-.79l7.84-4.53c1.34-1.17,3.38-1.22,5.67.1A16,16,0,0,1,369.21,999.21Z"/><path class="cls-98" d="M368.63,1002.69A5.46,5.46,0,0,1,367,1007l-1,.59-8,4.62a5.33,5.33,0,0,0,1.62-4.08l7-4,1-.59a4.1,4.1,0,0,0,1-1.36C368.63,1002.35,368.63,1002.52,368.63,1002.69Z"/><path class="cls-99" d="M363.94,983.54c-.86-.18-3.55-2.46-4.65-2.69-26.76-5.61-57.76,1.73-88.76,19.58s-62.24,46.46-89.11,83.11c-2.18,3-2.82,6.52-1.49,7.85,1,1,4,2,4.65,2.69,1.39,1.38,4.1.14,6.15-2.65,25.46-34.74,55-61.77,84.45-78.76s58.74-23.88,84.1-18.56c2.05.43,4.76-1.46,6.1-4.34S366.12,984,363.94,983.54Z"/><path class="cls-99" d="M363.94,1086.23c-26.76-36.52-57.75-65-88.75-82.9s-62.25-25.43-89.12-19.79c-1.1.23-3.79,2.5-4.65,2.68-2.18.46-2.82,3.26-1.49,6.13s4.1,4.88,6.15,4.45c25.46-5.34,54.95,1.69,84.45,18.75s58.74,44,84.1,78.56c2.05,2.79,4.76,4,6.1,2.7.7-.69,3.73-1.78,4.65-2.69C366.77,1092.75,366.12,1089.2,363.94,1086.23Z"/><path class="cls-100" d="M273.92,1009a9.58,9.58,0,0,1-8.69,0c-1.79-1-2.25-2.53-1.38-3.8V900l11.62,6.71v98.73C276.08,1006.67,275.56,1008,273.92,1009Z"/><path class="cls-101" d="M264,706.41s13.58,2.41,18.05,1.21,16.87-3.31,21.07-3.33,5.19-.59,5.19-.59l25.18-11.85,19.54-7.5s10.13,1.13,13.8,0,6.66-1.88,5.17,1.08-5.5,4.93-8.9,5.17a12.81,12.81,0,0,0-5.14,1.25l14.75.76s1.26,5.86-3,5.87-15.36.85-15.36.85a34.79,34.79,0,0,0-9.93,7.41,43.76,43.76,0,0,0-6.73,9.66s2.38,4.38,9.16,3,9.67,2.85,9.67,5.06-5,5.34-7.87,4.83-5.55-2.17-6.34-2.13-3.16,1-11.32-.39-17-5.17-20.53-5.24a105.43,105.43,0,0,0-11.05,1s-47.74,6.28-57.17,5.76-22.59-.81-19.43-18.7S264,706.41,264,706.41Z"/><path class="cls-102" d="M295.93,834.24l6.13,118.34a2.21,2.21,0,0,0,1.14,2.33c4,2.31,17.09-1.54,29.31-8.6,5.06-2.92,9.57-88.7,12.37-91.39,1.46-1,2-36.13,2-36.13Z"/><path class="cls-103" d="M321.78,640.29c-2.1,5.1-5.6,6-5.42,9.14s3.17,1.93.17,7.89-4.21,18.07-12.28,20.89l-.68.21c-7.64,2.47-12,.08-13,6.32-1.08,6.47-4.29,21.75-3.54,22.54C355,776.87,209.41,715.38,246,685l8.74-21,.4-.92s-14-20.36-9.14-37S261.79,601,287.4,600.83s31.24,16.86,32.28,20.35S323.89,635.22,321.78,640.29Z"/><path class="cls-101" d="M321.78,640.29c-2.1,5.1-5.6,6-5.42,9.14s3.17,1.93.17,7.89-4.21,18.07-12.28,20.89l-.68.21c-.39-.71-36,6.65-37.56-6.18-1.1-9.26-7.29-4.24-11.29-8.21l.4-.92s-14-20.36-9.14-37S261.79,601,287.4,600.83s31.24,16.86,32.28,20.35S323.89,635.22,321.78,640.29Z"/><path class="cls-92" d="M245.11,809.15h-9v2.56a2.17,2.17,0,0,0,1.33,2.09,7,7,0,0,0,6.37,0,2.1,2.1,0,0,0,1.3-2.09S245.11,809.15,245.11,809.15Z"/><path class="cls-5" d="M243.79,811a7,7,0,0,1-6.37,0c-1.77-1-1.77-2.66,0-3.68a7,7,0,0,1,6.37,0C245.56,808.33,245.56,810,243.79,811Z"/><path class="cls-92" d="M275.93,861.17h-9v2.56a2.14,2.14,0,0,0,1.32,2.08,7,7,0,0,0,6.38,0,2.12,2.12,0,0,0,1.3-2.08S275.93,861.17,275.93,861.17Z"/><path class="cls-5" d="M274.61,863a7.1,7.1,0,0,1-6.38,0c-1.77-1-1.77-2.67,0-3.68a7,7,0,0,1,6.38,0C276.37,860.34,276.37,862,274.61,863Z"/><path class="cls-102" d="M361.64,807.26c-21-7.23-57,11.63-84.49,25.09,1.68,23.23,6.83,46,10.89,69,20.46-7.1,37.19-29,61.71-46.51L373,842.91C374.57,818.84,372.78,811.08,361.64,807.26Z"/><path class="cls-104" d="M312.92,929.12,296.1,942c.2,15.48.17,23.1,6.17,27.13,7.29,4.91,19.61,1,27.06-2.47l2-6c7.15-1,5.55,1.14,13.3-3.16,13-7.19,32-18.31,34.58-31.18.65-3.29-1.88-9.23-5.2-8.66l-30.54,10.59Z"/><path class="cls-104" d="M385.45,982.29l-17.34,12.14c-.46,15.48-.82,23.09,5,27.37,7.08,5.21,19.56,1.78,27.14-1.32l2.26-5.9c10.2-1,7.41.57,17.78-4.81,12.55-6.5,27.82-15.67,30.57-27,.8-3.26-1.48-9.27-4.82-8.86l-21.58,9.57Z"/><path class="cls-105" d="M411.06,835.6c-2.11,10.49-27.77,32.1-30.31,42.49,0,0-12.1,120.56-11.54,121.12,3.2,3.29,34.42,8.95,38.84-16.26,13.09-3.38,30.66-123.07,30.66-123.07C446.28,834.69,417.73,813.24,411.06,835.6Z"/><path class="cls-96" d="M411.68,906.36l-56.75,17.5-34.72,26.6-36.7,12.36-8-8.52-4.74-5,5.59-45.68L278.14,889l-9.39-35.25-5-27.15c4.91-.39,9.08,0,11.21,1.38C275.22,827.94,411.68,906.36,411.68,906.36Z"/><path class="cls-105" d="M250.63,836.26l-43.55-1.69c-5.23,23.71-2.29,51.74,8.63,63.17,15.75,16.47,46.2,38.81,76.66,31.84,22.61-5.19,61.55-28.36,87.86-47.11l57.48-25.21c10.84-21.64,16.5-35.17-13.75-41.67-21.73-4.66-79.22,18.73-106.71,32.18Z"/><path class="cls-106" d="M306.41,901.85c-4.05,1.67-9.44,1.59-15.48.48-23-4.13-84.37-24.5-83.24-64,.47-16.58,12.17-19.21-3.7-61.9C173.34,694,217,671.55,225.36,671.55c8.5,0,23.39,6.83,23.39,6.83s-10.37,15.49,4.87,24.94c24.85,15.32,25.57,7.7,34.22,6.64,10-1.23,25,13.78,33.56,22.47,16.31,16.62-7.37,67.5-.62,80.92s12.14,45.16,12.14,45.16S339.67,888.36,306.41,901.85Z"/><path class="cls-107" d="M306.41,901.85c-4.05,1.67-9.44,1.59-15.48.48-7.86-14.37-5.87-44.53-13.57-70.09-11.43-37.79,0-89.23,17.22-93.91a13.87,13.87,0,0,1,5-.48c5.16,4,9.45,7.47,10.72,8.74,2.62,2.62,3.81,8.09,4.05,15.08.08,2.38.08,5-.08,7.78-.32,7.7-.24,30.48,6.51,43.9s12.14,45.16,12.14,45.16S339.67,888.36,306.41,901.85Z"/><path class="cls-101" d="M339.75,806.86s18-23.62,20.18-28.1,18.19-28.34,18.19-28.34L372,745.63s-1.1-4.66-2.88-5.77-7.6-4.56-4.69-6.65,7.74-1.16,10.33,2.19,4.12,5.06,4.12,5.06l6.22-14.93.11-14.7s-.34-6.65,2.34-7,5.81-.24,4.12,3.79.43,5.61.43,5.61l1.63,13.17,3.52-12.65s3.52-5.55,4.05-7.51,4.48-1.77,4.6,1-.39,10.27-.39,10.27l-3.38,10.69,6.93-11.53,7.59-6.73s5.11-.38,3.3,3.15a52.76,52.76,0,0,1-5.34,7.77l-5.55,12.33,9.14-2.33,9.23.26s.2,5-2.84,5.27a37.38,37.38,0,0,0-5.17.75l-6.62,3.3s-2,11-6.1,14.53a61.25,61.25,0,0,1-8.16,5.85s-35.43,81.5-47.3,88.33S333.19,820,339.75,806.86Z"/><path class="cls-107" d="M334.9,795.75s6.81-10.58,18.57-7.34,23.31,19.93,21.65,30.38S360.77,850.88,347.56,850,320.72,811.51,334.9,795.75Z"/><path class="cls-106" d="M285.85,759.28c.15,22.38,29,109,59.57,93.58s4.4-49.36,0-61.2-7.37-60.38-28.66-61.91S285.71,736.91,285.85,759.28Z"/><path class="cls-103" d="M300.22,658.24c-.53,0,1.65-4.79-2.6-2.86s-6,4.42-6.7,7.73c-.74,3.62-.88,12.3,1.57,10.54s5.13-6.85,5.13-6.85h-3c-1.58,0,0-6.16.94-7.37C299.2,654.62,300.22,658.24,300.22,658.24Z"/><path class="cls-108" d="M277,671.88s4.22-9.92,23.73-18.65c9.55-4.27,32.07-26.74,12.45-43.12-3.37-2.83-8.17-7.18-21-9.11s-42.65,6.41-44.31,32.38C245.57,669.12,269.66,687.14,277,671.88Z"/><path class="cls-109" d="M276.35,903.58l-5.59,45.68,4.74,5-.15,8.52L144.58,888l-.3-.83a11.11,11.11,0,0,1-1.92-.86c-20.8-12-4.13-39.58-4.13-61.7s-13.95-60-14.47-68.07,2.2-14.24,3.36-13.57l135.63,78.3,1,5.39,5,27.15,7.74,42Z"/><path class="cls-97" d="M262.75,821.24s22.74,60.56,22,73.84-15.37,52.28-1,60.55,79.31-37.43,89.9-43.55,38.5-11.19,38.5-3.13-13.95-.6-24.8,5.67-88.49,62-109.28,50-4.14-39.57-4.14-61.69-13.95-60-14.47-68.07S261.59,820.57,262.75,821.24Z"/><path class="cls-97" d="M388,863.27,371,933s-6,5.49-7.7,5.3c-.51-.2-.58-.66-.31-1.57,1.55-5.07,5.69-7.76,6.72-14.32.75-4.78,9.74-39.37,14.56-57.77,1.48-5.64-1.53-9-5.94-6.53l-6.7,3.69c-21.77,12.06-59.05,33-63.41,37.64-6.2,6.56-19.63,23.27-19.63,23.27s-2.38,1.65-2.7.62c-.15-.49.16-1.59,1.41-3.75,0,0,9.49-13,17.14-20.54l.53-.52c.44-.42.88-.83,1.3-1.2l.63-.55.61-.51c.56-.44.81-.63,1.06-.8.62-.43.91-.63,1.2-.79l62.74-36.22,6.83-3.95a10.41,10.41,0,0,1,1.89-.86,6.47,6.47,0,0,1,2.41-.38C387.37,853.37,389.45,857.35,388,863.27Z"/><path class="cls-109" d="M384.27,864.6c-4.82,18.4-13.81,53-14.56,57.77-1,6.56-5.17,9.25-6.72,14.32-.27.91-.2,1.37.12,1.52-1.61-.41-13.19-3.51-11.74-8.23,1.55-5.08,5.68-7.76,6.72-14.32.7-4.47,8.58-34.91,13.54-53.9l6.7-3.69C382.74,855.64,385.75,859,384.27,864.6Z"/><path class="cls-109" d="M383.64,853.22a6.47,6.47,0,0,0-2.41.38,10.41,10.41,0,0,0-1.89.86l-6.83,3.95-62.74,36.22c-.29.16-.58.36-.89.57-.56.39-.81.58-1.07.79l-.91.74-.63.55c-.42.37-.86.78-1.3,1.2l-.53.52c-7.65,7.5-17.14,20.54-17.14,20.54-1.25,2.16-1.56,3.26-1.41,3.75,0,0-10.84-6.4-10.84-6.4-.94.18-1.46-.46.62-4.06,0,0,15-20.59,22.48-24.91l69.57-40.17a6.32,6.32,0,0,1,5.24-.11l3.89,2Z"/><path class="cls-110" d="M271.42,678.38s-.61-36.16,18.91-44.89c9.54-4.27,39.72-5.27,30.66-36.32-1.23-4.22-10.22-20.91-48.31-6.69-10.94,4.09-28.76,11.75-30.42,37.72C240,663.94,243.92,676.22,271.42,678.38Z"/></g><polygon class="cls-111" points="564.04 861.18 657.37 811.47 657.37 805.02 657.37 800.46 496.73 815.28 496.73 826.29 564.04 861.18"/><polygon class="cls-112" points="564.04 850.17 657.37 800.46 590.06 765.57 496.73 815.28 564.04 850.17"/><polygon class="cls-113" points="612 811.45 632.89 800.62 594.38 780.65 573.5 791.48 612 811.45"/><polygon class="cls-114" points="565.11 852.96 565.11 858.81 499.26 825.46 499.26 818.93 565.11 852.96"/><polygon class="cls-115" points="565.11 852.96 657.37 804.17 657.37 809.34 565.11 858.81 565.11 852.96"/><polygon class="cls-116" points="521.76 369.76 432.23 318.07 432.23 215.34 521.76 267.03 521.76 369.76"/><polygon class="cls-117" points="543.76 357.28 521.66 369.76 521.66 267.03 543.76 254.54 543.76 357.28"/><polygon class="cls-118" points="521.94 266.87 432.41 215.18 453.95 203.01 543.48 254.7 521.94 266.87"/><path class="cls-94" d="M464.24,279.08a10.81,10.81,0,0,1-2.15,5,32.25,32.25,0,0,1,2.47,10V307a17.31,17.31,0,0,0,.2,2.8c.45,2.75,1.75,4.73,4.72,6.45l1,.59v12.95l-1-.59a49.45,49.45,0,0,1-4.72-3.09c-7.4-5.57-11.08-12.4-11.95-21.66V291.65a17.69,17.69,0,0,0-.2-2.85c-.45-2.75-1.75-4.69-4.72-6.4l-1-.59V268.88l1,.59a12.63,12.63,0,0,0,1.34.66,5.29,5.29,0,0,0,1.2.36h.51a1.18,1.18,0,0,0,.77-.3,1,1,0,0,0,.3-.29,2.2,2.2,0,0,0,.45-.85c.05-.18.11-.37.15-.58a13.92,13.92,0,0,0,.2-2.61V254.21c.87-8.23,4.53-10.78,11.95-7.77a39.8,39.8,0,0,1,4.72,2.36l1,.59v12.93l-1-.59c-3-1.72-4.27-1.28-4.72,1a13.56,13.56,0,0,0-.2,2.61V277C464.45,277.81,464.35,278.46,464.24,279.08Z"/><path class="cls-94" d="M489.75,306.39a10.81,10.81,0,0,1,2.15-5,32.53,32.53,0,0,1-2.47-10V279.68a16.24,16.24,0,0,0-.2-2.8c-.45-2.75-1.75-4.74-4.72-6.45l-1-.59V256.89l1,.59a47.58,47.58,0,0,1,4.72,3.08c7.4,5.58,11.08,12.41,11.95,21.66v11.6a16.64,16.64,0,0,0,.21,2.85c.44,2.75,1.74,4.69,4.71,6.4l1,.59v12.93l-1-.59a11,11,0,0,0-1.34-.66,4.83,4.83,0,0,0-1.2-.36h-.5a1.18,1.18,0,0,0-.78.29,1.42,1.42,0,0,0-.3.3,2.2,2.2,0,0,0-.44.85,3.07,3.07,0,0,0-.15.58,13,13,0,0,0-.21,2.61v12.89c-.87,8.22-4.53,10.78-11.95,7.77a39.8,39.8,0,0,1-4.72-2.36l-1-.59V324.38l1,.59c3,1.71,4.27,1.27,4.72-1a12.81,12.81,0,0,0,.2-2.61V308.49C489.54,307.66,489.64,307,489.75,306.39Z"/><polygon class="cls-116" points="370.65 159.87 291.96 114.25 291.96 53.62 370.65 99.23 370.65 159.87"/><polygon class="cls-117" points="383.64 152.5 370.6 159.87 370.6 99.23 383.64 91.86 383.64 152.5"/><polygon class="cls-118" points="370.76 99.14 292.07 53.52 304.78 46.34 383.47 91.96 370.76 99.14"/><path class="cls-94" d="M308.16,97.67l8.66,13.67v2.46L310.3,110l-9.25-14.81V91.94l9.25-4.12,6.52,3.76V94Z"/><path class="cls-94" d="M325.07,124.94l-6.43-3.71v-2l17.54-24.49,6.38,3.68v2Z"/><path class="cls-94" d="M344.39,107.49l6.56,3.79,9.25,14.81v3.29L351,133.51l-6.56-3.79v-2.46l8.7-3.66-8.7-13.7Z"/><polygon class="cls-112" points="1148.05 858.5 1062.04 808.85 1062.04 710.15 1148.05 759.81 1148.05 858.5"/><polygon class="cls-111" points="1169.18 846.5 1147.95 858.5 1147.95 759.81 1169.18 747.81 1169.18 846.5"/><polygon class="cls-113" points="1148.22 759.65 1062.21 710 1082.91 698.31 1168.91 747.97 1148.22 759.65"/><path class="cls-119" d="M1082.32,803.9l-.62-.35c-7.28-4.21-10.2-9.54-10.2-17.77V746.57c0-8.24,2.92-10.14,10.2-5.94l.62.36v7.82l-.62-.36c-2.36-1.36-3-.48-3,2.17v39.51c0,2.58.61,4.23,3,5.6l.62.35Z"/><path class="cls-119" d="M1128.39,822.68c2.35,1.36,3,.42,3-2.16V781c0-2.65-.62-4.24-3-5.6l-.62-.35v-7.82l.62.35c7.27,4.2,10.19,9.47,10.19,17.7v39.22c0,8.23-2.92,10.19-10.19,6l-.62-.35v-7.82Z"/><polygon class="cls-82" points="195.91 372 114.82 325.42 114.82 232.84 195.91 279.42 195.91 372"/><polygon class="cls-120" points="215.84 360.75 195.82 372 195.82 279.42 215.84 268.17 215.84 360.75"/><polygon class="cls-121" points="196.08 279.27 114.98 232.69 134.49 221.73 215.59 268.31 196.08 279.27"/><path class="cls-94" d="M134,314.21v-8.69l5.54,3.19v-26.1l9.51,5.47v30.45c0,2.54-1.57,3.43-3.8,2.15Z"/><path class="cls-94" d="M151.65,301.2v-7.3c0-2.54,1.57-3.43,3.84-2.13l16.57,9.52v4.27l-1.49,3.63-9.37-5.39v1.59l8.28,11.07a10.65,10.65,0,0,1,2.58,7.39v7.9c0,2.54-1.57,3.43-3.79,2.14l-16.62-9.54v-8.69l10.86,6.24v-2.29l-8.29-11C152.13,305.74,151.65,304,151.65,301.2Z"/><polygon class="cls-103" points="863.41 298.68 755.2 236.21 755.2 112.04 863.41 174.51 863.41 298.68"/><polygon class="cls-122" points="890 285.12 863.29 300.21 863.29 176.04 890 160.95 890 285.12"/><polygon class="cls-123" points="863.63 175.85 755.42 113.37 781.45 98.67 889.66 161.15 863.63 175.85"/><text class="cls-124" transform="translate(762.63 190.27) rotate(27.86) scale(1.07 1)">devops</text><polygon class="cls-112" points="771.12 457.99 682.98 407.1 682.98 305.96 771.12 356.85 771.12 457.99"/><polygon class="cls-111" points="792.78 445.7 771.02 457.99 771.02 356.85 792.78 344.56 792.78 445.7"/><polygon class="cls-113" points="771.3 356.69 683.16 305.81 704.37 293.83 792.5 344.72 771.3 356.69"/><polygon class="cls-112" points="771.12 457.99 682.98 407.1 682.98 305.96 771.12 356.85 771.12 457.99"/><polygon class="cls-111" points="792.78 445.7 771.02 457.99 771.02 356.85 792.78 344.56 792.78 445.7"/><polygon class="cls-113" points="771.3 356.69 683.16 305.81 704.37 293.83 792.5 344.72 771.3 356.69"/><polygon class="cls-112" points="771.12 457.99 682.98 407.1 682.98 305.96 771.12 356.85 771.12 457.99"/><polygon class="cls-111" points="792.78 445.7 771.02 457.99 771.02 356.85 792.78 344.56 792.78 445.7"/><polygon class="cls-113" points="771.3 356.69 683.16 305.81 704.37 293.83 792.5 344.72 771.3 356.69"/><polygon class="cls-112" points="771.12 457.99 682.98 407.1 682.98 305.96 771.12 356.85 771.12 457.99"/><polygon class="cls-111" points="792.78 445.7 771.02 457.99 771.02 356.85 792.78 344.56 792.78 445.7"/><polygon class="cls-113" points="771.3 356.69 683.16 305.81 704.37 293.83 792.5 344.72 771.3 356.69"/><polygon class="cls-112" points="771.12 457.99 682.98 407.1 682.98 305.96 771.12 356.85 771.12 457.99"/><polygon class="cls-111" points="792.78 445.7 771.02 457.99 771.02 356.85 792.78 344.56 792.78 445.7"/><polygon class="cls-113" points="771.3 356.69 683.16 305.81 704.37 293.83 792.5 344.72 771.3 356.69"/><polygon class="cls-112" points="771.12 457.99 682.98 407.1 682.98 305.96 771.12 356.85 771.12 457.99"/><polygon class="cls-111" points="792.78 445.7 771.02 457.99 771.02 356.85 792.78 344.56 792.78 445.7"/><polygon class="cls-113" points="771.3 356.69 683.16 305.81 704.37 293.83 792.5 344.72 771.3 356.69"/><polygon class="cls-112" points="771.12 457.99 682.98 407.1 682.98 305.96 771.12 356.85 771.12 457.99"/><polygon class="cls-111" points="792.78 445.7 771.02 457.99 771.02 356.85 792.78 344.56 792.78 445.7"/><polygon class="cls-113" points="771.3 356.69 683.16 305.81 704.37 293.83 792.5 344.72 771.3 356.69"/><polygon class="cls-112" points="771.12 457.99 682.98 407.1 682.98 305.96 771.12 356.85 771.12 457.99"/><polygon class="cls-111" points="792.78 445.7 771.02 457.99 771.02 356.85 792.78 344.56 792.78 445.7"/><polygon class="cls-113" points="771.3 356.69 683.16 305.81 704.37 293.83 792.5 344.72 771.3 356.69"/><polygon class="cls-112" points="771.12 457.99 682.98 407.1 682.98 305.96 771.12 356.85 771.12 457.99"/><polygon class="cls-111" points="792.78 445.7 771.02 457.99 771.02 356.85 792.78 344.56 792.78 445.7"/><polygon class="cls-113" points="771.3 356.69 683.16 305.81 704.37 293.83 792.5 344.72 771.3 356.69"/><polygon class="cls-112" points="771.12 457.99 682.98 407.1 682.98 305.96 771.12 356.85 771.12 457.99"/><polygon class="cls-111" points="792.78 445.7 771.02 457.99 771.02 356.85 792.78 344.56 792.78 445.7"/><polygon class="cls-113" points="771.3 356.69 683.16 305.81 704.37 293.83 792.5 344.72 771.3 356.69"/><polygon class="cls-112" points="771.12 457.99 682.98 407.1 682.98 305.96 771.12 356.85 771.12 457.99"/><polygon class="cls-111" points="792.78 445.7 771.02 457.99 771.02 356.85 792.78 344.56 792.78 445.7"/><polygon class="cls-113" points="771.3 356.69 683.16 305.81 704.37 293.83 792.5 344.72 771.3 356.69"/><polygon class="cls-112" points="771.12 457.99 682.98 407.1 682.98 305.96 771.12 356.85 771.12 457.99"/><polygon class="cls-111" points="792.78 445.7 771.02 457.99 771.02 356.85 792.78 344.56 792.78 445.7"/><polygon class="cls-113" points="771.3 356.69 683.16 305.81 704.37 293.83 792.5 344.72 771.3 356.69"/><polygon class="cls-112" points="771.12 457.99 682.98 407.1 682.98 305.96 771.12 356.85 771.12 457.99"/><polygon class="cls-111" points="792.78 445.7 771.02 457.99 771.02 356.85 792.78 344.56 792.78 445.7"/><polygon class="cls-113" points="771.3 356.69 683.16 305.81 704.37 293.83 792.5 344.72 771.3 356.69"/><polygon class="cls-112" points="771.12 457.99 682.98 407.1 682.98 305.96 771.12 356.85 771.12 457.99"/><polygon class="cls-111" points="792.78 445.7 771.02 457.99 771.02 356.85 792.78 344.56 792.78 445.7"/><polygon class="cls-113" points="771.3 356.69 683.16 305.81 704.37 293.83 792.5 344.72 771.3 356.69"/><polygon class="cls-112" points="771.12 457.99 682.98 407.1 682.98 305.96 771.12 356.85 771.12 457.99"/><polygon class="cls-111" points="792.78 445.7 771.02 457.99 771.02 356.85 792.78 344.56 792.78 445.7"/><polygon class="cls-113" points="771.3 356.69 683.16 305.81 704.37 293.83 792.5 344.72 771.3 356.69"/><polygon class="cls-112" points="771.12 457.99 682.98 407.1 682.98 305.96 771.12 356.85 771.12 457.99"/><polygon class="cls-111" points="792.78 445.7 771.02 457.99 771.02 356.85 792.78 344.56 792.78 445.7"/><polygon class="cls-113" points="771.3 356.69 683.16 305.81 704.37 293.83 792.5 344.72 771.3 356.69"/><polygon class="cls-112" points="771.12 457.99 682.98 407.1 682.98 305.96 771.12 356.85 771.12 457.99"/><polygon class="cls-111" points="792.78 445.7 771.02 457.99 771.02 356.85 792.78 344.56 792.78 445.7"/><polygon class="cls-113" points="771.3 356.69 683.16 305.81 704.37 293.83 792.5 344.72 771.3 356.69"/><polygon class="cls-112" points="771.12 457.99 682.98 407.1 682.98 305.96 771.12 356.85 771.12 457.99"/><polygon class="cls-111" points="792.78 445.7 771.02 457.99 771.02 356.85 792.78 344.56 792.78 445.7"/><polygon class="cls-113" points="771.3 356.69 683.16 305.81 704.37 293.83 792.5 344.72 771.3 356.69"/><polygon class="cls-112" points="771.12 457.99 682.98 407.1 682.98 305.96 771.12 356.85 771.12 457.99"/><polygon class="cls-111" points="792.78 445.7 771.02 457.99 771.02 356.85 792.78 344.56 792.78 445.7"/><polygon class="cls-113" points="771.3 356.69 683.16 305.81 704.37 293.83 792.5 344.72 771.3 356.69"/><polygon class="cls-112" points="771.12 457.99 682.98 407.1 682.98 305.96 771.12 356.85 771.12 457.99"/><polygon class="cls-111" points="792.78 445.7 771.02 457.99 771.02 356.85 792.78 344.56 792.78 445.7"/><polygon class="cls-113" points="771.3 356.69 683.16 305.81 704.37 293.83 792.5 344.72 771.3 356.69"/><polygon class="cls-82" points="771.12 457.99 682.98 407.1 682.98 305.96 771.12 356.85 771.12 457.99"/><polygon class="cls-120" points="792.78 445.7 771.02 457.99 771.02 356.85 792.78 344.56 792.78 445.7"/><polygon class="cls-121" points="771.3 356.69 683.16 305.81 704.37 293.83 792.5 344.72 771.3 356.69"/><path class="cls-94" d="M697.8,379.22v11.84l-10.37-6v-38l20.71,12a8.66,8.66,0,0,1,4.18,7.14v16.65c0,2.77-1.72,3.8-4.18,2.37Zm0-9.49,4.13,2.38V365l-4.13-2.38Z"/><path class="cls-94" d="M730.11,385.51v-13.8l10.33,6v38l-10.33-6V395l-4.17-2.4v14.7l-10.34-6v-38l10.34,6V383.1Z"/><path class="cls-94" d="M754.58,412v11.84l-10.38-6v-38l20.72,12a8.63,8.63,0,0,1,4.17,7.14V415.6c0,2.77-1.7,3.8-4.17,2.37Zm0-9.5,4.13,2.39v-7.11l-4.13-2.39Z"/><polygon class="cls-125" points="632.12 169.9 543.99 119.01 543.99 17.87 632.12 68.76 632.12 169.9"/><polygon class="cls-126" points="653.78 157.6 632.03 169.9 632.03 68.76 653.78 56.47 653.78 157.6"/><polygon class="cls-127" points="632.3 68.6 544.16 17.71 565.37 5.74 653.51 56.62 632.3 68.6"/><path class="cls-94" d="M575.72,66.05v4.73l-1.62,3.89-10.19-5.88V87.74l11.81,6.81v9.5l-18-10.4a8.61,8.61,0,0,1-4.17-7.13V58c0-2.76,1.7-3.74,4.17-2.31Z"/><path class="cls-94" d="M585.93,87.15V77.59l6.69,3.86V91L601,95.84v7.66l-8.38-4.85v9.62l-6.69-3.87V94.8L577.59,90V82.33Z"/><path class="cls-94" d="M611.22,101.75V92.19l6.69,3.86v9.55l8.38,4.85v7.65l-8.38-4.85v9.62L611.22,119v-9.6l-8.34-4.82V96.93Z"/><polygon class="cls-103" points="1124.41 436.6 1029.39 381.74 1029.39 272.71 1124.41 327.57 1124.41 436.6"/><polygon class="cls-122" points="1147.76 423.35 1124.3 436.6 1124.3 327.57 1147.76 314.31 1147.76 423.35"/><polygon class="cls-123" points="1124.6 327.4 1029.58 272.54 1052.44 259.63 1147.46 314.49 1124.6 327.4"/><path class="cls-94" d="M1065,324.08v5.1l-1.72,4.2-11-6.35v20.43l12.72,7.35v10.24l-19.41-11.22a9.28,9.28,0,0,1-4.49-7.68V315.37c0-3,1.83-4,4.49-2.5Z"/><path class="cls-94" d="M1070,347.65c-2.45-3.36-3-5.43-3-8.72v-8.59c0-3,1.84-4,4.5-2.5l19.42,11.21v5l-1.73,4.26-11-6.35v1.88l9.72,13c2.45,3.29,3,5.43,3,8.71v9.3c0,3-1.85,4-4.44,2.53L1067,366.21V356l12.73,7.34v-2.68l-9.71-13"/><path class="cls-94" d="M1092.94,353.92v-8.6c0-3,1.84-4,4.5-2.51L1116.85,354v5l-1.73,4.26-11-6.34v1.87l9.71,13a12.55,12.55,0,0,1,3,8.7v9.31c0,3-1.84,4-4.44,2.52l-19.47-11.23V371l12.73,7.34V375.6l-9.71-13C1093.51,359.27,1092.94,357.19,1092.94,353.92Z"/><polygon class="cls-125" points="979.08 619.14 889.25 567.28 889.25 464.2 979.08 516.07 979.08 619.14"/><polygon class="cls-126" points="1001.16 606.61 978.99 619.14 978.99 516.07 1001.16 503.54 1001.16 606.61"/><polygon class="cls-127" points="979.26 515.9 889.44 464.04 911.05 451.84 1000.88 503.7 979.26 515.9"/><path class="cls-94" d="M898.94,514.79v-8.13c0-2.82,1.74-3.81,4.25-2.36l18.36,10.6v4.75l-1.64,4-10.4-6v1.77l9.19,12.33a11.89,11.89,0,0,1,2.85,8.22v8.8c0,2.82-1.74,3.81-4.2,2.39l-18.41-10.62V530.9l12,6.94v-2.55L901.79,523C899.47,519.86,898.94,517.89,898.94,514.79Z"/><path class="cls-94" d="M941.13,564.93l2.13,5v4.82l-8-4.64-1.59-9.49-5-2.87a8.81,8.81,0,0,1-4.25-7.27v-29.1c0-2.82,1.74-3.81,4.25-2.36l16.86,9.73a8.82,8.82,0,0,1,4.25,7.28v29.09c0,2.82-1.74,3.81-4.25,2.36ZM935,532.4v19.31l4.2,2.43V534.82Z"/><path class="cls-94" d="M953.62,533.42l10.53,6.07v29l10.64,6.14v9.68l-21.17-12.22Z"/><path class="cls-128" d="M543.38,724.15c-3.55.35-9.72,3.45-9.72,11.94s7.91,16.08,11.45,16.48,6.89.7,11.43-4.15c3.59-3.82,6.85-15.6,1-20.56C554.19,725,551.31,723.36,543.38,724.15Z"/><path class="cls-129" d="M542.83,725.62c1.49-2.76-9.17,1.74-9.17,9.2s6.94,14.1,10.05,14.45,6,.62,10-3.64c3.14-3.35,6-13.68.87-18C551.67,725.1,538.27,734.08,542.83,725.62Z"/><path class="cls-130" d="M538.63,731a3.34,3.34,0,0,0-2.89,3.55c0,2.53,2.35,4.78,3.41,4.9a3.36,3.36,0,0,0,3.39-1.23c1.07-1.14,2-4.64.3-6.11C541.84,731.21,541,730.72,538.63,731Z"/><path class="cls-127" d="M545.63,726.83s-1.57-4.71-.73-6.35l.84-1.63,1.46.85s-1.38.84-1.57,1.64A52.3,52.3,0,0,0,545.63,726.83Z"/><path class="cls-123" d="M512.24,794.84c-6.09,3.52-16,3.5-22.13,0S484,785.54,490,782s16-3.5,22.13,0S518.33,791.32,512.24,794.84Z"/><rect class="cls-123" x="485.5" y="761.14" width="31.29" height="26.96"/><path class="cls-101" d="M512.24,767.21c-6.09,3.51-16,3.5-22.13,0S484,757.91,490,754.4s16-3.5,22.13,0S518.33,763.69,512.24,767.21Z"/><path class="cls-123" d="M514.88,760.86a4.1,4.1,0,0,1-.92,2.47,9,9,0,0,1-2.67,2.23,20.46,20.46,0,0,1-10.05,2.37,20.72,20.72,0,0,1-10.17-2.41,8.91,8.91,0,0,1-2.77-2.35,4.06,4.06,0,0,1-.9-2.42c0-1.7,1.28-3.37,3.6-4.71a22.6,22.6,0,0,1,20.21.05C513.54,757.43,514.88,759.17,514.88,760.86Z"/><path class="cls-131" d="M514,763.33a9,9,0,0,1-2.67,2.23,20.46,20.46,0,0,1-10.05,2.37,20.72,20.72,0,0,1-10.17-2.41,8.91,8.91,0,0,1-2.77-2.35A8.94,8.94,0,0,1,491,761a20.42,20.42,0,0,1,10-2.37A20.65,20.65,0,0,1,511.19,761,9.13,9.13,0,0,1,514,763.33Z"/><path class="cls-101" d="M516.31,768.84,514,770.2l2.82,1.81c1.72,1,4.62,4.56,4.62,6.53l.25,3c0,3.14-1.33,4.66-3.86,4.41l-1.48-.15L514,787.17l3.65,3.11c2.72.12,6.23-3.32,6.3-6.73l.09-4.85a9.73,9.73,0,0,0-4.09-7.5Z"/><path class="cls-103" d="M514,770.2v2.53l2.55,1.47a6.88,6.88,0,0,1,3.11,5.37v3c0,3.15-1.65,5-4.19,4.79l-1.47-.15v3l3,.14c2.73.12,4.5-2,4.56-5.37l.1-4.85a9.48,9.48,0,0,0-3.85-7.5Z"/><polygon class="cls-82" points="1145.91 668 1064.82 621.42 1064.82 528.84 1145.91 575.42 1145.91 668"/><polygon class="cls-120" points="1165.84 656.75 1145.82 668 1145.82 575.42 1165.84 564.16 1165.84 656.75"/><polygon class="cls-121" points="1146.08 575.27 1064.98 528.69 1084.49 517.73 1165.59 564.31 1146.08 575.27"/><text class="cls-132" transform="translate(1080.3 607.16) rotate(23.14) scale(1.09 1)">PY</text></svg>